STARTFONT 2.1
COMMENT
COMMENT Converted from OpenType font "JF-Dot-ShinonomeMin16B.ttf" by "otf2bdf 3.0".
COMMENT
FONT -FreeType-JF Dot Shinonome Mincho 16-Bold-R-Normal--17-120-100-100-P-166-ISO10646-1
SIZE 12 100 100
FONTBOUNDINGBOX 17 17 0 -2
STARTPROPERTIES 19
FOUNDRY "FreeType"
FAMILY_NAME "JF Dot Shinonome Mincho 16"
WEIGHT_NAME "Bold"
SLANT "R"
SETWIDTH_NAME "Normal"
ADD_STYLE_NAME ""
PIXEL_SIZE 17
POINT_SIZE 120
RESOLUTION_X 100
RESOLUTION_Y 100
SPACING "P"
AVERAGE_WIDTH 166
CHARSET_REGISTRY "ISO10646"
CHARSET_ENCODING "1"
FONT_ASCENT 14
FONT_DESCENT 2
COPYRIGHT "-FreeType-JF Dot Shinonome Mincho 16-Bold-R-Normal--17-120-100-100-P-166-ISO10646-1"
_OTF_FONTFILE "JF-Dot-ShinonomeMin16B.ttf"
_OTF_PSNAME "JF-Dot-ShinonomeMin-16-Bold"
ENDPROPERTIES
CHARS 7146
STARTCHAR 0020
ENCODING 32
SWIDTH 540 0
DWIDTH 9 0
BBX 0 0 0 0
BITMAP
ENDCHAR
STARTCHAR 0021
ENCODING 33
SWIDTH 540 0
DWIDTH 9 0
BBX 3 15 3 -1
BITMAP
E0
E0
E0
E0
E0
C0
C0
C0
C0
C0
C0
00
00
C0
C0
ENDCHAR
STARTCHAR 0022
ENCODING 34
SWIDTH 540 0
DWIDTH 9 0
BBX 6 5 1 10
BITMAP
EC
6C
6C
6C
D8
ENDCHAR
STARTCHAR 0023
ENCODING 35
SWIDTH 540 0
DWIDTH 9 0
BBX 9 15 0 -1
BITMAP
1B80
1B80
1B80
1B80
7F80
3600
3600
3600
3600
3600
FF80
6C00
6C00
6C00
6C00
ENDCHAR
STARTCHAR 0024
ENCODING 36
SWIDTH 540 0
DWIDTH 9 0
BBX 9 17 0 -2
BITMAP
1800
3C00
3C00
6A00
DB80
DB80
D800
6800
3C00
1A00
1B80
DB80
DB80
6A00
3C00
1800
1800
ENDCHAR
STARTCHAR 0025
ENCODING 37
SWIDTH 540 0
DWIDTH 9 0
BBX 9 17 0 -2
BITMAP
0180
7180
7180
DB80
DB80
DA00
DA00
7400
0C00
1800
1B80
3580
3580
6D80
6D80
C780
C000
ENDCHAR
STARTCHAR 0026
ENCODING 38
SWIDTH 540 0
DWIDTH 9 0
BBX 9 14 0 0
BITMAP
3C00
3C00
6600
6600
6600
3400
1800
3800
6D80
CD80
C600
C600
6D80
3980
ENDCHAR
STARTCHAR 0027
ENCODING 39
SWIDTH 540 0
DWIDTH 9 0
BBX 3 5 1 10
BITMAP
E0
60
60
60
C0
ENDCHAR
STARTCHAR 0028
ENCODING 40
SWIDTH 540 0
DWIDTH 9 0
BBX 6 16 3 -2
BITMAP
1C
1C
30
60
60
C0
C0
C0
C0
C0
C0
C0
60
60
30
1C
ENDCHAR
STARTCHAR 0029
ENCODING 41
SWIDTH 540 0
DWIDTH 9 0
BBX 5 16 1 -2
BITMAP
C0
C0
60
30
30
18
18
18
18
18
18
18
30
30
60
C0
ENDCHAR
STARTCHAR 002A
ENCODING 42
SWIDTH 540 0
DWIDTH 9 0
BBX 9 7 0 3
BITMAP
1800
DB80
6A00
3C00
6A00
DB80
1800
ENDCHAR
STARTCHAR 002B
ENCODING 43
SWIDTH 540 0
DWIDTH 9 0
BBX 9 9 0 2
BITMAP
1800
1800
1800
1800
FF80
1800
1800
1800
1800
ENDCHAR
STARTCHAR 002C
ENCODING 44
SWIDTH 540 0
DWIDTH 9 0
BBX 3 4 1 -2
BITMAP
E0
60
60
C0
ENDCHAR
STARTCHAR 002D
ENCODING 45
SWIDTH 540 0
DWIDTH 9 0
BBX 9 1 0 6
BITMAP
FF80
ENDCHAR
STARTCHAR 002E
ENCODING 46
SWIDTH 540 0
DWIDTH 9 0
BBX 3 2 1 0
BITMAP
E0
E0
ENDCHAR
STARTCHAR 002F
ENCODING 47
SWIDTH 540 0
DWIDTH 9 0
BBX 9 15 0 -1
BITMAP
0380
0380
0380
0600
0600
0C00
0C00
1800
1800
3000
3000
6000
6000
C000
C000
ENDCHAR
STARTCHAR 0030
ENCODING 48
SWIDTH 540 0
DWIDTH 9 0
BBX 8 14 1 0
BITMAP
38
38
6C
6C
C7
C7
C7
C7
C7
C7
C7
6C
6C
38
ENDCHAR
STARTCHAR 0031
ENCODING 49
SWIDTH 540 0
DWIDTH 9 0
BBX 4 14 1 0
BITMAP
30
30
30
70
D0
30
30
30
30
30
30
30
30
30
ENDCHAR
STARTCHAR 0032
ENCODING 50
SWIDTH 540 0
DWIDTH 9 0
BBX 8 14 1 0
BITMAP
38
38
6C
C7
C7
07
0C
18
30
60
60
C0
C0
FF
ENDCHAR
STARTCHAR 0033
ENCODING 51
SWIDTH 540 0
DWIDTH 9 0
BBX 9 14 0 0
BITMAP
3C00
3C00
6600
C380
C380
0380
0600
3C00
0600
0380
C380
C380
6600
3C00
ENDCHAR
STARTCHAR 0034
ENCODING 52
SWIDTH 540 0
DWIDTH 9 0
BBX 9 14 0 0
BITMAP
0C00
0C00
1C00
1C00
3400
3400
6C00
6C00
CC00
FF80
0C00
0C00
0C00
0C00
ENDCHAR
STARTCHAR 0035
ENCODING 53
SWIDTH 540 0
DWIDTH 9 0
BBX 9 14 0 0
BITMAP
7E00
7E00
6000
6000
6000
DC00
E600
C380
0380
0380
C380
C380
6600
3C00
ENDCHAR
STARTCHAR 0036
ENCODING 54
SWIDTH 540 0
DWIDTH 9 0
BBX 9 14 0 0
BITMAP
3C00
3C00
6600
6000
C000
C000
DC00
E600
C380
C380
C380
C380
6600
3C00
ENDCHAR
STARTCHAR 0037
ENCODING 55
SWIDTH 540 0
DWIDTH 9 0
BBX 9 15 0 -1
BITMAP
FF80
FF80
0380
0600
0600
0C00
0C00
0C00
0C00
1800
1800
1800
1800
1800
1800
ENDCHAR
STARTCHAR 0038
ENCODING 56
SWIDTH 540 0
DWIDTH 9 0
BBX 9 14 0 0
BITMAP
3C00
3C00
6600
C380
C380
C380
6600
3C00
6600
C380
C380
C380
6600
3C00
ENDCHAR
STARTCHAR 0039
ENCODING 57
SWIDTH 540 0
DWIDTH 9 0
BBX 9 14 0 0
BITMAP
3C00
3C00
6600
C380
C380
C380
C380
6780
3D80
0380
0380
C380
6600
3C00
ENDCHAR
STARTCHAR 003A
ENCODING 58
SWIDTH 540 0
DWIDTH 9 0
BBX 3 9 3 1
BITMAP
E0
E0
00
00
00
00
00
E0
E0
ENDCHAR
STARTCHAR 003B
ENCODING 59
SWIDTH 540 0
DWIDTH 9 0
BBX 3 10 3 0
BITMAP
E0
E0
00
00
00
00
E0
60
60
C0
ENDCHAR
STARTCHAR 003C
ENCODING 60
SWIDTH 540 0
DWIDTH 9 0
BBX 7 10 2 1
BITMAP
0E
18
30
60
C0
C0
60
30
18
0E
ENDCHAR
STARTCHAR 003D
ENCODING 61
SWIDTH 540 0
DWIDTH 9 0
BBX 9 5 0 4
BITMAP
FF80
0000
0000
0000
FF80
ENDCHAR
STARTCHAR 003E
ENCODING 62
SWIDTH 540 0
DWIDTH 9 0
BBX 6 10 1 1
BITMAP
C0
60
30
18
0C
0C
18
30
60
C0
ENDCHAR
STARTCHAR 003F
ENCODING 63
SWIDTH 540 0
DWIDTH 9 0
BBX 9 15 0 -1
BITMAP
3C00
3C00
6600
C380
C380
C380
0600
0C00
0C00
1800
1800
0000
0000
1800
1800
ENDCHAR
STARTCHAR 0040
ENCODING 64
SWIDTH 540 0
DWIDTH 9 0
BBX 9 14 0 0
BITMAP
1C00
1C00
3600
6380
6D80
DA00
D600
D600
D600
DD80
6000
6000
3380
1E00
ENDCHAR
STARTCHAR 0041
ENCODING 65
SWIDTH 540 0
DWIDTH 9 0
BBX 9 14 0 0
BITMAP
1800
1800
1800
3400
3400
3400
6600
6600
6600
7E00
C380
C380
C380
C380
ENDCHAR
STARTCHAR 0042
ENCODING 66
SWIDTH 540 0
DWIDTH 9 0
BBX 9 14 0 0
BITMAP
F800
F800
CC00
C600
C600
C600
CC00
FC00
C600
C380
C380
C380
C600
FC00
ENDCHAR
STARTCHAR 0043
ENCODING 67
SWIDTH 540 0
DWIDTH 9 0
BBX 9 14 0 0
BITMAP
3C00
3C00
6600
6380
C000
C000
C000
C000
C000
C000
C000
6380
6600
3C00
ENDCHAR
STARTCHAR 0044
ENCODING 68
SWIDTH 540 0
DWIDTH 9 0
BBX 9 14 0 0
BITMAP
F800
F800
CC00
C600
C600
C380
C380
C380
C380
C380
C600
C600
CC00
F800
ENDCHAR
STARTCHAR 0045
ENCODING 69
SWIDTH 540 0
DWIDTH 9 0
BBX 9 14 0 0
BITMAP
FF80
FF80
C000
C000
C000
C000
C000
FE00
C000
C000
C000
C000
C000
FF80
ENDCHAR
STARTCHAR 0046
ENCODING 70
SWIDTH 540 0
DWIDTH 9 0
BBX 9 14 0 0
BITMAP
FF80
FF80
C000
C000
C000
C000
C000
FE00
C000
C000
C000
C000
C000
C000
ENDCHAR
STARTCHAR 0047
ENCODING 71
SWIDTH 540 0
DWIDTH 9 0
BBX 9 14 0 0
BITMAP
1C00
1C00
3600
6380
6000
C000
C000
CF80
C380
C380
C380
6380
7780
1D80
ENDCHAR
STARTCHAR 0048
ENCODING 72
SWIDTH 540 0
DWIDTH 9 0
BBX 9 14 0 0
BITMAP
C380
C380
C380
C380
C380
C380
C380
FF80
C380
C380
C380
C380
C380
C380
ENDCHAR
STARTCHAR 0049
ENCODING 73
SWIDTH 540 0
DWIDTH 9 0
BBX 4 14 2 0
BITMAP
F0
F0
60
60
60
60
60
60
60
60
60
60
60
F0
ENDCHAR
STARTCHAR 004A
ENCODING 74
SWIDTH 540 0
DWIDTH 9 0
BBX 8 14 1 0
BITMAP
07
07
07
07
07
07
07
07
07
07
07
C7
6C
38
ENDCHAR
STARTCHAR 004B
ENCODING 75
SWIDTH 540 0
DWIDTH 9 0
BBX 8 14 1 0
BITMAP
C7
C7
C7
CC
CC
D8
D8
E8
EC
CC
C7
C7
C3
C3
ENDCHAR
STARTCHAR 004C
ENCODING 76
SWIDTH 540 0
DWIDTH 9 0
BBX 8 14 1 0
BITMAP
C0
C0
C0
C0
C0
C0
C0
C0
C0
C0
C0
C0
C0
FF
ENDCHAR
STARTCHAR 004D
ENCODING 77
SWIDTH 540 0
DWIDTH 9 0
BBX 9 14 0 0
BITMAP
C380
C380
C380
E780
E780
E780
D580
D580
D580
DB80
DB80
DB80
DB80
C380
ENDCHAR
STARTCHAR 004E
ENCODING 78
SWIDTH 540 0
DWIDTH 9 0
BBX 9 14 0 0
BITMAP
C380
C380
E380
E380
D380
D380
DB80
DB80
DB80
CD80
CD80
C780
C780
C380
ENDCHAR
STARTCHAR 004F
ENCODING 79
SWIDTH 540 0
DWIDTH 9 0
BBX 9 14 0 0
BITMAP
3C00
3C00
6600
6600
C380
C380
C380
C380
C380
C380
C380
6600
6600
3C00
ENDCHAR
STARTCHAR 0050
ENCODING 80
SWIDTH 540 0
DWIDTH 9 0
BBX 9 14 0 0
BITMAP
FC00
FC00
C600
C380
C380
C380
C600
FC00
C000
C000
C000
C000
C000
C000
ENDCHAR
STARTCHAR 0051
ENCODING 81
SWIDTH 540 0
DWIDTH 9 0
BBX 9 16 0 -2
BITMAP
3C00
3C00
6600
6600
C380
C380
C380
C380
C380
C380
DD80
6600
6600
3C00
0C00
0780
ENDCHAR
STARTCHAR 0052
ENCODING 82
SWIDTH 540 0
DWIDTH 9 0
BBX 9 14 0 0
BITMAP
FC00
FC00
C600
C380
C380
C380
C600
FC00
CC00
C600
C600
C600
C380
C380
ENDCHAR
STARTCHAR 0053
ENCODING 83
SWIDTH 540 0
DWIDTH 9 0
BBX 9 14 0 0
BITMAP
3C00
3C00
6600
C380
C380
C000
7000
1C00
0600
0380
C380
C380
6600
3C00
ENDCHAR
STARTCHAR 0054
ENCODING 84
SWIDTH 540 0
DWIDTH 9 0
BBX 9 14 0 0
BITMAP
FF80
FF80
1800
1800
1800
1800
1800
1800
1800
1800
1800
1800
1800
1800
ENDCHAR
STARTCHAR 0055
ENCODING 85
SWIDTH 540 0
DWIDTH 9 0
BBX 9 14 0 0
BITMAP
C380
C380
C380
C380
C380
C380
C380
C380
C380
C380
C380
C380
6600
3C00
ENDCHAR
STARTCHAR 0056
ENCODING 86
SWIDTH 540 0
DWIDTH 9 0
BBX 9 14 0 0
BITMAP
C380
C380
C380
C380
C380
6600
6600
6600
3400
3400
3400
1800
1800
1800
ENDCHAR
STARTCHAR 0057
ENCODING 87
SWIDTH 540 0
DWIDTH 9 0
BBX 9 14 0 0
BITMAP
DB80
DB80
DB80
DB80
DB80
DB80
DB80
D580
D580
7600
6600
6600
6600
6600
ENDCHAR
STARTCHAR 0058
ENCODING 88
SWIDTH 540 0
DWIDTH 9 0
BBX 9 14 0 0
BITMAP
C380
C380
6600
6600
3400
3400
1800
3400
3400
3400
6600
6600
C380
C380
ENDCHAR
STARTCHAR 0059
ENCODING 89
SWIDTH 540 0
DWIDTH 9 0
BBX 9 14 0 0
BITMAP
C380
C380
C380
6600
6600
6600
3400
3400
1800
1800
1800
1800
1800
1800
ENDCHAR
STARTCHAR 005A
ENCODING 90
SWIDTH 540 0
DWIDTH 9 0
BBX 9 14 0 0
BITMAP
FF80
FF80
0600
0600
0C00
0C00
1800
1800
3000
3000
6000
6000
C000
FF80
ENDCHAR
STARTCHAR 005B
ENCODING 91
SWIDTH 540 0
DWIDTH 9 0
BBX 6 17 3 -2
BITMAP
FC
C0
C0
C0
C0
C0
C0
C0
C0
C0
C0
C0
C0
C0
C0
C0
FC
ENDCHAR
STARTCHAR 005C
ENCODING 92
SWIDTH 540 0
DWIDTH 9 0
BBX 9 15 0 0
BITMAP
C380
C380
C380
6600
6600
6600
3400
3400
FF80
1800
FF80
1800
1800
1800
1800
ENDCHAR
STARTCHAR 005D
ENCODING 93
SWIDTH 540 0
DWIDTH 9 0
BBX 5 17 0 -2
BITMAP
F8
18
18
18
18
18
18
18
18
18
18
18
18
18
18
18
F8
ENDCHAR
STARTCHAR 005E
ENCODING 94
SWIDTH 540 0
DWIDTH 9 0
BBX 9 5 0 10
BITMAP
1800
3400
3400
6600
C380
ENDCHAR
STARTCHAR 005F
ENCODING 95
SWIDTH 540 0
DWIDTH 9 0
BBX 9 1 0 -1
BITMAP
FF80
ENDCHAR
STARTCHAR 0060
ENCODING 96
SWIDTH 540 0
DWIDTH 9 0
BBX 3 5 2 10
BITMAP
E0
C0
C0
C0
60
ENDCHAR
STARTCHAR 0061
ENCODING 97
SWIDTH 540 0
DWIDTH 9 0
BBX 9 9 0 0
BITMAP
3E00
6380
0380
3F80
6380
C380
C380
C780
7D80
ENDCHAR
STARTCHAR 0062
ENCODING 98
SWIDTH 540 0
DWIDTH 9 0
BBX 9 14 0 0
BITMAP
C000
C000
C000
C000
C000
DC00
E600
C380
C380
C380
C380
C380
E600
DC00
ENDCHAR
STARTCHAR 0063
ENCODING 99
SWIDTH 540 0
DWIDTH 9 0
BBX 9 9 0 0
BITMAP
3C00
6600
C380
C000
C000
C000
C380
6600
3C00
ENDCHAR
STARTCHAR 0064
ENCODING 100
SWIDTH 540 0
DWIDTH 9 0
BBX 9 14 0 0
BITMAP
0380
0380
0380
0380
0380
3D80
6780
C380
C380
C380
C380
C380
6780
3D80
ENDCHAR
STARTCHAR 0065
ENCODING 101
SWIDTH 540 0
DWIDTH 9 0
BBX 9 9 0 0
BITMAP
3C00
6600
C380
C380
FF80
C000
C380
6600
3C00
ENDCHAR
STARTCHAR 0066
ENCODING 102
SWIDTH 540 0
DWIDTH 9 0
BBX 6 14 1 0
BITMAP
1C
1C
30
30
30
FC
30
30
30
30
30
30
30
30
ENDCHAR
STARTCHAR 0067
ENCODING 103
SWIDTH 540 0
DWIDTH 9 0
BBX 9 11 0 -2
BITMAP
3D80
6600
6600
6600
3C00
6000
7C00
C600
C380
C380
7E00
ENDCHAR
STARTCHAR 0068
ENCODING 104
SWIDTH 540 0
DWIDTH 9 0
BBX 8 14 1 0
BITMAP
C0
C0
C0
C0
C0
DC
E7
C7
C7
C7
C7
C7
C7
C7
ENDCHAR
STARTCHAR 0069
ENCODING 105
SWIDTH 540 0
DWIDTH 9 0
BBX 3 14 2 0
BITMAP
60
60
60
00
00
E0
60
60
60
60
60
60
60
60
ENDCHAR
STARTCHAR 006A
ENCODING 106
SWIDTH 540 0
DWIDTH 9 0
BBX 5 16 1 -2
BITMAP
18
18
18
00
00
38
18
18
18
18
18
18
18
18
30
E0
ENDCHAR
STARTCHAR 006B
ENCODING 107
SWIDTH 540 0
DWIDTH 9 0
BBX 8 14 1 0
BITMAP
C0
C0
C0
C0
C0
C7
CC
D8
D0
E8
CC
CC
C7
C7
ENDCHAR
STARTCHAR 006C
ENCODING 108
SWIDTH 540 0
DWIDTH 9 0
BBX 3 14 2 0
BITMAP
E0
E0
60
60
60
60
60
60
60
60
60
60
60
60
ENDCHAR
STARTCHAR 006D
ENCODING 109
SWIDTH 540 0
DWIDTH 9 0
BBX 9 9 0 0
BITMAP
F600
DB80
DB80
DB80
DB80
DB80
DB80
DB80
DB80
ENDCHAR
STARTCHAR 006E
ENCODING 110
SWIDTH 540 0
DWIDTH 9 0
BBX 8 9 1 0
BITMAP
DC
E7
C7
C7
C7
C7
C7
C7
C7
ENDCHAR
STARTCHAR 006F
ENCODING 111
SWIDTH 540 0
DWIDTH 9 0
BBX 9 9 0 0
BITMAP
3C00
6600
C380
C380
C380
C380
C380
6600
3C00
ENDCHAR
STARTCHAR 0070
ENCODING 112
SWIDTH 540 0
DWIDTH 9 0
BBX 9 11 0 -2
BITMAP
DC00
E600
C380
C380
C380
C380
E600
DC00
C000
C000
C000
ENDCHAR
STARTCHAR 0071
ENCODING 113
SWIDTH 540 0
DWIDTH 9 0
BBX 9 11 0 -2
BITMAP
3D80
6780
C380
C380
C380
C380
6780
3D80
0380
0380
0380
ENDCHAR
STARTCHAR 0072
ENCODING 114
SWIDTH 540 0
DWIDTH 9 0
BBX 5 9 2 0
BITMAP
D8
E0
C0
C0
C0
C0
C0
C0
C0
ENDCHAR
STARTCHAR 0073
ENCODING 115
SWIDTH 540 0
DWIDTH 9 0
BBX 8 9 1 0
BITMAP
7C
C7
C0
E0
38
0F
07
C7
7C
ENDCHAR
STARTCHAR 0074
ENCODING 116
SWIDTH 540 0
DWIDTH 9 0
BBX 6 12 1 0
BITMAP
30
30
30
FC
30
30
30
30
30
30
30
1C
ENDCHAR
STARTCHAR 0075
ENCODING 117
SWIDTH 540 0
DWIDTH 9 0
BBX 8 9 1 0
BITMAP
C7
C7
C7
C7
C7
C7
C7
CF
7B
ENDCHAR
STARTCHAR 0076
ENCODING 118
SWIDTH 540 0
DWIDTH 9 0
BBX 9 9 0 0
BITMAP
C380
C380
C380
6600
6600
3400
3400
1800
1800
ENDCHAR
STARTCHAR 0077
ENCODING 119
SWIDTH 540 0
DWIDTH 9 0
BBX 9 9 0 0
BITMAP
DB80
DB80
DB80
DB80
D580
D580
6600
6600
6600
ENDCHAR
STARTCHAR 0078
ENCODING 120
SWIDTH 540 0
DWIDTH 9 0
BBX 9 9 0 0
BITMAP
C380
6600
3400
3400
1800
3400
3400
6600
C380
ENDCHAR
STARTCHAR 0079
ENCODING 121
SWIDTH 540 0
DWIDTH 9 0
BBX 9 11 0 -2
BITMAP
C380
C380
6600
6600
3400
3400
1C00
1800
1800
3000
E000
ENDCHAR
STARTCHAR 007A
ENCODING 122
SWIDTH 540 0
DWIDTH 9 0
BBX 9 9 0 0
BITMAP
7F80
0600
0C00
0C00
1800
1800
3000
6000
FF80
ENDCHAR
STARTCHAR 007B
ENCODING 123
SWIDTH 540 0
DWIDTH 9 0
BBX 4 17 3 -2
BITMAP
30
60
60
60
60
60
60
60
C0
60
60
60
60
60
60
60
30
ENDCHAR
STARTCHAR 007C
ENCODING 124
SWIDTH 540 0
DWIDTH 9 0
BBX 2 17 3 -2
BITMAP
C0
C0
C0
C0
C0
C0
C0
C0
C0
C0
C0
C0
C0
C0
C0
C0
C0
ENDCHAR
STARTCHAR 007D
ENCODING 125
SWIDTH 540 0
DWIDTH 9 0
BBX 4 17 1 -2
BITMAP
C0
60
60
60
60
60
60
60
30
60
60
60
60
60
60
60
C0
ENDCHAR
STARTCHAR 007E
ENCODING 126
SWIDTH 540 0
DWIDTH 9 0
BBX 9 1 0 14
BITMAP
FF80
ENDCHAR
STARTCHAR 00A0
ENCODING 160
SWIDTH 540 0
DWIDTH 9 0
BBX 0 0 0 0
BITMAP
ENDCHAR
STARTCHAR 00A1
ENCODING 161
SWIDTH 540 0
DWIDTH 9 0
BBX 3 16 2 -2
BITMAP
60
60
60
00
00
60
60
60
60
60
60
60
E0
E0
E0
E0
ENDCHAR
STARTCHAR 00A2
ENCODING 162
SWIDTH 540 0
DWIDTH 9 0
BBX 9 13 0 -1
BITMAP
1800
3E00
6B80
DB80
D800
D800
D800
D800
D800
DB80
6B80
3E00
1800
ENDCHAR
STARTCHAR 00A3
ENCODING 163
SWIDTH 540 0
DWIDTH 9 0
BBX 8 11 1 -1
BITMAP
1C
37
30
30
30
FC
30
30
7C
D7
60
ENDCHAR
STARTCHAR 00A4
ENCODING 164
SWIDTH 540 0
DWIDTH 9 0
BBX 8 6 1 3
BITMAP
C7
7C
6C
6C
7C
C7
ENDCHAR
STARTCHAR 00A5
ENCODING 165
SWIDTH 540 0
DWIDTH 9 0
BBX 9 15 0 -1
BITMAP
C000
C000
C000
6000
6000
3000
3000
1800
1800
0C00
0C00
0600
0600
0380
0380
ENDCHAR
STARTCHAR 00A6
ENCODING 166
SWIDTH 540 0
DWIDTH 9 0
BBX 2 14 3 0
BITMAP
C0
C0
C0
C0
C0
C0
00
00
00
C0
C0
C0
C0
C0
ENDCHAR
STARTCHAR 00A7
ENCODING 167
SWIDTH 1020 0
DWIDTH 17 0
BBX 8 17 4 -2
BITMAP
3C
6E
6E
C3
E3
78
7C
DE
CF
E3
7B
3E
1E
CF
C3
6E
3C
ENDCHAR
STARTCHAR 00A8
ENCODING 168
SWIDTH 1020 0
DWIDTH 17 0
BBX 8 3 4 12
BITMAP
EF
EF
EF
ENDCHAR
STARTCHAR 00A9
ENCODING 169
SWIDTH 540 0
DWIDTH 9 0
BBX 9 12 0 0
BITMAP
3E00
6380
DD80
D600
D180
D180
D180
D600
D600
DD80
6380
3E00
ENDCHAR
STARTCHAR 00AA
ENCODING 170
SWIDTH 540 0
DWIDTH 9 0
BBX 7 9 2 5
BITMAP
78
78
CE
7E
CE
DE
76
00
FE
ENDCHAR
STARTCHAR 00AB
ENCODING 171
SWIDTH 540 0
DWIDTH 9 0
BBX 9 10 0 1
BITMAP
0D80
1B80
3600
6C00
D800
D800
6C00
3600
1B80
0D80
ENDCHAR
STARTCHAR 00AC
ENCODING 172
SWIDTH 540 0
DWIDTH 9 0
BBX 9 4 0 3
BITMAP
FF80
FF80
0780
0780
ENDCHAR
STARTCHAR 00AD
ENCODING 173
SWIDTH 540 0
DWIDTH 9 0
BBX 9 2 0 5
BITMAP
FF80
FF80
ENDCHAR
STARTCHAR 00AE
ENCODING 174
SWIDTH 540 0
DWIDTH 9 0
BBX 9 12 0 0
BITMAP
3E00
6380
DD80
D600
D600
DD80
D580
D600
D600
D380
6380
3E00
ENDCHAR
STARTCHAR 00AF
ENCODING 175
SWIDTH 540 0
DWIDTH 9 0
BBX 9 1 0 11
BITMAP
FF80
ENDCHAR
STARTCHAR 00B0
ENCODING 176
SWIDTH 1020 0
DWIDTH 17 0
BBX 5 5 0 9
BITMAP
70
70
D8
D8
70
ENDCHAR
STARTCHAR 00B1
ENCODING 177
SWIDTH 1020 0
DWIDTH 17 0
BBX 14 12 2 0
BITMAP
0700
0700
0700
0700
FFF8
0700
0700
0700
0700
0000
0000
FFFC
ENDCHAR
STARTCHAR 00B2
ENCODING 178
SWIDTH 540 0
DWIDTH 9 0
BBX 5 8 2 6
BITMAP
70
70
D8
18
30
60
C0
F8
ENDCHAR
STARTCHAR 00B3
ENCODING 179
SWIDTH 540 0
DWIDTH 9 0
BBX 5 8 2 6
BITMAP
70
70
D8
18
70
18
D8
70
ENDCHAR
STARTCHAR 00B4
ENCODING 180
SWIDTH 1020 0
DWIDTH 17 0
BBX 5 5 5 10
BITMAP
38
38
38
70
C0
ENDCHAR
STARTCHAR 00B5
ENCODING 181
SWIDTH 540 0
DWIDTH 9 0
BBX 9 9 0 -2
BITMAP
3380
3380
3380
6600
6600
7600
6A00
C380
C000
ENDCHAR
STARTCHAR 00B6
ENCODING 182
SWIDTH 1020 0
DWIDTH 17 0
BBX 10 16 2 -2
BITMAP
3FC0
3FC0
7EC0
FEC0
FEC0
7EC0
3EC0
0EC0
0EC0
0EC0
0EC0
0EC0
0EC0
0EC0
0EC0
0EC0
ENDCHAR
STARTCHAR 00B7
ENCODING 183
SWIDTH 540 0
DWIDTH 9 0
BBX 3 2 3 6
BITMAP
E0
E0
ENDCHAR
STARTCHAR 00B8
ENCODING 184
SWIDTH 540 0
DWIDTH 9 0
BBX 4 3 3 -2
BITMAP
70
60
C0
ENDCHAR
STARTCHAR 00B9
ENCODING 185
SWIDTH 540 0
DWIDTH 9 0
BBX 4 8 2 6
BITMAP
30
30
70
D0
30
30
30
30
ENDCHAR
STARTCHAR 00BA
ENCODING 186
SWIDTH 540 0
DWIDTH 9 0
BBX 5 9 2 5
BITMAP
70
70
D8
D8
D8
D8
70
00
F8
ENDCHAR
STARTCHAR 00BB
ENCODING 187
SWIDTH 540 0
DWIDTH 9 0
BBX 9 10 0 0
BITMAP
D800
6C00
3600
1B80
0D80
0D80
1B80
3600
6C00
D800
ENDCHAR
STARTCHAR 00BC
ENCODING 188
SWIDTH 540 0
DWIDTH 9 0
BBX 9 14 0 0
BITMAP
6000
6000
E600
6600
6C00
6C00
6800
1B80
3380
3780
6D80
6F80
C380
C380
ENDCHAR
STARTCHAR 00BD
ENCODING 189
SWIDTH 540 0
DWIDTH 9 0
BBX 9 14 0 0
BITMAP
6000
6000
E600
6600
6C00
6C00
6800
1E00
3B80
3380
6600
6C00
CC00
DF80
ENDCHAR
STARTCHAR 00BE
ENCODING 190
SWIDTH 540 0
DWIDTH 9 0
BBX 9 14 0 0
BITMAP
7000
7000
DB80
1B80
7600
1A00
DC00
7580
1B80
1B80
3580
3F80
6380
6380
ENDCHAR
STARTCHAR 00BF
ENCODING 191
SWIDTH 540 0
DWIDTH 9 0
BBX 8 16 1 -1
BITMAP
18
18
18
00
00
18
18
18
30
60
60
C3
C3
C3
67
3C
ENDCHAR
STARTCHAR 00C0
ENCODING 192
SWIDTH 540 0
DWIDTH 9 0
BBX 9 15 0 0
BITMAP
3800
1800
1800
0C00
1800
1800
3400
3400
6600
6600
7E00
C380
C380
C380
C380
ENDCHAR
STARTCHAR 00C1
ENCODING 193
SWIDTH 540 0
DWIDTH 9 0
BBX 9 15 0 0
BITMAP
1C00
1800
1800
3000
1800
1800
3400
3400
6600
6600
7E00
C380
C380
C380
C380
ENDCHAR
STARTCHAR 00C2
ENCODING 194
SWIDTH 540 0
DWIDTH 9 0
BBX 9 15 0 0
BITMAP
1800
3C00
3C00
6600
1800
1800
3400
3400
6600
6600
7E00
C380
C380
C380
C380
ENDCHAR
STARTCHAR 00C3
ENCODING 195
SWIDTH 540 0
DWIDTH 9 0
BBX 9 15 0 0
BITMAP
3A00
6C00
6C00
0000
1800
1800
3400
3400
6600
6600
7E00
C380
C380
C380
C380
ENDCHAR
STARTCHAR 00C4
ENCODING 196
SWIDTH 540 0
DWIDTH 9 0
BBX 9 15 0 0
BITMAP
6600
6600
6600
0000
1800
1800
3400
3400
6600
6600
7E00
C380
C380
C380
C380
ENDCHAR
STARTCHAR 00C5
ENCODING 197
SWIDTH 540 0
DWIDTH 9 0
BBX 9 15 0 0
BITMAP
1800
3400
3400
1800
1800
1800
3400
3400
6600
6600
7E00
C380
C380
C380
C380
ENDCHAR
STARTCHAR 00C6
ENCODING 198
SWIDTH 540 0
DWIDTH 9 0
BBX 9 12 0 0
BITMAP
1F80
3400
3400
3400
3780
6C00
6C00
7C00
CC00
CC00
CC00
CF80
ENDCHAR
STARTCHAR 00C7
ENCODING 199
SWIDTH 540 0
DWIDTH 9 0
BBX 9 16 0 -2
BITMAP
3C00
3C00
6600
6380
C000
C000
C000
C000
C000
C000
6380
6600
3C00
0C00
0C00
1800
ENDCHAR
STARTCHAR 00C8
ENCODING 200
SWIDTH 540 0
DWIDTH 9 0
BBX 9 15 0 0
BITMAP
3800
1800
1800
0C00
FF80
C000
C000
C000
FE00
C000
C000
C000
C000
C000
FF80
ENDCHAR
STARTCHAR 00C9
ENCODING 201
SWIDTH 540 0
DWIDTH 9 0
BBX 9 15 0 0
BITMAP
1C00
1800
1800
3000
FF80
C000
C000
C000
FE00
C000
C000
C000
C000
C000
FF80
ENDCHAR
STARTCHAR 00CA
ENCODING 202
SWIDTH 540 0
DWIDTH 9 0
BBX 9 15 0 0
BITMAP
1800
3C00
3C00
6600
FF80
C000
C000
C000
FE00
C000
C000
C000
C000
C000
FF80
ENDCHAR
STARTCHAR 00CB
ENCODING 203
SWIDTH 540 0
DWIDTH 9 0
BBX 9 15 0 0
BITMAP
6600
6600
6600
0000
FF80
C000
C000
C000
FE00
C000
C000
C000
C000
C000
FF80
ENDCHAR
STARTCHAR 00CC
ENCODING 204
SWIDTH 540 0
DWIDTH 9 0
BBX 4 15 2 0
BITMAP
E0
60
60
30
F0
60
60
60
60
60
60
60
60
60
F0
ENDCHAR
STARTCHAR 00CD
ENCODING 205
SWIDTH 540 0
DWIDTH 9 0
BBX 4 15 2 0
BITMAP
70
60
60
C0
F0
60
60
60
60
60
60
60
60
60
F0
ENDCHAR
STARTCHAR 00CE
ENCODING 206
SWIDTH 540 0
DWIDTH 9 0
BBX 6 15 1 0
BITMAP
30
78
78
CC
78
30
30
30
30
30
30
30
30
30
78
ENDCHAR
STARTCHAR 00CF
ENCODING 207
SWIDTH 540 0
DWIDTH 9 0
BBX 6 15 1 0
BITMAP
CC
CC
CC
00
78
30
30
30
30
30
30
30
30
30
78
ENDCHAR
STARTCHAR 00D0
ENCODING 208
SWIDTH 540 0
DWIDTH 9 0
BBX 9 14 0 0
BITMAP
7800
7800
6C00
6600
6600
6380
6380
FB80
6380
6380
6600
6600
6C00
7800
ENDCHAR
STARTCHAR 00D1
ENCODING 209
SWIDTH 540 0
DWIDTH 9 0
BBX 9 15 0 0
BITMAP
3A00
6C00
6C00
C380
C380
E380
E380
D380
D380
DB80
CD80
CD80
C780
C780
C380
ENDCHAR
STARTCHAR 00D2
ENCODING 210
SWIDTH 540 0
DWIDTH 9 0
BBX 9 15 0 0
BITMAP
3800
1800
1800
0C00
3C00
6600
C380
C380
C380
C380
C380
C380
C380
6600
3C00
ENDCHAR
STARTCHAR 00D3
ENCODING 211
SWIDTH 540 0
DWIDTH 9 0
BBX 9 15 0 0
BITMAP
1C00
1800
1800
3000
3C00
6600
C380
C380
C380
C380
C380
C380
C380
6600
3C00
ENDCHAR
STARTCHAR 00D4
ENCODING 212
SWIDTH 540 0
DWIDTH 9 0
BBX 9 15 0 0
BITMAP
1800
3C00
3C00
6600
3C00
6600
C380
C380
C380
C380
C380
C380
C380
6600
3C00
ENDCHAR
STARTCHAR 00D5
ENCODING 213
SWIDTH 540 0
DWIDTH 9 0
BBX 9 15 0 0
BITMAP
3A00
6C00
6C00
0000
3C00
6600
C380
C380
C380
C380
C380
C380
C380
6600
3C00
ENDCHAR
STARTCHAR 00D6
ENCODING 214
SWIDTH 540 0
DWIDTH 9 0
BBX 9 15 0 0
BITMAP
6600
6600
6600
0000
3C00
6600
C380
C380
C380
C380
C380
C380
C380
6600
3C00
ENDCHAR
STARTCHAR 00D7
ENCODING 215
SWIDTH 1020 0
DWIDTH 17 0
BBX 12 10 2 1
BITMAP
C030
6060
30C0
1B80
0F00
0F00
1B80
30C0
6060
C030
ENDCHAR
STARTCHAR 00D8
ENCODING 216
SWIDTH 540 0
DWIDTH 9 0
BBX 9 17 0 -2
BITMAP
0380
0380
0380
3E00
6600
C780
CD80
CD80
DB80
DB80
D380
D380
E380
6600
7C00
C000
C000
ENDCHAR
STARTCHAR 00D9
ENCODING 217
SWIDTH 540 0
DWIDTH 9 0
BBX 9 15 0 0
BITMAP
3800
1800
1800
0C00
C380
C380
C380
C380
C380
C380
C380
C380
C380
6600
3C00
ENDCHAR
STARTCHAR 00DA
ENCODING 218
SWIDTH 540 0
DWIDTH 9 0
BBX 9 15 0 0
BITMAP
1C00
1800
1800
3000
C380
C380
C380
C380
C380
C380
C380
C380
C380
6600
3C00
ENDCHAR
STARTCHAR 00DB
ENCODING 219
SWIDTH 540 0
DWIDTH 9 0
BBX 9 15 0 0
BITMAP
1800
3C00
3C00
6600
0000
C380
C380
C380
C380
C380
C380
C380
C380
6600
3C00
ENDCHAR
STARTCHAR 00DC
ENCODING 220
SWIDTH 540 0
DWIDTH 9 0
BBX 9 15 0 0
BITMAP
6600
6600
6600
0000
C380
C380
C380
C380
C380
C380
C380
C380
C380
6600
3C00
ENDCHAR
STARTCHAR 00DD
ENCODING 221
SWIDTH 540 0
DWIDTH 9 0
BBX 9 15 0 0
BITMAP
1C00
1800
1800
D380
C380
6600
6600
3400
3400
1800
1800
1800
1800
1800
1800
ENDCHAR
STARTCHAR 00DE
ENCODING 222
SWIDTH 540 0
DWIDTH 9 0
BBX 9 15 0 0
BITMAP
C000
C000
C000
FC00
C600
C380
C380
C600
FC00
C000
C000
C000
C000
C000
C000
ENDCHAR
STARTCHAR 00DF
ENCODING 223
SWIDTH 540 0
DWIDTH 9 0
BBX 9 14 0 0
BITMAP
7C00
7C00
C600
C380
C380
C600
DC00
C600
C380
C380
C380
C380
C600
DC00
ENDCHAR
STARTCHAR 00E0
ENCODING 224
SWIDTH 540 0
DWIDTH 9 0
BBX 9 14 0 0
BITMAP
3800
3800
1800
0C00
0000
3E00
6380
0380
3F80
6380
C380
C380
C780
7D80
ENDCHAR
STARTCHAR 00E1
ENCODING 225
SWIDTH 540 0
DWIDTH 9 0
BBX 9 14 0 0
BITMAP
1C00
1C00
1800
3000
0000
3E00
6380
0380
3F80
6380
C380
C380
C780
7D80
ENDCHAR
STARTCHAR 00E2
ENCODING 226
SWIDTH 540 0
DWIDTH 9 0
BBX 9 14 0 0
BITMAP
1800
1800
3C00
6600
0000
3E00
6380
0380
3F80
6380
C380
C380
C780
7D80
ENDCHAR
STARTCHAR 00E3
ENCODING 227
SWIDTH 540 0
DWIDTH 9 0
BBX 9 14 0 0
BITMAP
3A00
3A00
6C00
0000
0000
3E00
6380
0380
3F80
6380
C380
C380
C780
7D80
ENDCHAR
STARTCHAR 00E4
ENCODING 228
SWIDTH 540 0
DWIDTH 9 0
BBX 9 12 0 0
BITMAP
3600
3600
0000
3E00
6380
0380
3F80
6380
C380
C380
C780
7D80
ENDCHAR
STARTCHAR 00E5
ENCODING 229
SWIDTH 540 0
DWIDTH 9 0
BBX 9 14 0 0
BITMAP
1800
1800
3400
1800
0000
3E00
6380
0380
3F80
6380
C380
C380
C780
7D80
ENDCHAR
STARTCHAR 00E6
ENCODING 230
SWIDTH 540 0
DWIDTH 9 0
BBX 9 9 0 0
BITMAP
7600
DB80
1B80
3F80
6800
D800
DB80
DB80
7600
ENDCHAR
STARTCHAR 00E7
ENCODING 231
SWIDTH 540 0
DWIDTH 9 0
BBX 9 12 0 -2
BITMAP
3C00
6600
C380
C000
C000
C000
C380
6600
3C00
1800
1800
3000
ENDCHAR
STARTCHAR 00E8
ENCODING 232
SWIDTH 540 0
DWIDTH 9 0
BBX 9 14 0 0
BITMAP
3800
3800
1800
0C00
0000
3C00
6600
C380
C380
FF80
C000
C380
6600
3C00
ENDCHAR
STARTCHAR 00E9
ENCODING 233
SWIDTH 540 0
DWIDTH 9 0
BBX 9 14 0 0
BITMAP
1C00
1C00
1800
3000
0000
3C00
6600
C380
C380
FF80
C000
C380
6600
3C00
ENDCHAR
STARTCHAR 00EA
ENCODING 234
SWIDTH 540 0
DWIDTH 9 0
BBX 9 14 0 0
BITMAP
1800
1800
3C00
6600
0000
3C00
6600
C380
C380
FF80
C000
C380
6600
3C00
ENDCHAR
STARTCHAR 00EB
ENCODING 235
SWIDTH 540 0
DWIDTH 9 0
BBX 9 14 0 0
BITMAP
6600
6600
6600
0000
0000
3C00
6600
C380
C380
FF80
C000
C380
6600
3C00
ENDCHAR
STARTCHAR 00EC
ENCODING 236
SWIDTH 540 0
DWIDTH 9 0
BBX 4 14 2 0
BITMAP
E0
E0
60
30
00
E0
60
60
60
60
60
60
60
60
ENDCHAR
STARTCHAR 00ED
ENCODING 237
SWIDTH 540 0
DWIDTH 9 0
BBX 4 14 2 0
BITMAP
70
70
60
C0
00
E0
60
60
60
60
60
60
60
60
ENDCHAR
STARTCHAR 00EE
ENCODING 238
SWIDTH 540 0
DWIDTH 9 0
BBX 6 14 1 0
BITMAP
30
30
78
CC
00
70
30
30
30
30
30
30
30
30
ENDCHAR
STARTCHAR 00EF
ENCODING 239
SWIDTH 540 0
DWIDTH 9 0
BBX 6 14 1 0
BITMAP
CC
CC
CC
00
00
70
30
30
30
30
30
30
30
30
ENDCHAR
STARTCHAR 00F0
ENCODING 240
SWIDTH 540 0
DWIDTH 9 0
BBX 9 14 0 0
BITMAP
7600
7600
1C00
3800
6C00
3C00
6600
C380
C380
C380
C380
C380
6600
3C00
ENDCHAR
STARTCHAR 00F1
ENCODING 241
SWIDTH 540 0
DWIDTH 9 0
BBX 8 14 1 0
BITMAP
74
74
D8
00
00
DC
E7
C7
C7
C7
C7
C7
C7
C7
ENDCHAR
STARTCHAR 00F2
ENCODING 242
SWIDTH 540 0
DWIDTH 9 0
BBX 9 14 0 0
BITMAP
3800
3800
1800
0C00
0000
3C00
6600
C380
C380
C380
C380
C380
6600
3C00
ENDCHAR
STARTCHAR 00F3
ENCODING 243
SWIDTH 540 0
DWIDTH 9 0
BBX 9 14 0 0
BITMAP
1C00
1C00
1800
3000
0000
3C00
6600
C380
C380
C380
C380
C380
6600
3C00
ENDCHAR
STARTCHAR 00F4
ENCODING 244
SWIDTH 540 0
DWIDTH 9 0
BBX 9 14 0 0
BITMAP
1800
1800
3C00
6600
0000
3C00
6600
C380
C380
C380
C380
C380
6600
3C00
ENDCHAR
STARTCHAR 00F5
ENCODING 245
SWIDTH 540 0
DWIDTH 9 0
BBX 9 14 0 0
BITMAP
3A00
3A00
6C00
0000
0000
3C00
6600
C380
C380
C380
C380
C380
6600
3C00
ENDCHAR
STARTCHAR 00F6
ENCODING 246
SWIDTH 540 0
DWIDTH 9 0
BBX 9 14 0 0
BITMAP
6600
6600
6600
0000
0000
3C00
6600
C380
C380
C380
C380
C380
6600
3C00
ENDCHAR
STARTCHAR 00F7
ENCODING 247
SWIDTH 1020 0
DWIDTH 17 0
BBX 14 9 1 2
BITMAP
0780
0780
0000
0000
FFFC
0000
0000
0780
0780
ENDCHAR
STARTCHAR 00F8
ENCODING 248
SWIDTH 540 0
DWIDTH 9 0
BBX 9 9 0 0
BITMAP
3D80
6600
CD80
CD80
DB80
D380
D380
6600
DC00
ENDCHAR
STARTCHAR 00F9
ENCODING 249
SWIDTH 540 0
DWIDTH 9 0
BBX 8 14 1 0
BITMAP
70
70
30
18
00
C7
C7
C7
C7
C7
C7
C7
CF
7B
ENDCHAR
STARTCHAR 00FA
ENCODING 250
SWIDTH 540 0
DWIDTH 9 0
BBX 8 14 1 0
BITMAP
38
38
30
60
00
C7
C7
C7
C7
C7
C7
C7
CF
7B
ENDCHAR
STARTCHAR 00FB
ENCODING 251
SWIDTH 540 0
DWIDTH 9 0
BBX 8 14 1 0
BITMAP
30
30
78
CC
00
C7
C7
C7
C7
C7
C7
C7
CF
7B
ENDCHAR
STARTCHAR 00FC
ENCODING 252
SWIDTH 540 0
DWIDTH 9 0
BBX 8 14 1 0
BITMAP
6C
6C
6C
00
00
C7
C7
C7
C7
C7
C7
C7
CF
7B
ENDCHAR
STARTCHAR 00FD
ENCODING 253
SWIDTH 540 0
DWIDTH 9 0
BBX 8 16 1 -2
BITMAP
1C
1C
18
30
00
C7
C7
67
6C
34
18
18
30
30
60
C0
ENDCHAR
STARTCHAR 00FE
ENCODING 254
SWIDTH 540 0
DWIDTH 9 0
BBX 8 14 1 -2
BITMAP
C0
C0
C0
F8
CC
C7
C7
C7
CC
F8
C0
C0
C0
C0
ENDCHAR
STARTCHAR 00FF
ENCODING 255
SWIDTH 540 0
DWIDTH 9 0
BBX 8 16 1 -2
BITMAP
6C
6C
6C
00
00
C7
C7
67
6C
34
18
18
30
30
60
C0
ENDCHAR
STARTCHAR 0391
ENCODING 913
SWIDTH 1020 0
DWIDTH 17 0
BBX 15 14 1 0
BITMAP
0380
0380
0380
0740
0740
0C60
0C60
1830
1FF0
1830
3018
3018
600C
F01E
ENDCHAR
STARTCHAR 0392
ENCODING 914
SWIDTH 1020 0
DWIDTH 17 0
BBX 14 14 1 0
BITMAP
FFE0
FFE0
3030
3018
3018
3030
3FE0
3030
3018
300C
300C
3018
3070
FFC0
ENDCHAR
STARTCHAR 0393
ENCODING 915
SWIDTH 1020 0
DWIDTH 17 0
BBX 13 14 2 0
BITMAP
FFF0
FFF0
3030
3018
3000
3000
3000
3000
3000
3000
3000
3000
3000
7800
ENDCHAR
STARTCHAR 0394
ENCODING 916
SWIDTH 1020 0
DWIDTH 17 0
BBX 15 14 0 0
BITMAP
0380
0380
0380
06C0
06C0
0CE0
0CE0
1830
1830
1818
3018
3018
600C
FFFE
ENDCHAR
STARTCHAR 0395
ENCODING 917
SWIDTH 1020 0
DWIDTH 17 0
BBX 14 14 1 0
BITMAP
FFF8
FFF8
3018
300C
3000
3000
31C0
3FC0
31C0
3000
3000
300C
3018
FFF8
ENDCHAR
STARTCHAR 0396
ENCODING 918
SWIDTH 1020 0
DWIDTH 17 0
BBX 12 14 2 0
BITMAP
7FF0
7FF0
6060
C0C0
0380
0380
0700
0E00
0E00
1800
3000
3030
6030
FFF0
ENDCHAR
STARTCHAR 0397
ENCODING 919
SWIDTH 1020 0
DWIDTH 17 0
BBX 14 14 1 0
BITMAP
F03C
F03C
6018
6018
6018
6018
6018
7FF8
6018
6018
6018
6018
6018
F03C
ENDCHAR
STARTCHAR 0398
ENCODING 920
SWIDTH 1020 0
DWIDTH 17 0
BBX 14 14 1 0
BITMAP
0FC0
0FC0
3870
7038
6018
C00C
D86C
DFEC
D86C
C00C
6018
7038
3870
0FC0
ENDCHAR
STARTCHAR 0399
ENCODING 921
SWIDTH 1020 0
DWIDTH 17 0
BBX 5 14 5 0
BITMAP
F8
F8
70
70
70
70
70
70
70
70
70
70
70
F8
ENDCHAR
STARTCHAR 039A
ENCODING 922
SWIDTH 1020 0
DWIDTH 17 0
BBX 14 14 2 0
BITMAP
F078
F078
6060
60C0
6380
6700
6E00
6E00
7700
6380
60C0
6060
6030
F03C
ENDCHAR
STARTCHAR 039B
ENCODING 923
SWIDTH 1020 0
DWIDTH 17 0
BBX 15 14 1 0
BITMAP
0380
0380
0380
0740
0740
0C60
0C60
1830
1830
1830
3018
3018
600C
F01E
ENDCHAR
STARTCHAR 039C
ENCODING 924
SWIDTH 1020 0
DWIDTH 17 0
BBX 15 14 0 0
BITMAP
E00E
E00E
600C
701C
701C
6834
6834
6CEC
6CEC
6CEC
66CC
66CC
638C
F39E
ENDCHAR
STARTCHAR 039D
ENCODING 925
SWIDTH 1020 0
DWIDTH 17 0
BBX 14 14 1 0
BITMAP
F03C
F03C
7018
6818
6818
6C18
6718
6718
6398
61D8
61D8
6068
6038
F018
ENDCHAR
STARTCHAR 039E
ENCODING 926
SWIDTH 1020 0
DWIDTH 17 0
BBX 14 14 1 0
BITMAP
FFFC
FFFC
C00C
0000
0000
0000
6018
7FF8
6018
0000
0000
0000
C00C
FFFC
ENDCHAR
STARTCHAR 039F
ENCODING 927
SWIDTH 1020 0
DWIDTH 17 0
BBX 14 14 1 0
BITMAP
0FC0
0FC0
3870
7038
6018
C00C
C00C
C00C
C00C
C00C
6018
7038
3870
0FC0
ENDCHAR
STARTCHAR 03A0
ENCODING 928
SWIDTH 1020 0
DWIDTH 17 0
BBX 12 14 2 0
BITMAP
FFF0
FFF0
6060
6060
6060
6060
6060
6060
6060
6060
6060
6060
6060
F0F0
ENDCHAR
STARTCHAR 03A1
ENCODING 929
SWIDTH 1020 0
DWIDTH 17 0
BBX 13 14 2 0
BITMAP
FFC0
FFC0
3070
3018
3018
3018
3070
3FC0
3000
3000
3000
3000
3000
7800
ENDCHAR
STARTCHAR 03A3
ENCODING 931
SWIDTH 1020 0
DWIDTH 17 0
BBX 12 14 2 0
BITMAP
FFE0
FFE0
6060
3030
1800
0E00
0700
0780
0700
0E00
1800
3030
6030
FFF0
ENDCHAR
STARTCHAR 03A4
ENCODING 932
SWIDTH 1020 0
DWIDTH 17 0
BBX 15 14 0 0
BITMAP
7FFC
7FFC
638C
C386
0380
0380
0380
0380
0380
0380
0380
0380
0380
07C0
ENDCHAR
STARTCHAR 03A5
ENCODING 933
SWIDTH 1020 0
DWIDTH 17 0
BBX 15 14 1 0
BITMAP
3C78
3C78
674C
C386
0380
0380
0380
0380
0380
0380
0380
0380
0380
07C0
ENDCHAR
STARTCHAR 03A6
ENCODING 934
SWIDTH 1020 0
DWIDTH 17 0
BBX 13 14 2 0
BITMAP
0F80
0F80
0700
1FC0
7770
6730
C718
C718
C718
6730
7770
1FC0
0700
0F80
ENDCHAR
STARTCHAR 03A7
ENCODING 935
SWIDTH 1020 0
DWIDTH 17 0
BBX 13 14 1 0
BITMAP
F078
F078
6030
3060
19C0
19C0
0D80
0700
0D80
19C0
19C0
3060
6030
F078
ENDCHAR
STARTCHAR 03A8
ENCODING 936
SWIDTH 1020 0
DWIDTH 17 0
BBX 16 14 0 0
BITMAP
07C0
07C0
E38E
B39B
3398
3398
3398
3398
3BB8
1BB0
0FE0
0380
0380
07C0
ENDCHAR
STARTCHAR 03A9
ENCODING 937
SWIDTH 1020 0
DWIDTH 17 0
BBX 13 14 2 0
BITMAP
0F80
0F80
38E0
7070
6030
C018
C018
C018
6030
7070
38E0
CE98
CE98
FEF8
ENDCHAR
STARTCHAR 03B1
ENCODING 945
SWIDTH 1020 0
DWIDTH 17 0
BBX 12 9 2 0
BITMAP
0030
1F30
33A0
63A0
63C0
C380
C780
CEB0
78E0
ENDCHAR
STARTCHAR 03B2
ENCODING 946
SWIDTH 1020 0
DWIDTH 17 0
BBX 12 16 2 -2
BITMAP
03E0
03E0
0730
0E30
0E30
1830
1860
37C0
30C0
3060
6060
6060
68C0
6F80
C000
C000
ENDCHAR
STARTCHAR 03B3
ENCODING 947
SWIDTH 1020 0
DWIDTH 17 0
BBX 13 10 1 -2
BITMAP
3C38
6760
C740
0780
0780
0700
0C00
0C00
1800
1800
ENDCHAR
STARTCHAR 03B4
ENCODING 948
SWIDTH 1020 0
DWIDTH 17 0
BBX 12 14 2 0
BITMAP
0F00
0F00
1BC0
1860
0E30
0700
1E80
3380
60C0
C0C0
C380
C380
6700
3E00
ENDCHAR
STARTCHAR 03B5
ENCODING 949
SWIDTH 1020 0
DWIDTH 17 0
BBX 9 8 4 0
BITMAP
3F00
6180
6000
3E00
6000
C000
C300
7E00
ENDCHAR
STARTCHAR 03B6
ENCODING 950
SWIDTH 1020 0
DWIDTH 17 0
BBX 10 17 3 -2
BITMAP
3000
60C0
60C0
6180
3F00
0E00
1C00
3000
6000
C000
C000
6000
3C00
0E00
0700
0700
1E00
ENDCHAR
STARTCHAR 03B7
ENCODING 951
SWIDTH 1020 0
DWIDTH 17 0
BBX 11 10 2 -2
BITMAP
77C0
DE60
1860
3060
3060
30C0
60C0
60C0
0380
0380
ENDCHAR
STARTCHAR 03B8
ENCODING 952
SWIDTH 1020 0
DWIDTH 17 0
BBX 11 14 3 0
BITMAP
0780
0780
0EC0
1C60
3060
3060
7FE0
60C0
C0C0
C180
C180
C700
6E00
3C00
ENDCHAR
STARTCHAR 03B9
ENCODING 953
SWIDTH 1020 0
DWIDTH 17 0
BBX 9 8 3 0
BITMAP
3000
3000
6000
6000
C000
C180
CF00
7C00
ENDCHAR
STARTCHAR 03BA
ENCODING 954
SWIDTH 1020 0
DWIDTH 17 0
BBX 12 8 2 0
BITMAP
30E0
33B0
3700
3800
6E00
6E00
CE60
C7C0
ENDCHAR
STARTCHAR 03BB
ENCODING 955
SWIDTH 1020 0
DWIDTH 17 0
BBX 12 14 2 0
BITMAP
0700
0700
0380
0380
0380
0380
0380
0780
0E80
0E80
18C0
30C0
6060
C030
ENDCHAR
STARTCHAR 03BC
ENCODING 956
SWIDTH 1020 0
DWIDTH 17 0
BBX 13 10 1 -2
BITMAP
1860
1860
1860
19C0
31C0
31C0
3BD8
6F70
6000
C000
ENDCHAR
STARTCHAR 03BD
ENCODING 957
SWIDTH 1020 0
DWIDTH 17 0
BBX 11 8 2 0
BITMAP
E060
3060
30C0
30C0
3380
6700
6E00
F000
ENDCHAR
STARTCHAR 03BE
ENCODING 958
SWIDTH 1020 0
DWIDTH 17 0
BBX 11 17 2 -2
BITMAP
0060
07C0
07C0
0E00
0700
1FC0
3000
3000
1800
7F80
C000
C000
7800
0F00
0380
0380
7F00
ENDCHAR
STARTCHAR 03BF
ENCODING 959
SWIDTH 1020 0
DWIDTH 17 0
BBX 10 8 3 0
BITMAP
1F00
3180
60C0
C0C0
C0C0
C180
6700
3E00
ENDCHAR
STARTCHAR 03C0
ENCODING 960
SWIDTH 1020 0
DWIDTH 17 0
BBX 12 9 2 0
BITMAP
0030
7FE0
DB80
1B80
1B80
3700
3700
6760
C3C0
ENDCHAR
STARTCHAR 03C1
ENCODING 961
SWIDTH 1020 0
DWIDTH 17 0
BBX 11 10 2 -2
BITMAP
0F80
18C0
3060
3060
3060
6060
68C0
6F80
C000
C000
ENDCHAR
STARTCHAR 03C3
ENCODING 963
SWIDTH 1020 0
DWIDTH 17 0
BBX 10 9 4 0
BITMAP
00C0
1F80
3B00
6180
C180
C180
C300
6E00
3C00
ENDCHAR
STARTCHAR 03C4
ENCODING 964
SWIDTH 1020 0
DWIDTH 17 0
BBX 12 9 2 0
BITMAP
0030
7FE0
CE00
0E00
1800
1800
30C0
3380
1F00
ENDCHAR
STARTCHAR 03C5
ENCODING 965
SWIDTH 1020 0
DWIDTH 17 0
BBX 9 8 5 0
BITMAP
7300
7180
7180
7300
C300
C600
DC00
7800
ENDCHAR
STARTCHAR 03C6
ENCODING 966
SWIDTH 1020 0
DWIDTH 17 0
BBX 10 16 3 -2
BITMAP
0180
0180
0180
0180
0700
0700
1F80
76C0
CEC0
CEC0
DCC0
DD80
7E00
3000
3000
3000
ENDCHAR
STARTCHAR 03C7
ENCODING 967
SWIDTH 1020 0
DWIDTH 17 0
BBX 12 10 1 -2
BITMAP
1C30
3760
0740
0780
0700
0F00
1B00
3700
63B0
C1E0
ENDCHAR
STARTCHAR 03C8
ENCODING 968
SWIDTH 1020 0
DWIDTH 17 0
BBX 12 16 2 -2
BITMAP
00C0
00C0
00C0
0380
0380
0380
6730
D730
3760
3660
6EC0
6E80
3F00
1800
1800
1800
ENDCHAR
STARTCHAR 03C9
ENCODING 969
SWIDTH 1020 0
DWIDTH 17 0
BBX 13 8 1 0
BITMAP
1830
33B0
6398
6398
C718
C718
CDB0
79E0
ENDCHAR
STARTCHAR 0401
ENCODING 1025
SWIDTH 1020 0
DWIDTH 17 0
BBX 13 15 1 0
BITMAP
1830
1830
1830
0000
FFF0
3030
3018
3000
31C0
3FC0
31C0
3000
3018
3030
FFF0
ENDCHAR
STARTCHAR 0410
ENCODING 1040
SWIDTH 1020 0
DWIDTH 17 0
BBX 15 14 1 0
BITMAP
0380
0380
0380
0740
0740
0C60
0C60
1830
1FF0
1830
3018
3018
600C
F01E
ENDCHAR
STARTCHAR 0411
ENCODING 1041
SWIDTH 1020 0
DWIDTH 17 0
BBX 14 14 1 0
BITMAP
FFF0
FFF0
3030
3018
3000
3000
3FE0
3030
3018
300C
300C
3018
3070
FFC0
ENDCHAR
STARTCHAR 0412
ENCODING 1042
SWIDTH 1020 0
DWIDTH 17 0
BBX 14 14 1 0
BITMAP
FFE0
FFE0
3030
3018
3018
3030
3FE0
3030
3018
300C
300C
3018
3070
FFC0
ENDCHAR
STARTCHAR 0413
ENCODING 1043
SWIDTH 1020 0
DWIDTH 17 0
BBX 13 14 2 0
BITMAP
FFF0
FFF0
3030
3018
3000
3000
3000
3000
3000
3000
3000
3000
3000
7800
ENDCHAR
STARTCHAR 0414
ENCODING 1044
SWIDTH 1020 0
DWIDTH 17 0
BBX 14 16 1 -2
BITMAP
3FFC
3FFC
0C30
0C30
0C30
0C30
0C30
0C30
0C30
0C30
1830
1830
3030
FFFC
C00C
C00C
ENDCHAR
STARTCHAR 0415
ENCODING 1045
SWIDTH 1020 0
DWIDTH 17 0
BBX 14 14 1 0
BITMAP
FFF8
FFF8
3018
300C
3000
3000
31C0
3FC0
31C0
3000
3000
300C
3018
FFF8
ENDCHAR
STARTCHAR 0416
ENCODING 1046
SWIDTH 1020 0
DWIDTH 17 0
BBX 17 14 0 0
BITMAP
73E700
73E700
D9CD80
19CC00
19CC00
19CC00
0DD800
0FF800
19CC00
31C600
31C600
61C300
61C300
F3E780
ENDCHAR
STARTCHAR 0417
ENCODING 1047
SWIDTH 1020 0
DWIDTH 17 0
BBX 12 14 2 0
BITMAP
1F80
1F80
70E0
C070
0030
0030
0060
1FC0
0060
0030
0030
C060
70E0
1F80
ENDCHAR
STARTCHAR 0418
ENCODING 1048
SWIDTH 1020 0
DWIDTH 17 0
BBX 14 14 1 0
BITMAP
F03C
F03C
6038
6068
6068
61D8
6398
6398
6718
6C18
6C18
6818
7018
603C
ENDCHAR
STARTCHAR 0419
ENCODING 1049
SWIDTH 1020 0
DWIDTH 17 0
BBX 14 15 1 0
BITMAP
1DE0
1860
1860
F7DC
6038
6038
6068
61D8
6398
6398
6718
6C18
6818
7018
603C
ENDCHAR
STARTCHAR 041A
ENCODING 1050
SWIDTH 1020 0
DWIDTH 17 0
BBX 13 14 2 0
BITMAP
F0F0
F0F0
6398
6380
6700
6700
6E00
7E00
6700
6380
60C0
6060
6030
F078
ENDCHAR
STARTCHAR 041B
ENCODING 1051
SWIDTH 1020 0
DWIDTH 17 0
BBX 14 14 0 0
BITMAP
1FFC
1FFC
0618
0618
0618
0618
0618
0618
0618
0C18
0C18
1818
D018
E03C
ENDCHAR
STARTCHAR 041C
ENCODING 1052
SWIDTH 1020 0
DWIDTH 17 0
BBX 16 14 0 0
BITMAP
700E
700E
300C
381C
381C
3434
3434
3634
36EC
66E6
63A6
63C6
61C6
F9CF
ENDCHAR
STARTCHAR 041D
ENCODING 1053
SWIDTH 1020 0
DWIDTH 17 0
BBX 14 14 1 0
BITMAP
F03C
F03C
6018
6018
6018
6018
6018
7FF8
6018
6018
6018
6018
6018
F03C
ENDCHAR
STARTCHAR 041E
ENCODING 1054
SWIDTH 1020 0
DWIDTH 17 0
BBX 14 14 1 0
BITMAP
0FC0
0FC0
3870
7038
6018
C00C
C00C
C00C
C00C
C00C
6018
7038
3870
0FC0
ENDCHAR
STARTCHAR 041F
ENCODING 1055
SWIDTH 1020 0
DWIDTH 17 0
BBX 13 14 2 0
BITMAP
FFF8
FFF8
6030
6030
6030
6030
6030
6030
6030
6030
6030
6030
6030
F078
ENDCHAR
STARTCHAR 0420
ENCODING 1056
SWIDTH 1020 0
DWIDTH 17 0
BBX 13 14 2 0
BITMAP
FFC0
FFC0
3070
3018
3018
3018
3070
3FC0
3000
3000
3000
3000
3000
7800
ENDCHAR
STARTCHAR 0421
ENCODING 1057
SWIDTH 1020 0
DWIDTH 17 0
BBX 13 14 1 0
BITMAP
0FC0
0FC0
3868
7038
6018
C000
C000
C000
C000
C000
6018
7038
3870
0FC0
ENDCHAR
STARTCHAR 0422
ENCODING 1058
SWIDTH 1020 0
DWIDTH 17 0
BBX 15 14 0 0
BITMAP
7FFC
7FFC
638C
C386
0380
0380
0380
0380
0380
0380
0380
0380
0380
07C0
ENDCHAR
STARTCHAR 0423
ENCODING 1059
SWIDTH 1020 0
DWIDTH 17 0
BBX 13 14 2 0
BITMAP
F078
F078
6030
3060
3060
18C0
18C0
0E80
0E80
0700
0700
0E00
D800
7000
ENDCHAR
STARTCHAR 0424
ENCODING 1060
SWIDTH 1020 0
DWIDTH 17 0
BBX 13 14 2 0
BITMAP
0F80
0F80
0700
1FC0
7770
6730
C718
C718
C718
6730
7770
1FC0
0700
0F80
ENDCHAR
STARTCHAR 0425
ENCODING 1061
SWIDTH 1020 0
DWIDTH 17 0
BBX 13 14 1 0
BITMAP
F078
F078
6030
3060
19C0
19C0
0D80
0700
0D80
19C0
19C0
3060
6030
F078
ENDCHAR
STARTCHAR 0426
ENCODING 1062
SWIDTH 1020 0
DWIDTH 17 0
BBX 14 16 1 -2
BITMAP
F078
F078
6030
6030
6030
6030
6030
6030
6030
6030
6030
6030
6030
FFFC
000C
000C
ENDCHAR
STARTCHAR 0427
ENCODING 1063
SWIDTH 1020 0
DWIDTH 17 0
BBX 12 14 2 0
BITMAP
F0F0
F0F0
6060
6060
6060
6060
6060
30E0
1FA0
0060
0060
0060
0060
00F0
ENDCHAR
STARTCHAR 0428
ENCODING 1064
SWIDTH 1020 0
DWIDTH 17 0
BBX 15 14 1 0
BITMAP
F7DE
F7DE
638C
638C
638C
638C
638C
638C
638C
638C
638C
638C
638C
FFFE
ENDCHAR
STARTCHAR 0429
ENCODING 1065
SWIDTH 1020 0
DWIDTH 17 0
BBX 16 16 1 -2
BITMAP
F7DE
F7DE
638C
638C
638C
638C
638C
638C
638C
638C
638C
638C
638C
FFFF
0003
0003
ENDCHAR
STARTCHAR 042A
ENCODING 1066
SWIDTH 1020 0
DWIDTH 17 0
BBX 16 14 0 0
BITMAP
7F80
7F80
6600
C600
0600
0600
07F8
060E
0607
0603
0603
0607
060E
0FF8
ENDCHAR
STARTCHAR 042B
ENCODING 1067
SWIDTH 1020 0
DWIDTH 17 0
BBX 14 14 1 0
BITMAP
F03C
F03C
6018
6018
6018
6018
7C18
6798
63D8
61D8
61D8
63D8
6798
FC3C
ENDCHAR
STARTCHAR 042C
ENCODING 1068
SWIDTH 1020 0
DWIDTH 17 0
BBX 12 14 2 0
BITMAP
F000
F000
6000
6000
6000
6000
7F80
60E0
6070
6030
6030
6070
60E0
FF80
ENDCHAR
STARTCHAR 042D
ENCODING 1069
SWIDTH 1020 0
DWIDTH 17 0
BBX 13 14 2 0
BITMAP
1F80
1F80
70E0
6070
C030
0038
3E68
67D8
0018
0018
C030
6070
70E0
1F80
ENDCHAR
STARTCHAR 042E
ENCODING 1070
SWIDTH 1020 0
DWIDTH 17 0
BBX 15 14 1 0
BITMAP
F1F0
F1F0
6398
670C
670C
6C06
6C06
7C06
6C06
6C06
670C
670C
6398
F1F0
ENDCHAR
STARTCHAR 042F
ENCODING 1071
SWIDTH 1020 0
DWIDTH 17 0
BBX 14 14 0 0
BITMAP
07FC
07FC
1C18
3018
3018
3018
1C18
07F8
0398
0618
0C18
0C18
3818
E03C
ENDCHAR
STARTCHAR 0430
ENCODING 1072
SWIDTH 1020 0
DWIDTH 17 0
BBX 11 9 3 0
BITMAP
3F00
6180
0180
3E80
6780
C180
C780
CEA0
7CE0
ENDCHAR
STARTCHAR 0431
ENCODING 1073
SWIDTH 1020 0
DWIDTH 17 0
BBX 10 14 3 0
BITMAP
00C0
00C0
1F80
3000
6000
6000
DF00
E180
C0C0
C0C0
C0C0
C0C0
6180
3F00
ENDCHAR
STARTCHAR 0432
ENCODING 1074
SWIDTH 1020 0
DWIDTH 17 0
BBX 10 9 3 0
BITMAP
FF80
60C0
60C0
6180
7F80
60C0
60C0
60C0
FF80
ENDCHAR
STARTCHAR 0433
ENCODING 1075
SWIDTH 1020 0
DWIDTH 17 0
BBX 10 9 3 0
BITMAP
FFC0
60C0
60C0
6000
6000
6000
6000
6000
F000
ENDCHAR
STARTCHAR 0434
ENCODING 1076
SWIDTH 1020 0
DWIDTH 17 0
BBX 12 11 2 -2
BITMAP
3FE0
18C0
18C0
18C0
18C0
18C0
30C0
30C0
FFF0
C030
C030
ENDCHAR
STARTCHAR 0435
ENCODING 1077
SWIDTH 1020 0
DWIDTH 17 0
BBX 9 9 3 0
BITMAP
3E00
6700
C180
C180
FF80
C000
C000
6180
3F00
ENDCHAR
STARTCHAR 0436
ENCODING 1078
SWIDTH 1020 0
DWIDTH 17 0
BBX 13 9 2 0
BITMAP
EFB8
6730
3760
1FC0
1B40
3760
3760
6730
CF98
ENDCHAR
STARTCHAR 0437
ENCODING 1079
SWIDTH 1020 0
DWIDTH 17 0
BBX 9 9 4 0
BITMAP
7F00
E180
0180
0300
3F00
0180
0180
E180
7F00
ENDCHAR
STARTCHAR 0438
ENCODING 1080
SWIDTH 1020 0
DWIDTH 17 0
BBX 12 9 3 0
BITMAP
F0F0
6060
60E0
61A0
6760
6E60
7060
6060
F0F0
ENDCHAR
STARTCHAR 0439
ENCODING 1081
SWIDTH 1020 0
DWIDTH 17 0
BBX 12 12 3 0
BITMAP
3DC0
30C0
1F80
F0F0
6060
60E0
61A0
6760
6E60
7060
6060
F0F0
ENDCHAR
STARTCHAR 043A
ENCODING 1082
SWIDTH 1020 0
DWIDTH 17 0
BBX 11 9 3 0
BITMAP
F1C0
6740
6E00
6C00
7C00
6E00
6700
6180
F1E0
ENDCHAR
STARTCHAR 043B
ENCODING 1083
SWIDTH 1020 0
DWIDTH 17 0
BBX 12 9 2 0
BITMAP
1FF0
0E60
0E60
0E60
0E60
0E60
CE60
D860
70F0
ENDCHAR
STARTCHAR 043C
ENCODING 1084
SWIDTH 1020 0
DWIDTH 17 0
BBX 13 9 2 0
BITMAP
F078
7070
68D0
68D0
6EB0
6EB0
6730
6730
F078
ENDCHAR
STARTCHAR 043D
ENCODING 1085
SWIDTH 1020 0
DWIDTH 17 0
BBX 11 9 3 0
BITMAP
F1E0
60C0
60C0
60C0
7FC0
60C0
60C0
60C0
F1E0
ENDCHAR
STARTCHAR 043E
ENCODING 1086
SWIDTH 1020 0
DWIDTH 17 0
BBX 10 9 3 0
BITMAP
3F00
6180
C0C0
C0C0
C0C0
C0C0
C0C0
6180
3F00
ENDCHAR
STARTCHAR 043F
ENCODING 1087
SWIDTH 1020 0
DWIDTH 17 0
BBX 11 9 2 0
BITMAP
FFE0
60C0
60C0
60C0
60C0
60C0
60C0
60C0
F3E0
ENDCHAR
STARTCHAR 0440
ENCODING 1088
SWIDTH 1020 0
DWIDTH 17 0
BBX 10 11 3 -2
BITMAP
EF00
7180
60C0
60C0
60C0
60C0
7180
6F00
6000
6000
F000
ENDCHAR
STARTCHAR 0441
ENCODING 1089
SWIDTH 1020 0
DWIDTH 17 0
BBX 9 9 3 0
BITMAP
3E00
6700
C180
C000
C000
C000
C180
6700
3E00
ENDCHAR
STARTCHAR 0442
ENCODING 1090
SWIDTH 1020 0
DWIDTH 17 0
BBX 11 9 2 0
BITMAP
FFE0
CE60
CE60
0E00
0E00
0E00
0E00
0E00
1F00
ENDCHAR
STARTCHAR 0443
ENCODING 1091
SWIDTH 1020 0
DWIDTH 17 0
BBX 11 11 3 -2
BITMAP
F1E0
60C0
60C0
3180
3180
1D00
1D00
0E00
1C00
DC00
7000
ENDCHAR
STARTCHAR 0444
ENCODING 1092
SWIDTH 1020 0
DWIDTH 17 0
BBX 13 16 2 -2
BITMAP
0F00
0F00
0700
0700
0700
0700
3B60
6FB0
C718
C718
C718
C718
6FB0
3B60
0700
0F80
ENDCHAR
STARTCHAR 0445
ENCODING 1093
SWIDTH 1020 0
DWIDTH 17 0
BBX 11 9 3 0
BITMAP
F1E0
60C0
3180
1D00
0E00
1D00
3180
60C0
F1E0
ENDCHAR
STARTCHAR 0446
ENCODING 1094
SWIDTH 1020 0
DWIDTH 17 0
BBX 12 11 2 -2
BITMAP
F3E0
60C0
60C0
60C0
60C0
60C0
60C0
60C0
FFF0
0030
0030
ENDCHAR
STARTCHAR 0447
ENCODING 1095
SWIDTH 1020 0
DWIDTH 17 0
BBX 11 9 3 0
BITMAP
F1E0
60C0
60C0
60C0
60C0
3FC0
00C0
00C0
01E0
ENDCHAR
STARTCHAR 0448
ENCODING 1096
SWIDTH 1020 0
DWIDTH 17 0
BBX 15 9 1 0
BITMAP
F7DE
638C
638C
638C
638C
638C
638C
638C
FFFE
ENDCHAR
STARTCHAR 0449
ENCODING 1097
SWIDTH 1020 0
DWIDTH 17 0
BBX 16 11 1 -2
BITMAP
F7DE
638C
638C
638C
638C
638C
638C
638C
FFFF
0003
0003
ENDCHAR
STARTCHAR 044A
ENCODING 1098
SWIDTH 1020 0
DWIDTH 17 0
BBX 13 9 2 0
BITMAP
FF00
CE00
CE00
0E00
0FE0
0E38
0E18
0E38
1FE0
ENDCHAR
STARTCHAR 044B
ENCODING 1099
SWIDTH 1020 0
DWIDTH 17 0
BBX 13 9 2 0
BITMAP
F078
6030
6030
6030
7E30
67B0
63B0
67B0
FE78
ENDCHAR
STARTCHAR 044C
ENCODING 1100
SWIDTH 1020 0
DWIDTH 17 0
BBX 10 9 4 0
BITMAP
F800
6000
6000
6000
7F00
61C0
60C0
61C0
FF00
ENDCHAR
STARTCHAR 044D
ENCODING 1101
SWIDTH 1020 0
DWIDTH 17 0
BBX 10 9 3 0
BITMAP
3F00
6180
C0C0
3DC0
6F40
00C0
C0C0
6180
3F00
ENDCHAR
STARTCHAR 044E
ENCODING 1102
SWIDTH 1020 0
DWIDTH 17 0
BBX 13 9 2 0
BITMAP
F3E0
6730
6E18
6E18
7E18
6E18
6E18
6730
F3E0
ENDCHAR
STARTCHAR 044F
ENCODING 1103
SWIDTH 1020 0
DWIDTH 17 0
BBX 11 9 2 0
BITMAP
3FE0
60C0
60C0
60C0
3FC0
18C0
30C0
30C0
E3E0
ENDCHAR
STARTCHAR 0451
ENCODING 1105
SWIDTH 1020 0
DWIDTH 17 0
BBX 9 12 3 0
BITMAP
6700
6700
0000
3E00
6700
C180
C180
FF80
C000
C000
6180
3F00
ENDCHAR
STARTCHAR 2000
ENCODING 8192
SWIDTH 1020 0
DWIDTH 17 0
BBX 0 0 0 0
BITMAP
ENDCHAR
STARTCHAR 2001
ENCODING 8193
SWIDTH 1020 0
DWIDTH 17 0
BBX 0 0 0 0
BITMAP
ENDCHAR
STARTCHAR 2002
ENCODING 8194
SWIDTH 1020 0
DWIDTH 17 0
BBX 0 0 0 0
BITMAP
ENDCHAR
STARTCHAR 2003
ENCODING 8195
SWIDTH 1020 0
DWIDTH 17 0
BBX 0 0 0 0
BITMAP
ENDCHAR
STARTCHAR 2004
ENCODING 8196
SWIDTH 1020 0
DWIDTH 17 0
BBX 0 0 0 0
BITMAP
ENDCHAR
STARTCHAR 2005
ENCODING 8197
SWIDTH 1020 0
DWIDTH 17 0
BBX 0 0 0 0
BITMAP
ENDCHAR
STARTCHAR 2006
ENCODING 8198
SWIDTH 1020 0
DWIDTH 17 0
BBX 0 0 0 0
BITMAP
ENDCHAR
STARTCHAR 2007
ENCODING 8199
SWIDTH 1020 0
DWIDTH 17 0
BBX 0 0 0 0
BITMAP
ENDCHAR
STARTCHAR 2008
ENCODING 8200
SWIDTH 1020 0
DWIDTH 17 0
BBX 0 0 0 0
BITMAP
ENDCHAR
STARTCHAR 2009
ENCODING 8201
SWIDTH 1020 0
DWIDTH 17 0
BBX 0 0 0 0
BITMAP
ENDCHAR
STARTCHAR 200A
ENCODING 8202
SWIDTH 1020 0
DWIDTH 17 0
BBX 0 0 0 0
BITMAP
ENDCHAR
STARTCHAR 200B
ENCODING 8203
SWIDTH 540 0
DWIDTH 9 0
BBX 0 0 0 0
BITMAP
ENDCHAR
STARTCHAR 200C
ENCODING 8204
SWIDTH 540 0
DWIDTH 9 0
BBX 0 0 0 0
BITMAP
ENDCHAR
STARTCHAR 200D
ENCODING 8205
SWIDTH 540 0
DWIDTH 9 0
BBX 0 0 0 0
BITMAP
ENDCHAR
STARTCHAR 200E
ENCODING 8206
SWIDTH 540 0
DWIDTH 9 0
BBX 0 0 0 0
BITMAP
ENDCHAR
STARTCHAR 200F
ENCODING 8207
SWIDTH 540 0
DWIDTH 9 0
BBX 0 0 0 0
BITMAP
ENDCHAR
STARTCHAR 2010
ENCODING 8208
SWIDTH 1020 0
DWIDTH 17 0
BBX 8 1 4 6
BITMAP
FF
ENDCHAR
STARTCHAR 2014
ENCODING 8212
SWIDTH 1020 0
DWIDTH 17 0
BBX 17 1 0 6
BITMAP
FFFF80
ENDCHAR
STARTCHAR 2015
ENCODING 8213
SWIDTH 1020 0
DWIDTH 17 0
BBX 17 1 0 6
BITMAP
FFFF80
ENDCHAR
STARTCHAR 2016
ENCODING 8214
SWIDTH 1020 0
DWIDTH 17 0
BBX 7 17 4 -2
BITMAP
CE
CE
CE
CE
CE
CE
CE
CE
CE
CE
CE
CE
CE
CE
CE
CE
CE
ENDCHAR
STARTCHAR 2018
ENCODING 8216
SWIDTH 1020 0
DWIDTH 17 0
BBX 3 5 11 10
BITMAP
60
C0
C0
E0
E0
ENDCHAR
STARTCHAR 2019
ENCODING 8217
SWIDTH 1020 0
DWIDTH 17 0
BBX 3 5 2 10
BITMAP
E0
E0
E0
60
C0
ENDCHAR
STARTCHAR 201C
ENCODING 8220
SWIDTH 1020 0
DWIDTH 17 0
BBX 7 5 8 10
BITMAP
36
EC
EC
F6
F6
ENDCHAR
STARTCHAR 201D
ENCODING 8221
SWIDTH 1020 0
DWIDTH 17 0
BBX 6 5 1 10
BITMAP
EC
EC
EC
6C
D8
ENDCHAR
STARTCHAR 2020
ENCODING 8224
SWIDTH 1020 0
DWIDTH 17 0
BBX 11 17 3 -2
BITMAP
0E00
1F00
1F00
6EC0
FFE0
6EC0
0E00
3F80
1F00
1F00
1F00
1F00
1F00
0E00
0E00
0E00
0E00
ENDCHAR
STARTCHAR 2021
ENCODING 8225
SWIDTH 1020 0
DWIDTH 17 0
BBX 11 17 2 -2
BITMAP
0E00
1F00
1F00
6EC0
FFE0
6EC0
1F00
1F00
0E00
0E00
1F00
1F00
6EC0
FFE0
6EC0
1F00
0E00
ENDCHAR
STARTCHAR 2025
ENCODING 8229
SWIDTH 1020 0
DWIDTH 17 0
BBX 12 2 2 5
BITMAP
E070
E070
ENDCHAR
STARTCHAR 2026
ENCODING 8230
SWIDTH 1020 0
DWIDTH 17 0
BBX 16 2 0 5
BITMAP
E3C7
E3C7
ENDCHAR
STARTCHAR 2030
ENCODING 8240
SWIDTH 1020 0
DWIDTH 17 0
BBX 16 15 0 -1
BITMAP
000C
000C
3818
7430
6C30
6CE0
6DC0
6D80
3A00
0DCE
0FAD
1AEB
36EB
66EB
C3CE
ENDCHAR
STARTCHAR 2032
ENCODING 8242
SWIDTH 1020 0
DWIDTH 17 0
BBX 4 5 1 9
BITMAP
30
30
70
E0
C0
ENDCHAR
STARTCHAR 2033
ENCODING 8243
SWIDTH 1020 0
DWIDTH 17 0
BBX 9 5 0 9
BITMAP
3380
3380
7780
EE00
CC00
ENDCHAR
STARTCHAR 203B
ENCODING 8251
SWIDTH 1020 0
DWIDTH 17 0
BBX 14 12 1 0
BITMAP
C78C
6798
3030
1860
0DC0
E79C
E79C
0DC0
1860
3030
6798
C78C
ENDCHAR
STARTCHAR 203E
ENCODING 8254
SWIDTH 1020 0
DWIDTH 17 0
BBX 17 1 0 14
BITMAP
FFFF80
ENDCHAR
STARTCHAR 2103
ENCODING 8451
SWIDTH 1020 0
DWIDTH 17 0
BBX 16 14 0 0
BITMAP
70FB
70FB
DBCD
DA07
7603
0C03
0C00
0C00
0C00
0C00
0603
0606
03DC
00F0
ENDCHAR
STARTCHAR 212B
ENCODING 8491
SWIDTH 1020 0
DWIDTH 17 0
BBX 11 15 3 0
BITMAP
0F00
1D80
1D80
1D80
0F00
0E00
0E00
1D00
1D00
3180
3180
3F80
60C0
60C0
F1E0
ENDCHAR
STARTCHAR 2190
ENCODING 8592
SWIDTH 1020 0
DWIDTH 17 0
BBX 17 7 0 3
BITMAP
0C0000
180000
700000
FFFF80
700000
180000
0C0000
ENDCHAR
STARTCHAR 2191
ENCODING 8593
SWIDTH 1020 0
DWIDTH 17 0
BBX 9 17 3 -2
BITMAP
1C00
1C00
1C00
3E00
3E00
6D00
DD80
1C00
1C00
1C00
1C00
1C00
1C00
1C00
1C00
1C00
1C00
ENDCHAR
STARTCHAR 2192
ENCODING 8594
SWIDTH 1020 0
DWIDTH 17 0
BBX 17 7 0 3
BITMAP
003000
001800
000E00
FFFF80
000E00
001800
003000
ENDCHAR
STARTCHAR 2193
ENCODING 8595
SWIDTH 1020 0
DWIDTH 17 0
BBX 9 17 3 -2
BITMAP
1C00
1C00
1C00
1C00
1C00
1C00
1C00
1C00
1C00
1C00
1C00
DD80
6D00
3E00
3E00
1C00
1C00
ENDCHAR
STARTCHAR 21D2
ENCODING 8658
SWIDTH 1020 0
DWIDTH 17 0
BBX 17 9 0 2
BITMAP
001800
000C00
FFFE00
000300
000180
000300
FFFE00
000C00
001800
ENDCHAR
STARTCHAR 21D4
ENCODING 8660
SWIDTH 1020 0
DWIDTH 17 0
BBX 17 9 0 2
BITMAP
181800
300C00
7FFE00
C00300
800180
C00300
7FFE00
300C00
181800
ENDCHAR
STARTCHAR 2200
ENCODING 8704
SWIDTH 1020 0
DWIDTH 17 0
BBX 15 15 1 -1
BITMAP
C006
C006
C006
600C
600C
3FF8
3018
1830
1830
0C60
0C60
0740
0740
0380
0380
ENDCHAR
STARTCHAR 2202
ENCODING 8706
SWIDTH 1020 0
DWIDTH 17 0
BBX 11 14 2 0
BITMAP
0780
0780
1EC0
3060
0060
0060
1F60
33C0
73C0
63C0
E380
E780
6F00
3800
ENDCHAR
STARTCHAR 2203
ENCODING 8707
SWIDTH 1020 0
DWIDTH 17 0
BBX 11 11 2 1
BITMAP
FFE0
0060
0060
0060
0060
FFE0
0060
0060
0060
0060
FFE0
ENDCHAR
STARTCHAR 2207
ENCODING 8711
SWIDTH 1020 0
DWIDTH 17 0
BBX 16 14 0 0
BITMAP
FFFF
FFFF
6006
7006
300C
380C
1818
1C18
0C30
0E30
06E0
07A0
03C0
01C0
ENDCHAR
STARTCHAR 2208
ENCODING 8712
SWIDTH 1020 0
DWIDTH 17 0
BBX 12 9 2 2
BITMAP
3FF0
6000
C000
C000
FFF0
C000
C000
6000
3FF0
ENDCHAR
STARTCHAR 220B
ENCODING 8715
SWIDTH 1020 0
DWIDTH 17 0
BBX 12 9 2 2
BITMAP
FFC0
0060
0030
0030
FFF0
0030
0030
0060
FFC0
ENDCHAR
STARTCHAR 2212
ENCODING 8722
SWIDTH 1020 0
DWIDTH 17 0
BBX 14 1 1 6
BITMAP
FFFC
ENDCHAR
STARTCHAR 221A
ENCODING 8730
SWIDTH 1020 0
DWIDTH 17 0
BBX 17 17 0 -2
BITMAP
01FF80
01C000
01C000
01C000
038000
038000
038000
038000
060000
060000
660000
660000
740000
D40000
DC0000
180000
180000
ENDCHAR
STARTCHAR 221D
ENCODING 8733
SWIDTH 1020 0
DWIDTH 17 0
BBX 15 8 0 2
BITMAP
3C3C
66E6
C3C0
C3C0
C3C0
C3C0
66E6
3C3C
ENDCHAR
STARTCHAR 221E
ENCODING 8734
SWIDTH 1020 0
DWIDTH 17 0
BBX 16 8 0 2
BITMAP
3C1C
6EF6
C6E3
C3C3
C3C3
C6E3
6EF6
383C
ENDCHAR
STARTCHAR 2220
ENCODING 8736
SWIDTH 1020 0
DWIDTH 17 0
BBX 14 11 1 1
BITMAP
0018
0030
0060
01C0
0380
0700
0C00
1800
3000
6000
FFFC
ENDCHAR
STARTCHAR 2225
ENCODING 8741
SWIDTH 1020 0
DWIDTH 17 0
BBX 7 17 4 -2
BITMAP
CE
CE
CE
CE
CE
CE
CE
CE
CE
CE
CE
CE
CE
CE
CE
CE
CE
ENDCHAR
STARTCHAR 2227
ENCODING 8743
SWIDTH 1020 0
DWIDTH 17 0
BBX 13 12 2 0
BITMAP
0700
0700
0E80
0E80
18C0
18C0
3060
3060
6030
6030
C018
C018
ENDCHAR
STARTCHAR 2228
ENCODING 8744
SWIDTH 1020 0
DWIDTH 17 0
BBX 13 12 2 0
BITMAP
C018
C018
6030
6030
3060
3060
18C0
18C0
0E80
0E80
0700
0700
ENDCHAR
STARTCHAR 2229
ENCODING 8745
SWIDTH 1020 0
DWIDTH 17 0
BBX 12 12 2 0
BITMAP
1F80
30C0
6060
6060
C030
C030
C030
C030
C030
C030
C030
C030
ENDCHAR
STARTCHAR 222A
ENCODING 8746
SWIDTH 1020 0
DWIDTH 17 0
BBX 12 12 2 0
BITMAP
C030
C030
C030
C030
C030
C030
C030
C030
6060
6060
30C0
1F80
ENDCHAR
STARTCHAR 222B
ENCODING 8747
SWIDTH 1020 0
DWIDTH 17 0
BBX 6 17 5 -2
BITMAP
7C
DC
DC
C0
C0
F0
F0
70
78
78
38
3C
3C
1C
1C
DC
F8
ENDCHAR
STARTCHAR 222C
ENCODING 8748
SWIDTH 1020 0
DWIDTH 17 0
BBX 12 17 2 -2
BITMAP
78F0
DBB0
DBB0
C380
C380
E3C0
E3C0
60C0
70E0
70E0
3060
3870
3870
1830
1830
DBB0
F3E0
ENDCHAR
STARTCHAR 2234
ENCODING 8756
SWIDTH 1020 0
DWIDTH 17 0
BBX 14 10 1 1
BITMAP
0780
0780
0000
0000
0000
0000
0000
0000
E01C
E01C
ENDCHAR
STARTCHAR 2235
ENCODING 8757
SWIDTH 1020 0
DWIDTH 17 0
BBX 14 10 1 1
BITMAP
E01C
E01C
0000
0000
0000
0000
0000
0000
0780
0780
ENDCHAR
STARTCHAR 223D
ENCODING 8765
SWIDTH 1020 0
DWIDTH 17 0
BBX 16 8 0 2
BITMAP
3C3C
60E6
C1C3
C1C3
C383
C383
6606
3C3C
ENDCHAR
STARTCHAR 2252
ENCODING 8786
SWIDTH 1020 0
DWIDTH 17 0
BBX 14 11 1 1
BITMAP
7000
7000
0000
FFFC
0000
0000
0000
FFFC
0000
0038
0038
ENDCHAR
STARTCHAR 2260
ENCODING 8800
SWIDTH 1020 0
DWIDTH 17 0
BBX 14 11 1 1
BITMAP
01C0
01C0
0380
FFFC
0380
0700
0700
FFFC
0700
0C00
0C00
ENDCHAR
STARTCHAR 2261
ENCODING 8801
SWIDTH 1020 0
DWIDTH 17 0
BBX 14 9 1 2
BITMAP
FFFC
0000
0000
0000
FFFC
0000
0000
0000
FFFC
ENDCHAR
STARTCHAR 2266
ENCODING 8806
SWIDTH 1020 0
DWIDTH 17 0
BBX 14 12 1 0
BITMAP
003C
03E0
1F00
F000
1F00
03E0
003C
0000
FFFC
0000
0000
FFFC
ENDCHAR
STARTCHAR 2267
ENCODING 8807
SWIDTH 1020 0
DWIDTH 17 0
BBX 14 12 1 0
BITMAP
F000
1F00
03E0
003C
03E0
1F00
F000
0000
FFFC
0000
0000
FFFC
ENDCHAR
STARTCHAR 226A
ENCODING 8810
SWIDTH 1020 0
DWIDTH 17 0
BBX 14 15 1 -1
BITMAP
0398
0398
0730
0C60
19C0
3380
6700
CC00
6700
3380
19C0
0C60
0730
0398
01CC
ENDCHAR
STARTCHAR 226B
ENCODING 8811
SWIDTH 1020 0
DWIDTH 17 0
BBX 14 15 1 -1
BITMAP
6700
6700
3380
19C0
0C60
0730
0398
01CC
0398
0730
0C60
19C0
3380
6700
CC00
ENDCHAR
STARTCHAR 2282
ENCODING 8834
SWIDTH 1020 0
DWIDTH 17 0
BBX 14 10 1 1
BITMAP
0FFC
3800
6000
C000
C000
C000
C000
6000
3800
0FFC
ENDCHAR
STARTCHAR 2283
ENCODING 8835
SWIDTH 1020 0
DWIDTH 17 0
BBX 14 10 1 1
BITMAP
FFC0
0070
0018
000C
000C
000C
000C
0018
0070
FFC0
ENDCHAR
STARTCHAR 2286
ENCODING 8838
SWIDTH 1020 0
DWIDTH 17 0
BBX 14 11 1 1
BITMAP
3FFC
6000
C000
C000
C000
C000
6000
3FFC
0000
0000
FFFC
ENDCHAR
STARTCHAR 2287
ENCODING 8839
SWIDTH 1020 0
DWIDTH 17 0
BBX 14 11 1 1
BITMAP
FFF0
0018
000C
000C
000C
000C
0018
FFF0
0000
0000
FFFC
ENDCHAR
STARTCHAR 22A5
ENCODING 8869
SWIDTH 1020 0
DWIDTH 17 0
BBX 14 11 1 1
BITMAP
0700
0700
0700
0700
0700
0700
0700
0700
0700
0700
FFFC
ENDCHAR
STARTCHAR 2312
ENCODING 8978
SWIDTH 1020 0
DWIDTH 17 0
BBX 16 4 0 11
BITMAP
0FF0
781E
781E
C003
ENDCHAR
STARTCHAR 2500
ENCODING 9472
SWIDTH 1020 0
DWIDTH 17 0
BBX 17 1 0 6
BITMAP
FFFF80
ENDCHAR
STARTCHAR 2501
ENCODING 9473
SWIDTH 1020 0
DWIDTH 17 0
BBX 17 2 0 5
BITMAP
FFFF80
FFFF80
ENDCHAR
STARTCHAR 2502
ENCODING 9474
SWIDTH 1020 0
DWIDTH 17 0
BBX 3 17 6 -2
BITMAP
E0
E0
E0
E0
E0
E0
E0
E0
E0
E0
E0
E0
E0
E0
E0
E0
E0
ENDCHAR
STARTCHAR 2503
ENCODING 9475
SWIDTH 1020 0
DWIDTH 17 0
BBX 4 17 6 -2
BITMAP
F0
F0
F0
F0
F0
F0
F0
F0
F0
F0
F0
F0
F0
F0
F0
F0
F0
ENDCHAR
STARTCHAR 250C
ENCODING 9484
SWIDTH 1020 0
DWIDTH 17 0
BBX 11 9 6 -2
BITMAP
FFE0
E000
E000
E000
E000
E000
E000
E000
E000
ENDCHAR
STARTCHAR 250F
ENCODING 9487
SWIDTH 1020 0
DWIDTH 17 0
BBX 11 9 6 -2
BITMAP
FFE0
FFE0
F000
F000
F000
F000
F000
F000
F000
ENDCHAR
STARTCHAR 2510
ENCODING 9488
SWIDTH 1020 0
DWIDTH 17 0
BBX 9 9 0 -2
BITMAP
FF80
0380
0380
0380
0380
0380
0380
0380
0380
ENDCHAR
STARTCHAR 2513
ENCODING 9491
SWIDTH 1020 0
DWIDTH 17 0
BBX 10 9 0 -2
BITMAP
FFC0
FFC0
03C0
03C0
03C0
03C0
03C0
03C0
03C0
ENDCHAR
STARTCHAR 2514
ENCODING 9492
SWIDTH 1020 0
DWIDTH 17 0
BBX 11 9 6 6
BITMAP
E000
E000
E000
E000
E000
E000
E000
E000
FFE0
ENDCHAR
STARTCHAR 2517
ENCODING 9495
SWIDTH 1020 0
DWIDTH 17 0
BBX 11 10 6 5
BITMAP
F000
F000
F000
F000
F000
F000
F000
F000
FFE0
FFE0
ENDCHAR
STARTCHAR 2518
ENCODING 9496
SWIDTH 1020 0
DWIDTH 17 0
BBX 9 9 0 6
BITMAP
0380
0380
0380
0380
0380
0380
0380
0380
FF80
ENDCHAR
STARTCHAR 251B
ENCODING 9499
SWIDTH 1020 0
DWIDTH 17 0
BBX 10 10 0 5
BITMAP
03C0
03C0
03C0
03C0
03C0
03C0
03C0
03C0
FFC0
FFC0
ENDCHAR
STARTCHAR 251C
ENCODING 9500
SWIDTH 1020 0
DWIDTH 17 0
BBX 11 17 6 -2
BITMAP
E000
E000
E000
E000
E000
E000
E000
E000
FFE0
E000
E000
E000
E000
E000
E000
E000
E000
ENDCHAR
STARTCHAR 251D
ENCODING 9501
SWIDTH 1020 0
DWIDTH 17 0
BBX 11 17 6 -2
BITMAP
E000
E000
E000
E000
E000
E000
E000
E000
FFE0
FFE0
E000
E000
E000
E000
E000
E000
E000
ENDCHAR
STARTCHAR 2520
ENCODING 9504
SWIDTH 1020 0
DWIDTH 17 0
BBX 11 17 6 -2
BITMAP
F000
F000
F000
F000
F000
F000
F000
F000
FFE0
F000
F000
F000
F000
F000
F000
F000
F000
ENDCHAR
STARTCHAR 2523
ENCODING 9507
SWIDTH 1020 0
DWIDTH 17 0
BBX 11 17 6 -2
BITMAP
F000
F000
F000
F000
F000
F000
F000
F000
FFE0
FFE0
F000
F000
F000
F000
F000
F000
F000
ENDCHAR
STARTCHAR 2524
ENCODING 9508
SWIDTH 1020 0
DWIDTH 17 0
BBX 9 17 0 -2
BITMAP
0380
0380
0380
0380
0380
0380
0380
0380
FF80
0380
0380
0380
0380
0380
0380
0380
0380
ENDCHAR
STARTCHAR 2525
ENCODING 9509
SWIDTH 1020 0
DWIDTH 17 0
BBX 9 17 0 -2
BITMAP
0380
0380
0380
0380
0380
0380
0380
0380
FF80
FF80
0380
0380
0380
0380
0380
0380
0380
ENDCHAR
STARTCHAR 2528
ENCODING 9512
SWIDTH 1020 0
DWIDTH 17 0
BBX 10 17 0 -2
BITMAP
03C0
03C0
03C0
03C0
03C0
03C0
03C0
03C0
FFC0
03C0
03C0
03C0
03C0
03C0
03C0
03C0
03C0
ENDCHAR
STARTCHAR 252B
ENCODING 9515
SWIDTH 1020 0
DWIDTH 17 0
BBX 10 17 0 -2
BITMAP
03C0
03C0
03C0
03C0
03C0
03C0
03C0
03C0
FFC0
FFC0
03C0
03C0
03C0
03C0
03C0
03C0
03C0
ENDCHAR
STARTCHAR 252C
ENCODING 9516
SWIDTH 1020 0
DWIDTH 17 0
BBX 17 9 0 -2
BITMAP
FFFF80
038000
038000
038000
038000
038000
038000
038000
038000
ENDCHAR
STARTCHAR 252F
ENCODING 9519
SWIDTH 1020 0
DWIDTH 17 0
BBX 17 9 0 -2
BITMAP
FFFF80
FFFF80
038000
038000
038000
038000
038000
038000
038000
ENDCHAR
STARTCHAR 2530
ENCODING 9520
SWIDTH 1020 0
DWIDTH 17 0
BBX 17 9 0 -2
BITMAP
FFFF80
03C000
03C000
03C000
03C000
03C000
03C000
03C000
03C000
ENDCHAR
STARTCHAR 2533
ENCODING 9523
SWIDTH 1020 0
DWIDTH 17 0
BBX 17 9 0 -2
BITMAP
FFFF80
FFFF80
03C000
03C000
03C000
03C000
03C000
03C000
03C000
ENDCHAR
STARTCHAR 2534
ENCODING 9524
SWIDTH 1020 0
DWIDTH 17 0
BBX 17 9 0 6
BITMAP
038000
038000
038000
038000
038000
038000
038000
038000
FFFF80
ENDCHAR
STARTCHAR 2537
ENCODING 9527
SWIDTH 1020 0
DWIDTH 17 0
BBX 17 10 0 5
BITMAP
038000
038000
038000
038000
038000
038000
038000
038000
FFFF80
FFFF80
ENDCHAR
STARTCHAR 2538
ENCODING 9528
SWIDTH 1020 0
DWIDTH 17 0
BBX 17 9 0 6
BITMAP
03C000
03C000
03C000
03C000
03C000
03C000
03C000
03C000
FFFF80
ENDCHAR
STARTCHAR 253B
ENCODING 9531
SWIDTH 1020 0
DWIDTH 17 0
BBX 17 10 0 5
BITMAP
03C000
03C000
03C000
03C000
03C000
03C000
03C000
03C000
FFFF80
FFFF80
ENDCHAR
STARTCHAR 253C
ENCODING 9532
SWIDTH 1020 0
DWIDTH 17 0
BBX 17 17 0 -2
BITMAP
038000
038000
038000
038000
038000
038000
038000
038000
FFFF80
038000
038000
038000
038000
038000
038000
038000
038000
ENDCHAR
STARTCHAR 253F
ENCODING 9535
SWIDTH 1020 0
DWIDTH 17 0
BBX 17 17 0 -2
BITMAP
038000
038000
038000
038000
038000
038000
038000
038000
FFFF80
FFFF80
038000
038000
038000
038000
038000
038000
038000
ENDCHAR
STARTCHAR 2542
ENCODING 9538
SWIDTH 1020 0
DWIDTH 17 0
BBX 17 17 0 -2
BITMAP
03C000
03C000
03C000
03C000
03C000
03C000
03C000
03C000
FFFF80
03C000
03C000
03C000
03C000
03C000
03C000
03C000
03C000
ENDCHAR
STARTCHAR 254B
ENCODING 9547
SWIDTH 1020 0
DWIDTH 17 0
BBX 17 17 0 -2
BITMAP
03C000
03C000
03C000
03C000
03C000
03C000
03C000
03C000
FFFF80
FFFF80
03C000
03C000
03C000
03C000
03C000
03C000
03C000
ENDCHAR
STARTCHAR 25A0
ENCODING 9632
SWIDTH 1020 0
DWIDTH 17 0
BBX 16 15 0 -1
BITMAP
FFFF
FFFF
FFFF
FFFF
FFFF
FFFF
FFFF
FFFF
FFFF
FFFF
FFFF
FFFF
FFFF
FFFF
FFFF
ENDCHAR
STARTCHAR 25A1
ENCODING 9633
SWIDTH 1020 0
DWIDTH 17 0
BBX 16 15 0 -1
BITMAP
FFFF
FFFF
C003
C003
C003
C003
C003
C003
C003
C003
C003
C003
C003
C003
FFFF
ENDCHAR
STARTCHAR 25B2
ENCODING 9650
SWIDTH 1020 0
DWIDTH 17 0
BBX 16 14 0 0
BITMAP
0380
0380
0380
07C0
07C0
0FE0
0FF0
1FF0
1FF8
3FF8
3FFC
7FFE
7FFE
FFFF
ENDCHAR
STARTCHAR 25B3
ENCODING 9651
SWIDTH 1020 0
DWIDTH 17 0
BBX 16 14 0 0
BITMAP
0380
0380
0380
06C0
06C0
0CE0
0CE0
1830
1818
3018
300C
600C
6006
FFFF
ENDCHAR
STARTCHAR 25BC
ENCODING 9660
SWIDTH 1020 0
DWIDTH 17 0
BBX 16 13 0 -1
BITMAP
FFFF
7FFE
7FFE
3FFC
3FF8
1FF8
1FF0
0FF0
0FE0
07C0
07C0
0380
0380
ENDCHAR
STARTCHAR 25BD
ENCODING 9661
SWIDTH 1020 0
DWIDTH 17 0
BBX 16 13 0 -1
BITMAP
FFFF
6006
600C
300C
3018
1818
1830
0CE0
0CE0
06C0
06C0
0380
0380
ENDCHAR
STARTCHAR 25C6
ENCODING 9670
SWIDTH 1020 0
DWIDTH 17 0
BBX 17 17 0 -2
BITMAP
03C000
07E000
07E000
0FF000
1FF800
3FFC00
7FFE00
FFFF00
FFFF80
FFFF80
FFFF00
7FFE00
3FFC00
1FF800
0FF000
07E000
03C000
ENDCHAR
STARTCHAR 25C7
ENCODING 9671
SWIDTH 1020 0
DWIDTH 17 0
BBX 17 17 0 -2
BITMAP
03C000
06E000
06E000
0C3000
181800
300C00
600600
C00300
800180
800180
C00300
600600
300C00
181800
0C3000
06E000
03C000
ENDCHAR
STARTCHAR 25CB
ENCODING 9675
SWIDTH 1020 0
DWIDTH 17 0
BBX 16 15 0 -1
BITMAP
07E0
07E0
1C38
300C
6006
6006
C003
C003
C003
C003
6006
6006
300C
1C38
07E0
ENDCHAR
STARTCHAR 25CE
ENCODING 9678
SWIDTH 1020 0
DWIDTH 17 0
BBX 16 15 0 -1
BITMAP
07E0
07E0
1C38
300C
67E6
6C36
D81B
D81B
D81B
D81B
6C36
67E6
300C
1C38
07E0
ENDCHAR
STARTCHAR 25CF
ENCODING 9679
SWIDTH 1020 0
DWIDTH 17 0
BBX 16 15 0 -1
BITMAP
07E0
07E0
1FF8
3FFC
7FFE
7FFE
FFFF
FFFF
FFFF
FFFF
7FFE
7FFE
3FFC
1FF8
07E0
ENDCHAR
STARTCHAR 25EF
ENCODING 9711
SWIDTH 1020 0
DWIDTH 17 0
BBX 17 17 0 -2
BITMAP
07E000
1C3800
1C3800
300C00
600600
C00300
C00300
800180
800180
800180
800180
C00300
C00300
600600
300C00
1C3800
07E000
ENDCHAR
STARTCHAR 2605
ENCODING 9733
SWIDTH 1020 0
DWIDTH 17 0
BBX 15 15 0 -1
BITMAP
0380
0380
0380
07C0
07C0
0FE0
FFFE
7FFC
3FF8
1FF0
1FF0
3EF8
3CF8
783C
600C
ENDCHAR
STARTCHAR 2606
ENCODING 9734
SWIDTH 1020 0
DWIDTH 17 0
BBX 15 15 0 -1
BITMAP
0380
0380
0380
06C0
06C0
0CE0
FCFE
600C
3018
1830
1830
3398
36D8
6CF4
701C
ENDCHAR
STARTCHAR 2640
ENCODING 9792
SWIDTH 1020 0
DWIDTH 17 0
BBX 12 16 2 -2
BITMAP
1F80
1F80
30C0
6060
6060
6060
6060
30C0
1F80
0E00
FFF0
0E00
0E00
0E00
0E00
0E00
ENDCHAR
STARTCHAR 2642
ENCODING 9794
SWIDTH 1020 0
DWIDTH 17 0
BBX 16 15 0 -1
BITMAP
01FF
01FF
0007
000D
001B
0033
00E3
3EC3
6380
C1C0
C1C0
C1C0
C1C0
6380
3E00
ENDCHAR
STARTCHAR 266A
ENCODING 9834
SWIDTH 1020 0
DWIDTH 17 0
BBX 13 17 2 -2
BITMAP
0700
0700
0700
0780
07C0
0760
0770
0738
0718
0718
0730
0760
0700
7F00
FF00
FE00
7800
ENDCHAR
STARTCHAR 266D
ENCODING 9837
SWIDTH 1020 0
DWIDTH 17 0
BBX 9 17 4 -2
BITMAP
C000
C000
C000
C000
C000
C000
C000
C000
DF00
E380
C380
C380
CF00
DE00
D800
E000
C000
ENDCHAR
STARTCHAR 266F
ENCODING 9839
SWIDTH 1020 0
DWIDTH 17 0
BBX 14 17 1 -2
BITMAP
0060
1860
1860
1860
187C
1FFC
FFE0
F860
1860
1860
187C
1FFC
FFE0
F860
1860
1860
1800
ENDCHAR
STARTCHAR 3000
ENCODING 12288
SWIDTH 1020 0
DWIDTH 17 0
BBX 0 0 0 0
BITMAP
ENDCHAR
STARTCHAR 3001
ENCODING 12289
SWIDTH 1020 0
DWIDTH 17 0
BBX 4 4 1 -2
BITMAP
C0
60
30
30
ENDCHAR
STARTCHAR 3002
ENCODING 12290
SWIDTH 1020 0
DWIDTH 17 0
BBX 5 4 0 -1
BITMAP
70
D8
D8
70
ENDCHAR
STARTCHAR 3003
ENCODING 12291
SWIDTH 1020 0
DWIDTH 17 0
BBX 10 7 3 3
BITMAP
1CC0
1CC0
1CC0
3180
3180
6700
CE00
ENDCHAR
STARTCHAR 3005
ENCODING 12293
SWIDTH 1020 0
DWIDTH 17 0
BBX 12 14 2 0
BITMAP
0E00
0E00
0E00
0E00
0FF0
0E30
1830
1860
3060
6F40
C3C0
0060
0030
0030
ENDCHAR
STARTCHAR 3006
ENCODING 12294
SWIDTH 1020 0
DWIDTH 17 0
BBX 14 15 2 -1
BITMAP
000C
000C
000C
0018
0030
0F60
1BC0
3380
3740
6E00
6800
7000
6000
C000
C000
ENDCHAR
STARTCHAR 3007
ENCODING 12295
SWIDTH 1020 0
DWIDTH 17 0
BBX 16 15 0 -1
BITMAP
07E0
07E0
1C38
300C
6006
6006
C003
C003
C003
C003
6006
6006
300C
1C38
07E0
ENDCHAR
STARTCHAR 3008
ENCODING 12296
SWIDTH 1020 0
DWIDTH 17 0
BBX 7 17 7 -2
BITMAP
06
06
06
0C
0C
18
18
70
E0
E0
70
18
18
0C
0C
06
06
ENDCHAR
STARTCHAR 3009
ENCODING 12297
SWIDTH 1020 0
DWIDTH 17 0
BBX 7 17 2 -2
BITMAP
C0
C0
C0
60
60
30
30
18
0E
0E
18
30
30
60
60
C0
C0
ENDCHAR
STARTCHAR 300A
ENCODING 12298
SWIDTH 1020 0
DWIDTH 17 0
BBX 10 17 5 -2
BITMAP
06C0
06C0
06C0
1D80
1D80
3B00
3B00
7600
DC00
DC00
7600
3B00
3B00
1D80
1D80
06C0
06C0
ENDCHAR
STARTCHAR 300B
ENCODING 12299
SWIDTH 1020 0
DWIDTH 17 0
BBX 10 17 1 -2
BITMAP
D800
D800
D800
6C00
6C00
3700
3700
1B80
0DC0
0DC0
1B80
3700
3700
6C00
6C00
D800
D800
ENDCHAR
STARTCHAR 300C
ENCODING 12300
SWIDTH 1020 0
DWIDTH 17 0
BBX 7 12 7 3
BITMAP
FE
E0
E0
E0
E0
E0
E0
E0
E0
E0
E0
E0
ENDCHAR
STARTCHAR 300D
ENCODING 12301
SWIDTH 1020 0
DWIDTH 17 0
BBX 7 11 2 -2
BITMAP
0E
0E
0E
0E
0E
0E
0E
0E
0E
0E
FE
ENDCHAR
STARTCHAR 300E
ENCODING 12302
SWIDTH 1020 0
DWIDTH 17 0
BBX 8 12 6 3
BITMAP
FF
E3
E3
EF
E8
E8
E8
E8
E8
E8
E8
F8
ENDCHAR
STARTCHAR 300F
ENCODING 12303
SWIDTH 1020 0
DWIDTH 17 0
BBX 8 11 2 -2
BITMAP
1F
1B
1B
1B
1B
1B
1B
1B
FB
C7
FF
ENDCHAR
STARTCHAR 3010
ENCODING 12304
SWIDTH 1020 0
DWIDTH 17 0
BBX 7 17 7 -2
BITMAP
FE
FC
FC
F8
F0
F0
E0
E0
E0
E0
E0
E0
F0
F0
F8
FC
FE
ENDCHAR
STARTCHAR 3011
ENCODING 12305
SWIDTH 1020 0
DWIDTH 17 0
BBX 7 17 2 -2
BITMAP
FE
7E
7E
3E
1E
1E
0E
0E
0E
0E
0E
0E
1E
1E
3E
7E
FE
ENDCHAR
STARTCHAR 3012
ENCODING 12306
SWIDTH 1020 0
DWIDTH 17 0
BBX 16 15 0 -1
BITMAP
7FFE
7FFE
7FFE
0000
0000
FFFF
FFFF
03C0
03C0
03C0
03C0
03C0
03C0
03C0
03C0
ENDCHAR
STARTCHAR 3013
ENCODING 12307
SWIDTH 1020 0
DWIDTH 17 0
BBX 15 10 1 1
BITMAP
FFFE
FFFE
FFFE
0000
0000
0000
0000
FFFE
FFFE
FFFE
ENDCHAR
STARTCHAR 3014
ENCODING 12308
SWIDTH 1020 0
DWIDTH 17 0
BBX 7 17 7 -2
BITMAP
06
1C
1C
F0
E0
E0
E0
E0
E0
E0
E0
E0
E0
E0
F0
1C
06
ENDCHAR
STARTCHAR 3015
ENCODING 12309
SWIDTH 1020 0
DWIDTH 17 0
BBX 7 17 2 -2
BITMAP
C0
70
70
1E
0E
0E
0E
0E
0E
0E
0E
0E
0E
0E
1E
70
C0
ENDCHAR
STARTCHAR 301C
ENCODING 12316
SWIDTH 1020 0
DWIDTH 17 0
BBX 15 4 1 4
BITMAP
3C00
6786
C1CC
0078
ENDCHAR
STARTCHAR 3041
ENCODING 12353
SWIDTH 1020 0
DWIDTH 17 0
BBX 12 12 2 -1
BITMAP
1800
1B80
7E00
1B80
1FC0
1BA0
3B30
6B30
DE30
D860
6EC0
0380
ENDCHAR
STARTCHAR 3042
ENCODING 12354
SWIDTH 1020 0
DWIDTH 17 0
BBX 15 16 1 -1
BITMAP
0C00
0700
0700
6760
3F80
0C00
0DC0
0FF0
19D8
39CC
6B86
DB06
CC06
6B0C
7038
01E0
ENDCHAR
STARTCHAR 3043
ENCODING 12355
SWIDTH 1020 0
DWIDTH 17 0
BBX 12 9 3 -1
BITMAP
C000
6000
60C0
C060
C030
C070
6C30
7000
3000
ENDCHAR
STARTCHAR 3044
ENCODING 12356
SWIDTH 1020 0
DWIDTH 17 0
BBX 14 11 2 0
BITMAP
C000
6060
6030
6018
C018
C00C
CE0C
D81C
680C
3000
3000
ENDCHAR
STARTCHAR 3045
ENCODING 12357
SWIDTH 1020 0
DWIDTH 17 0
BBX 9 12 4 -1
BITMAP
3800
1E00
0000
0000
DF00
7980
0180
0180
0300
0300
0E00
1C00
ENDCHAR
STARTCHAR 3046
ENCODING 12358
SWIDTH 1020 0
DWIDTH 17 0
BBX 11 17 3 -2
BITMAP
1C00
0F80
0F80
0000
0000
CF80
7CC0
0060
0060
0060
0060
00C0
00C0
0180
0700
0E00
1C00
ENDCHAR
STARTCHAR 3047
ENCODING 12359
SWIDTH 1020 0
DWIDTH 17 0
BBX 12 12 2 -2
BITMAP
1800
0F00
0000
0000
6FC0
3B80
0700
0E00
3B00
6700
C700
03F0
ENDCHAR
STARTCHAR 3048
ENCODING 12360
SWIDTH 1020 0
DWIDTH 17 0
BBX 14 16 1 -1
BITMAP
0C00
0700
0700
03C0
0000
33F0
1F60
01C0
0380
0700
0F80
19C0
31C0
61C0
C060
003C
ENDCHAR
STARTCHAR 3049
ENCODING 12361
SWIDTH 1020 0
DWIDTH 17 0
BBX 13 11 2 -1
BITMAP
1800
1800
6BA0
3E38
1800
1BC0
1E60
3830
EBB0
38E0
1800
ENDCHAR
STARTCHAR 304A
ENCODING 12362
SWIDTH 1020 0
DWIDTH 17 0
BBX 17 16 0 -1
BITMAP
180000
0C0000
0C0000
0C1800
0DCE00
0F8300
7C0780
0C0000
0DF800
0F8C00
0C0600
1C0600
EC0600
74EC00
1C3800
0C0000
ENDCHAR
STARTCHAR 304B
ENCODING 12363
SWIDTH 1020 0
DWIDTH 17 0
BBX 15 15 1 -1
BITMAP
3000
3000
1800
1830
1818
DF8C
79CC
19C6
19CE
31C6
31C0
61C0
6B80
CD80
0700
ENDCHAR
STARTCHAR 304C
ENCODING 12364
SWIDTH 1020 0
DWIDTH 17 0
BBX 16 15 1 -1
BITMAP
3006
3006
180D
1835
1818
DF8C
79CC
19C6
19CE
31C6
31C0
61C0
6B80
CD80
0700
ENDCHAR
STARTCHAR 304D
ENCODING 12365
SWIDTH 1020 0
DWIDTH 17 0
BBX 12 16 3 -1
BITMAP
1C00
0E60
0E60
0EC0
7F00
0730
07E0
FE80
00C0
00C0
3FA0
60E0
C000
C000
7000
1F80
ENDCHAR
STARTCHAR 304E
ENCODING 12366
SWIDTH 1020 0
DWIDTH 17 0
BBX 15 16 1 -1
BITMAP
070C
0736
0736
076A
7F80
0398
03F0
FF40
0060
0060
1FD0
3070
6000
6000
3800
0FC0
ENDCHAR
STARTCHAR 304F
ENCODING 12367
SWIDTH 1020 0
DWIDTH 17 0
BBX 8 16 4 -1
BITMAP
03
03
03
0E
0E
1C
38
60
C0
60
38
1C
0E
0E
03
03
ENDCHAR
STARTCHAR 3050
ENCODING 12368
SWIDTH 1020 0
DWIDTH 17 0
BBX 12 16 4 -1
BITMAP
0300
0300
0300
0E60
0EB0
1CD0
38C0
6000
C000
6000
3800
1C00
0E00
0E00
0300
0300
ENDCHAR
STARTCHAR 3051
ENCODING 12369
SWIDTH 1020 0
DWIDTH 17 0
BBX 15 17 1 -2
BITMAP
0060
C060
C060
6030
6030
603E
CFF0
C030
C030
C030
C030
D030
6030
6060
0060
01C0
0380
ENDCHAR
STARTCHAR 3052
ENCODING 12370
SWIDTH 1020 0
DWIDTH 17 0
BBX 16 17 1 -2
BITMAP
0066
C06B
C06B
6035
6034
603E
CFF0
C030
C030
C030
C030
D030
6030
6060
0060
01C0
0380
ENDCHAR
STARTCHAR 3053
ENCODING 12371
SWIDTH 1020 0
DWIDTH 17 0
BBX 13 12 2 0
BITMAP
3000
1FF0
00C0
0380
0000
0000
0000
C000
C000
C000
6018
3FF0
ENDCHAR
STARTCHAR 3054
ENCODING 12372
SWIDTH 1020 0
DWIDTH 17 0
BBX 14 15 2 0
BITMAP
0018
006C
006C
3034
1FF0
00C0
0380
0000
0000
0000
C000
C000
C000
6018
3FF0
ENDCHAR
STARTCHAR 3055
ENCODING 12373
SWIDTH 1020 0
DWIDTH 17 0
BBX 12 16 3 -1
BITMAP
1C00
0E00
0E00
0770
C7C0
7E80
0180
00C0
00C0
3FA0
60E0
C000
C000
6000
3C00
0FC0
ENDCHAR
STARTCHAR 3056
ENCODING 12374
SWIDTH 1020 0
DWIDTH 17 0
BBX 14 16 3 -1
BITMAP
1C00
0E18
0E18
076C
C7D4
7EB0
0180
00C0
00C0
3FA0
60E0
C000
C000
6000
3C00
0FC0
ENDCHAR
STARTCHAR 3057
ENCODING 12375
SWIDTH 1020 0
DWIDTH 17 0
BBX 12 15 2 -1
BITMAP
C000
C000
6000
6000
6000
6000
6000
6000
6000
6000
6000
6030
6060
33C0
1F00
ENDCHAR
STARTCHAR 3058
ENCODING 12376
SWIDTH 1020 0
DWIDTH 17 0
BBX 12 15 2 -1
BITMAP
C000
C000
6060
63B0
60D0
60C0
6000
6000
6000
6000
6000
6030
6060
33C0
1F00
ENDCHAR
STARTCHAR 3059
ENCODING 12377
SWIDTH 1020 0
DWIDTH 17 0
BBX 15 17 1 -2
BITMAP
0380
01C0
01C0
C1FE
7FC0
01C0
01C0
0FC0
1DC0
1860
0DE0
07A0
0060
01C0
01C0
0380
0700
ENDCHAR
STARTCHAR 305A
ENCODING 12378
SWIDTH 1020 0
DWIDTH 17 0
BBX 17 17 0 -2
BITMAP
038300
01C180
01C180
C1FE80
7FC600
01C000
01C000
0FC000
1DC000
18E000
0DE000
07A000
00E000
01C000
01C000
038000
060000
ENDCHAR
STARTCHAR 305B
ENCODING 12379
SWIDTH 1020 0
DWIDTH 17 0
BBX 16 14 0 0
BITMAP
00E0
00E0
1830
0C30
0C3F
CDF0
7E30
0C30
0C30
0CF0
0C30
0C00
0600
03FC
ENDCHAR
STARTCHAR 305C
ENCODING 12380
SWIDTH 1020 0
DWIDTH 17 0
BBX 17 15 0 0
BITMAP
000300
00ED80
00ED80
183680
0C3600
0C3F00
CDF000
7E3000
0C3000
0C3000
0CF000
0C3000
0C0000
060000
03FC00
ENDCHAR
STARTCHAR 305D
ENCODING 12381
SWIDTH 1020 0
DWIDTH 17 0
BBX 14 15 1 -1
BITMAP
1BE0
1BE0
0F60
01C0
0380
0700
0C7C
1FC0
F380
0700
0C00
0C00
0C00
0700
03E0
ENDCHAR
STARTCHAR 305E
ENCODING 12382
SWIDTH 1020 0
DWIDTH 17 0
BBX 15 16 1 -1
BITMAP
000C
1BF6
1BF6
0F6A
01D8
0380
0700
0C7C
1FC0
F380
0700
0C00
0C00
0C00
0700
03E0
ENDCHAR
STARTCHAR 305F
ENCODING 12383
SWIDTH 1020 0
DWIDTH 17 0
BBX 14 16 1 -1
BITMAP
3000
1800
1800
19C0
1B80
1C00
F800
3078
33DC
3030
6000
6000
6700
C700
C380
C1FC
ENDCHAR
STARTCHAR 3060
ENCODING 12384
SWIDTH 1020 0
DWIDTH 17 0
BBX 15 16 1 -1
BITMAP
300C
1836
1836
19DA
1B98
1C00
F800
3078
33DC
3030
6000
6000
6700
C700
C380
C1FC
ENDCHAR
STARTCHAR 3061
ENCODING 12385
SWIDTH 1020 0
DWIDTH 17 0
BBX 14 16 1 -1
BITMAP
1800
0C00
0C00
0C70
CFC0
7C00
0C00
1800
1BF0
1F18
380C
300C
000C
0018
0070
0FC0
ENDCHAR
STARTCHAR 3062
ENCODING 12386
SWIDTH 1020 0
DWIDTH 17 0
BBX 15 16 1 -1
BITMAP
180C
0C36
0C36
0C6A
CFD8
7C00
0C00
1800
1BF0
1F18
380C
300C
000C
0018
0070
0FC0
ENDCHAR
STARTCHAR 3063
ENCODING 12387
SWIDTH 1020 0
DWIDTH 17 0
BBX 11 7 3 -1
BITMAP
1FC0
F060
0060
0060
00C0
0780
1E00
ENDCHAR
STARTCHAR 3064
ENCODING 12388
SWIDTH 1020 0
DWIDTH 17 0
BBX 16 10 0 1
BITMAP
00F8
07CC
DC06
7003
0003
0003
0006
000C
0038
03E0
ENDCHAR
STARTCHAR 3065
ENCODING 12389
SWIDTH 1020 0
DWIDTH 17 0
BBX 17 14 0 1
BITMAP
000300
000D80
000D80
000680
00FA00
07CC00
DC0600
700300
000300
000300
000600
000C00
003800
03E000
ENDCHAR
STARTCHAR 3066
ENCODING 12390
SWIDTH 1020 0
DWIDTH 17 0
BBX 16 14 0 0
BITMAP
001F
001F
C7F8
7C30
00E0
01C0
01C0
0380
0380
0380
0380
01C0
00E0
003C
ENDCHAR
STARTCHAR 3067
ENCODING 12391
SWIDTH 1020 0
DWIDTH 17 0
BBX 17 14 0 0
BITMAP
000F00
000F00
C7F800
7C3300
00ED80
01C680
01C600
038000
038000
038000
038000
01C000
00E000
003C00
ENDCHAR
STARTCHAR 3068
ENCODING 12392
SWIDTH 1020 0
DWIDTH 17 0
BBX 12 15 3 -1
BITMAP
6000
6000
3000
3000
3060
1C70
1DC0
1D00
1E00
3000
6000
C000
C000
6000
3FF0
ENDCHAR
STARTCHAR 3069
ENCODING 12393
SWIDTH 1020 0
DWIDTH 17 0
BBX 14 15 2 -1
BITMAP
6018
6018
306C
3034
3030
1870
1BC0
1B00
1E00
3000
6000
C000
C000
6000
3FF0
ENDCHAR
STARTCHAR 306A
ENCODING 12394
SWIDTH 1020 0
DWIDTH 17 0
BBX 15 16 1 -1
BITMAP
1800
0DC0
0DC0
0F80
FC30
181C
1836
3060
3060
6060
6060
C060
0FE0
1878
186C
0FC0
ENDCHAR
STARTCHAR 306B
ENCODING 12395
SWIDTH 1020 0
DWIDTH 17 0
BBX 14 15 1 -1
BITMAP
C000
C000
6000
61F8
679C
6030
C000
C000
C000
C000
C700
C700
D380
61FC
6000
ENDCHAR
STARTCHAR 306C
ENCODING 12396
SWIDTH 1020 0
DWIDTH 17 0
BBX 16 15 0 -1
BITMAP
0380
0380
01C0
31C0
37F8
35CC
39C6
3383
6B83
6A03
CC03
DC3A
D6EE
66ED
0038
ENDCHAR
STARTCHAR 306D
ENCODING 12397
SWIDTH 1020 0
DWIDTH 17 0
BBX 16 16 0 -1
BITMAP
3000
1800
1800
1800
1AF8
DDCC
7D86
1A06
1C06
1806
3806
383E
68E6
D8E7
383C
1800
ENDCHAR
STARTCHAR 306E
ENCODING 12398
SWIDTH 1020 0
DWIDTH 17 0
BBX 15 12 1 0
BITMAP
07E0
1DB0
3398
638C
638C
C706
C706
CC0C
680C
7018
0030
01E0
ENDCHAR
STARTCHAR 306F
ENCODING 12399
SWIDTH 1020 0
DWIDTH 17 0
BBX 15 16 1 -1
BITMAP
0060
C030
C030
6030
6030
6C3E
67F0
6030
C030
C030
C030
C030
D7F0
EC3C
6C36
67E0
ENDCHAR
STARTCHAR 3070
ENCODING 12400
SWIDTH 1020 0
DWIDTH 17 0
BBX 16 16 1 -1
BITMAP
0066
C03B
C03B
6035
6034
6C3E
67F0
6030
C030
C030
C030
C030
D7F0
EC3C
6C36
67E0
ENDCHAR
STARTCHAR 3071
ENCODING 12401
SWIDTH 1020 0
DWIDTH 17 0
BBX 16 16 1 -1
BITMAP
0060
C036
C036
603B
603B
6C3E
67F0
6030
C030
C030
C030
C030
D7F0
EC3C
6C36
67E0
ENDCHAR
STARTCHAR 3072
ENCODING 12402
SWIDTH 1020 0
DWIDTH 17 0
BBX 16 15 0 -1
BITMAP
0030
0030
0630
1E38
F418
1818
181C
301A
301B
6018
6018
6030
3030
19E0
0F80
ENDCHAR
STARTCHAR 3073
ENCODING 12403
SWIDTH 1020 0
DWIDTH 17 0
BBX 17 16 0 -1
BITMAP
000300
003580
003580
063680
1E3A00
F41800
181800
181C00
301A00
301B00
601800
601800
603000
303000
19E000
0F8000
ENDCHAR
STARTCHAR 3074
ENCODING 12404
SWIDTH 1020 0
DWIDTH 17 0
BBX 17 15 0 -1
BITMAP
003700
003700
063580
1E3D80
F41B00
181800
181C00
301A00
301B00
601800
601800
603000
303000
19E000
0F8000
ENDCHAR
STARTCHAR 3075
ENCODING 12405
SWIDTH 1020 0
DWIDTH 17 0
BBX 17 15 0 -1
BITMAP
060000
060000
03E000
00E000
01C000
038000
038000
01C000
00E800
0CEE00
D83300
703780
6C3000
06E000
03C000
ENDCHAR
STARTCHAR 3076
ENCODING 12406
SWIDTH 1020 0
DWIDTH 17 0
BBX 17 16 0 -1
BITMAP
000600
061B00
061B00
03ED00
00EC00
01C000
038000
038000
01C000
00E800
0CEE00
D83300
703780
6C3000
06E000
03C000
ENDCHAR
STARTCHAR 3077
ENCODING 12407
SWIDTH 1020 0
DWIDTH 17 0
BBX 17 15 0 -1
BITMAP
060E00
060E00
03EB00
00EB00
01CE00
038000
038000
01C000
00E800
0CEE00
D83300
703780
6C3000
06E000
03C000
ENDCHAR
STARTCHAR 3078
ENCODING 12408
SWIDTH 1020 0
DWIDTH 17 0
BBX 17 7 0 3
BITMAP
078000
0DC000
0CE000
183000
D01800
600E00
000380
ENDCHAR
STARTCHAR 3079
ENCODING 12409
SWIDTH 1020 0
DWIDTH 17 0
BBX 17 11 0 3
BITMAP
000C00
000C00
003600
001A00
079800
0DC000
0CE000
183000
D01800
600E00
000380
ENDCHAR
STARTCHAR 307A
ENCODING 12410
SWIDTH 1020 0
DWIDTH 17 0
BBX 17 9 0 3
BITMAP
001C00
003600
07B600
0DDC00
0CE000
183000
D01800
600E00
000380
ENDCHAR
STARTCHAR 307B
ENCODING 12411
SWIDTH 1020 0
DWIDTH 17 0
BBX 15 15 1 -1
BITMAP
C71C
C71C
63F0
6030
6030
603E
6FF0
C030
C030
C030
C030
D7F0
EC3C
6C36
67E0
ENDCHAR
STARTCHAR 307C
ENCODING 12412
SWIDTH 1020 0
DWIDTH 17 0
BBX 16 16 1 -1
BITMAP
0006
C71D
C71D
63F5
6030
6030
603E
6FF0
C030
C030
C030
C030
D7F0
EC3C
6C36
67E0
ENDCHAR
STARTCHAR 307D
ENCODING 12413
SWIDTH 1020 0
DWIDTH 17 0
BBX 16 16 1 -1
BITMAP
000E
C71B
C71B
63FB
6036
6030
603E
6FF0
C030
C030
C030
C030
D7F0
EC3C
6C36
67E0
ENDCHAR
STARTCHAR 307E
ENCODING 12414
SWIDTH 1020 0
DWIDTH 17 0
BBX 13 16 2 -1
BITMAP
0700
0380
0380
C3F0
7F80
0380
0380
C3E0
7F80
0380
0380
3F80
63E0
C3B8
E380
3F00
ENDCHAR
STARTCHAR 307F
ENCODING 12415
SWIDTH 1020 0
DWIDTH 17 0
BBX 16 13 0 -1
BITMAP
19C0
0FC0
0380
0398
038C
0FEC
3A3C
660E
CC1B
CC18
D830
70E0
01C0
ENDCHAR
STARTCHAR 3080
ENCODING 12416
SWIDTH 1020 0
DWIDTH 17 0
BBX 15 16 1 -1
BITMAP
3000
1800
1800
DF80
7838
180C
180E
7800
D800
D830
D818
D018
7018
3018
3030
1FE0
ENDCHAR
STARTCHAR 3081
ENCODING 12417
SWIDTH 1020 0
DWIDTH 17 0
BBX 16 15 0 -1
BITMAP
01C0
01C0
00E0
30E0
33F0
36DC
39C6
39C6
6B83
6D83
C603
CE06
DB86
700C
0038
ENDCHAR
STARTCHAR 3082
ENCODING 12418
SWIDTH 1020 0
DWIDTH 17 0
BBX 13 16 1 -1
BITMAP
0C00
0700
0700
3700
1F00
07C0
3400
EC00
7430
1F98
1818
1818
1818
1830
0C60
07C0
ENDCHAR
STARTCHAR 3083
ENCODING 12419
SWIDTH 1020 0
DWIDTH 17 0
BBX 13 11 1 -1
BITMAP
0380
19E0
1800
1BF0
0F18
DC18
6C30
0DE0
0700
0700
0700
ENDCHAR
STARTCHAR 3084
ENCODING 12420
SWIDTH 1020 0
DWIDTH 17 0
BBX 16 16 0 -2
BITMAP
01C0
01C0
00F0
1C38
1800
0C3E
0DE3
DE03
7603
0606
03BC
0380
0380
01C0
01C0
01C0
ENDCHAR
STARTCHAR 3085
ENCODING 12421
SWIDTH 1020 0
DWIDTH 17 0
BBX 13 12 1 -2
BITMAP
0700
0380
C7E0
6DB0
6B98
7398
7398
6DB0
67E0
0380
0700
0C00
ENDCHAR
STARTCHAR 3086
ENCODING 12422
SWIDTH 1020 0
DWIDTH 17 0
BBX 16 15 0 -1
BITMAP
03C0
03C0
00E0
C1F8
63AC
66E6
6CE3
68E3
70E3
76E6
63AC
61F8
00E0
01C0
0380
ENDCHAR
STARTCHAR 3087
ENCODING 12423
SWIDTH 1020 0
DWIDTH 17 0
BBX 11 11 2 -1
BITMAP
1800
0E00
0EC0
0F80
0E00
0E00
0E00
7E00
CF80
CEE0
7800
ENDCHAR
STARTCHAR 3088
ENCODING 12424
SWIDTH 1020 0
DWIDTH 17 0
BBX 14 16 1 -1
BITMAP
0700
0380
0380
0380
039C
03F0
0380
0380
0380
0380
0380
7F80
C3E0
C3B8
C70C
7C00
ENDCHAR
STARTCHAR 3089
ENCODING 12425
SWIDTH 1020 0
DWIDTH 17 0
BBX 12 16 3 -1
BITMAP
1C00
0E00
0E00
0F80
1C00
6000
C000
C000
CFC0
DC60
E030
C030
C060
00C0
0780
3E00
ENDCHAR
STARTCHAR 308A
ENCODING 12426
SWIDTH 1020 0
DWIDTH 17 0
BBX 11 17 2 -2
BITMAP
C000
6F80
6F80
68C0
6860
7060
7060
6060
6060
6060
6060
00C0
00C0
0380
0700
0E00
1800
ENDCHAR
STARTCHAR 308B
ENCODING 12427
SWIDTH 1020 0
DWIDTH 17 0
BBX 13 15 2 -1
BITMAP
37C0
37C0
1EC0
0380
0700
0E00
1FC0
3860
6030
C018
0018
1E18
3730
33E0
1F80
ENDCHAR
STARTCHAR 308C
ENCODING 12428
SWIDTH 1020 0
DWIDTH 17 0
BBX 17 16 0 -1
BITMAP
180000
0C0000
0C0000
0C0000
0CF000
0DD800
DD9800
761800
0C1800
0C1800
1C1800
1C1800
341980
6C1B00
DC0E00
0C0000
ENDCHAR
STARTCHAR 308D
ENCODING 12429
SWIDTH 1020 0
DWIDTH 17 0
BBX 13 15 2 -1
BITMAP
37C0
37C0
1EC0
0380
0700
0E00
1FE0
3830
6018
C018
0018
0030
0060
03C0
1F00
ENDCHAR
STARTCHAR 308E
ENCODING 12430
SWIDTH 1020 0
DWIDTH 17 0
BBX 12 12 2 -2
BITMAP
6000
3000
3000
3BC0
F660
3830
3030
7030
D060
33C0
3000
3000
ENDCHAR
STARTCHAR 308F
ENCODING 12431
SWIDTH 1020 0
DWIDTH 17 0
BBX 16 16 0 -1
BITMAP
3000
1800
1800
1800
1A00
DC00
79F8
1B8C
1C06
1803
3803
3806
6806
D81C
38F0
1800
ENDCHAR
STARTCHAR 3090
ENCODING 12432
SWIDTH 1020 0
DWIDTH 17 0
BBX 16 15 0 -1
BITMAP
18E0
18E0
0FE0
01C0
01C0
03F0
0F9C
1B86
3383
6603
C603
CCFB
D9CE
71CD
00F8
ENDCHAR
STARTCHAR 3091
ENCODING 12433
SWIDTH 1020 0
DWIDTH 17 0
BBX 15 15 0 -1
BITMAP
1BF0
1BF0
0EC0
0380
07E0
0C30
1818
3618
0DB0
0DE0
07C0
0C00
1EF8
73CC
C01E
ENDCHAR
STARTCHAR 3092
ENCODING 12434
SWIDTH 1020 0
DWIDTH 17 0
BBX 15 16 1 -1
BITMAP
0C00
0700
0700
67E0
3F00
0C18
0C0E
1FB8
31E0
63C0
C740
0DC0
19C0
1800
0C00
07F8
ENDCHAR
STARTCHAR 3093
ENCODING 12435
SWIDTH 1020 0
DWIDTH 17 0
BBX 16 16 1 -1
BITMAP
0700
0380
0380
0380
0700
0700
0C00
0C00
1B80
1DC0
39C0
31C0
61C3
61C6
C06C
C038
ENDCHAR
STARTCHAR 309B
ENCODING 12443
SWIDTH 1020 0
DWIDTH 17 0
BBX 5 5 0 10
BITMAP
30
D8
D8
68
60
ENDCHAR
STARTCHAR 309C
ENCODING 12444
SWIDTH 1020 0
DWIDTH 17 0
BBX 4 5 0 9
BITMAP
E0
E0
B0
B0
E0
ENDCHAR
STARTCHAR 309D
ENCODING 12445
SWIDTH 1020 0
DWIDTH 17 0
BBX 10 8 3 2
BITMAP
E000
3C00
0E00
0700
0180
07C0
0E00
1C00
ENDCHAR
STARTCHAR 309E
ENCODING 12446
SWIDTH 1020 0
DWIDTH 17 0
BBX 11 10 3 2
BITMAP
00C0
0760
E1A0
3D80
0E00
0700
0180
07C0
0E00
1C00
ENDCHAR
STARTCHAR 30A1
ENCODING 12449
SWIDTH 1020 0
DWIDTH 17 0
BBX 11 9 2 -1
BITMAP
C7E0
7E60
00C0
0F80
0E00
0E00
0E00
1800
3000
ENDCHAR
STARTCHAR 30A2
ENCODING 12450
SWIDTH 1020 0
DWIDTH 17 0
BBX 14 13 1 -1
BITMAP
C1FC
7F8C
0018
0C30
0760
07C0
0700
0700
0700
0C00
0C00
1800
3000
ENDCHAR
STARTCHAR 30A3
ENCODING 12451
SWIDTH 1020 0
DWIDTH 17 0
BBX 10 11 3 -1
BITMAP
00C0
00C0
0180
0700
0E00
3D00
E700
0700
0700
0700
0700
ENDCHAR
STARTCHAR 30A4
ENCODING 12452
SWIDTH 1020 0
DWIDTH 17 0
BBX 12 15 1 -1
BITMAP
0030
0030
0030
0060
01C0
0380
0780
0DC0
39C0
E1C0
01C0
01C0
01C0
01C0
01C0
ENDCHAR
STARTCHAR 30A5
ENCODING 12453
SWIDTH 1020 0
DWIDTH 17 0
BBX 11 11 3 -1
BITMAP
0E00
0E00
0E00
CFE0
7E60
6060
60C0
60C0
0180
0700
0E00
ENDCHAR
STARTCHAR 30A6
ENCODING 12454
SWIDTH 1020 0
DWIDTH 17 0
BBX 13 15 2 -1
BITMAP
0E00
0E00
0700
0700
C7F8
FE18
6018
6030
6030
6060
0060
00C0
0380
0700
0E00
ENDCHAR
STARTCHAR 30A7
ENCODING 12455
SWIDTH 1020 0
DWIDTH 17 0
BBX 11 7 2 -1
BITMAP
0FC0
7E00
0E00
0E00
0E00
1FC0
F060
ENDCHAR
STARTCHAR 30A8
ENCODING 12456
SWIDTH 1020 0
DWIDTH 17 0
BBX 16 10 0 1
BITMAP
003C
3FE0
0380
01C0
01C0
01C0
01C0
01C0
07FE
FC03
ENDCHAR
STARTCHAR 30A9
ENCODING 12457
SWIDTH 1020 0
DWIDTH 17 0
BBX 11 11 3 -2
BITMAP
0700
0700
C7E0
7F00
0F00
1D00
3700
6700
C700
0F00
0700
ENDCHAR
STARTCHAR 30AA
ENCODING 12458
SWIDTH 1020 0
DWIDTH 17 0
BBX 14 15 2 -1
BITMAP
00C0
00C0
00C0
C0FC
7FC0
00C0
03C0
03C0
0740
0EC0
18C0
30C0
E0C0
03C0
00C0
ENDCHAR
STARTCHAR 30AB
ENCODING 12459
SWIDTH 1020 0
DWIDTH 17 0
BBX 14 15 1 -1
BITMAP
0700
0700
0380
0380
63FC
3F8C
038C
070C
070C
0C18
0C18
1818
31D0
6070
C060
ENDCHAR
STARTCHAR 30AC
ENCODING 12460
SWIDTH 1020 0
DWIDTH 17 0
BBX 16 16 1 -1
BITMAP
0006
071B
071B
038D
038C
63FC
3F8C
038C
070C
070C
0C18
0C18
1818
31D0
6070
C060
ENDCHAR
STARTCHAR 30AD
ENCODING 12461
SWIDTH 1020 0
DWIDTH 17 0
BBX 15 15 1 -1
BITMAP
0C00
0C00
0700
0738
07E0
7D80
0380
039E
03F0
0F40
F9C0
01C0
0060
0060
0060
ENDCHAR
STARTCHAR 30AE
ENCODING 12462
SWIDTH 1020 0
DWIDTH 17 0
BBX 15 15 1 -1
BITMAP
0C0C
0C0C
0736
073A
07E8
7D80
0380
039E
03F0
0F40
F9C0
01C0
0060
0060
0060
ENDCHAR
STARTCHAR 30AF
ENCODING 12463
SWIDTH 1020 0
DWIDTH 17 0
BBX 12 15 2 -1
BITMAP
1800
1800
0E70
0FD0
0E30
1830
1860
3060
60C0
C0C0
0380
0700
0E00
1800
3000
ENDCHAR
STARTCHAR 30B0
ENCODING 12464
SWIDTH 1020 0
DWIDTH 17 0
BBX 16 16 1 -1
BITMAP
0006
181B
181B
0C75
0FD4
0C30
1830
1860
3060
61C0
C1C0
0380
0700
0C00
1800
3000
ENDCHAR
STARTCHAR 30B1
ENCODING 12465
SWIDTH 1020 0
DWIDTH 17 0
BBX 15 15 1 -1
BITMAP
3000
3000
1800
183E
1FE0
19C0
3060
3060
6060
C1C0
01C0
0380
0700
0C00
1800
ENDCHAR
STARTCHAR 30B2
ENCODING 12466
SWIDTH 1020 0
DWIDTH 17 0
BBX 16 16 1 -1
BITMAP
0006
301B
301B
180D
183C
1FE0
19C0
3060
3060
6060
C1C0
01C0
0380
0700
0C00
1800
ENDCHAR
STARTCHAR 30B3
ENCODING 12467
SWIDTH 1020 0
DWIDTH 17 0
BBX 13 10 1 1
BITMAP
C3F8
7F18
0018
0018
0018
0030
0030
0030
0FF0
7830
ENDCHAR
STARTCHAR 30B4
ENCODING 12468
SWIDTH 1020 0
DWIDTH 17 0
BBX 16 14 1 1
BITMAP
0006
001B
001B
000D
C3FC
7F18
0018
0018
0018
0030
0030
0030
0FF0
7830
ENDCHAR
STARTCHAR 30B5
ENCODING 12469
SWIDTH 1020 0
DWIDTH 17 0
BBX 15 16 1 -1
BITMAP
0060
1830
1830
0C30
0C30
CDFE
7FB0
0C30
0C30
0C30
0C30
0060
0060
01C0
0380
0700
ENDCHAR
STARTCHAR 30B6
ENCODING 12470
SWIDTH 1020 0
DWIDTH 17 0
BBX 16 16 1 -1
BITMAP
0066
183B
183B
0C35
0C34
CDFE
7FB0
0C30
0C30
0C30
0C30
0060
0060
01C0
0380
0700
ENDCHAR
STARTCHAR 30B7
ENCODING 12471
SWIDTH 1020 0
DWIDTH 17 0
BBX 14 13 2 -1
BITMAP
7000
1800
0000
0000
E00C
3018
0030
0060
00C0
0380
0700
DE00
7000
ENDCHAR
STARTCHAR 30B8
ENCODING 12472
SWIDTH 1020 0
DWIDTH 17 0
BBX 15 16 2 -1
BITMAP
000C
0036
0036
701A
1818
0000
0000
E00C
3018
0030
0060
00C0
0380
0700
DE00
7000
ENDCHAR
STARTCHAR 30B9
ENCODING 12473
SWIDTH 1020 0
DWIDTH 17 0
BBX 15 12 0 -1
BITMAP
31F0
1FB0
0030
00E0
00E0
01C0
01E0
03B0
0618
0C0C
3806
E006
ENDCHAR
STARTCHAR 30BA
ENCODING 12474
SWIDTH 1020 0
DWIDTH 17 0
BBX 16 15 0 -1
BITMAP
0006
0006
001B
31F5
1FB4
0030
00E0
00E0
01C0
01E0
03B0
0618
0C0C
3806
E006
ENDCHAR
STARTCHAR 30BB
ENCODING 12475
SWIDTH 1020 0
DWIDTH 17 0
BBX 15 14 1 0
BITMAP
1800
1800
0C00
0C00
0C3E
0DE6
CF0C
7C18
0C30
0C60
0C00
0C00
0700
03FC
ENDCHAR
STARTCHAR 30BC
ENCODING 12476
SWIDTH 1020 0
DWIDTH 17 0
BBX 17 15 0 0
BITMAP
000300
180D80
180D80
0C0680
0C0600
0C3E00
0DE600
CE0C00
7C1800
0C3000
0CE000
0C0000
0C0000
060000
03FC00
ENDCHAR
STARTCHAR 30BD
ENCODING 12477
SWIDTH 1020 0
DWIDTH 17 0
BBX 13 15 2 -1
BITMAP
0030
0030
C018
6018
3018
3030
3030
0060
0060
00C0
0380
0700
0E00
1800
3000
ENDCHAR
STARTCHAR 30BE
ENCODING 12478
SWIDTH 1020 0
DWIDTH 17 0
BBX 16 16 1 -1
BITMAP
0006
006B
006B
C035
6034
3030
3060
3060
0060
01C0
01C0
0380
0700
0C00
1800
3000
ENDCHAR
STARTCHAR 30BF
ENCODING 12479
SWIDTH 1020 0
DWIDTH 17 0
BBX 13 15 1 -1
BITMAP
1800
1800
0C78
0FD8
0C18
1830
1830
37A0
61E0
C1C0
0380
0700
0C00
3800
E000
ENDCHAR
STARTCHAR 30C0
ENCODING 12480
SWIDTH 1020 0
DWIDTH 17 0
BBX 17 16 0 -1
BITMAP
000300
0C0D80
0C0D80
060680
07FA00
061800
0C1800
183000
37B000
61E000
C1C000
038000
060000
0C0000
380000
E00000
ENDCHAR
STARTCHAR 30C1
ENCODING 12481
SWIDTH 1020 0
DWIDTH 17 0
BBX 15 15 1 -1
BITMAP
0030
0030
01E0
3F80
0380
01C0
01FE
CFC0
79C0
01C0
01C0
0380
0380
0700
0C00
ENDCHAR
STARTCHAR 30C2
ENCODING 12482
SWIDTH 1020 0
DWIDTH 17 0
BBX 16 16 1 -1
BITMAP
0006
003B
003B
01ED
3F8C
0380
01C0
01FE
CFC0
79C0
01C0
01C0
0380
0380
0700
0C00
ENDCHAR
STARTCHAR 30C3
ENCODING 12483
SWIDTH 1020 0
DWIDTH 17 0
BBX 11 9 2 -1
BITMAP
18C0
CE60
6E60
60C0
00C0
0380
0700
0E00
1800
ENDCHAR
STARTCHAR 30C4
ENCODING 12484
SWIDTH 1020 0
DWIDTH 17 0
BBX 14 13 1 -1
BITMAP
0C18
C70C
638C
338C
3398
3018
0030
0030
0060
01C0
0380
0700
1C00
ENDCHAR
STARTCHAR 30C5
ENCODING 12485
SWIDTH 1020 0
DWIDTH 17 0
BBX 17 16 0 -1
BITMAP
000300
000D80
000D80
0C0680
C61A00
638C00
338C00
339800
301800
003000
003000
00E000
01C000
038000
060000
1C0000
ENDCHAR
STARTCHAR 30C6
ENCODING 12486
SWIDTH 1020 0
DWIDTH 17 0
BBX 15 13 1 -1
BITMAP
31F0
1F80
0000
0000
007E
C7C0
7DC0
01C0
0380
0380
0700
0C00
1800
ENDCHAR
STARTCHAR 30C7
ENCODING 12487
SWIDTH 1020 0
DWIDTH 17 0
BBX 15 16 1 -1
BITMAP
000C
0036
0036
31FA
1F98
0000
0000
007E
C7C0
7DC0
01C0
0380
0380
0700
0C00
1800
ENDCHAR
STARTCHAR 30C8
ENCODING 12488
SWIDTH 1020 0
DWIDTH 17 0
BBX 10 16 4 -2
BITMAP
C000
C000
6000
6000
6000
6000
7C00
6F00
6180
60C0
6000
6000
6000
6000
6000
6000
ENDCHAR
STARTCHAR 30C9
ENCODING 12489
SWIDTH 1020 0
DWIDTH 17 0
BBX 12 16 4 -2
BITMAP
C060
C060
61B0
60D0
60C0
6000
7C00
6F00
6180
60C0
6000
6000
6000
6000
6000
6000
ENDCHAR
STARTCHAR 30CA
ENCODING 12490
SWIDTH 1020 0
DWIDTH 17 0
BBX 15 15 1 -1
BITMAP
0380
0380
01C0
01C0
01C0
C1FE
7FC0
01C0
01C0
01C0
0380
0380
0700
0C00
1800
ENDCHAR
STARTCHAR 30CB
ENCODING 12491
SWIDTH 1020 0
DWIDTH 17 0
BBX 15 9 1 1
BITMAP
31F0
1F80
0000
0000
0000
0000
0000
03FC
FF06
ENDCHAR
STARTCHAR 30CC
ENCODING 12492
SWIDTH 1020 0
DWIDTH 17 0
BBX 14 13 1 -1
BITMAP
31F8
1F98
0018
0030
1C30
07A0
01C0
01E0
03B0
0718
0C0C
3800
E000
ENDCHAR
STARTCHAR 30CD
ENCODING 12493
SWIDTH 1020 0
DWIDTH 17 0
BBX 15 16 1 -1
BITMAP
0700
0380
0380
0380
63F8
3F18
0030
0060
01C0
07B0
1D9C
F386
0380
0380
0380
0380
ENDCHAR
STARTCHAR 30CE
ENCODING 12494
SWIDTH 1020 0
DWIDTH 17 0
BBX 11 15 3 -1
BITMAP
00C0
00C0
0060
0060
0060
00C0
00C0
0180
0180
0700
0E00
1C00
3000
6000
C000
ENDCHAR
STARTCHAR 30CF
ENCODING 12495
SWIDTH 1020 0
DWIDTH 17 0
BBX 16 10 0 0
BITMAP
00E0
0C30
0618
060C
0C0C
0C06
1806
3003
6003
C003
ENDCHAR
STARTCHAR 30D0
ENCODING 12496
SWIDTH 1020 0
DWIDTH 17 0
BBX 16 14 0 0
BITMAP
0006
0006
001B
000D
0CEC
0630
0618
0C0C
0C0C
1806
1806
3003
6003
C003
ENDCHAR
STARTCHAR 30D1
ENCODING 12497
SWIDTH 1020 0
DWIDTH 17 0
BBX 16 14 0 0
BITMAP
000E
000E
001B
001B
0CEE
0630
0618
0C0C
0C0C
1806
1806
3003
6003
C003
ENDCHAR
STARTCHAR 30D2
ENCODING 12498
SWIDTH 1020 0
DWIDTH 17 0
BBX 13 14 1 0
BITMAP
C000
C000
6000
6000
6000
6070
67C0
7C00
6000
6000
6000
6000
3000
1FF8
ENDCHAR
STARTCHAR 30D3
ENCODING 12499
SWIDTH 1020 0
DWIDTH 17 0
BBX 15 14 1 0
BITMAP
C00C
C00C
6036
601A
6018
61E0
6780
7C00
6000
6000
6000
6000
3000
1FF8
ENDCHAR
STARTCHAR 30D4
ENCODING 12500
SWIDTH 1020 0
DWIDTH 17 0
BBX 15 14 0 0
BITMAP
C01C
C01C
6036
6036
601C
61E0
6780
7C00
6000
6000
6000
6000
3000
1FF8
ENDCHAR
STARTCHAR 30D5
ENCODING 12501
SWIDTH 1020 0
DWIDTH 17 0
BBX 14 13 1 -1
BITMAP
C1FC
7F8C
000C
0018
0018
0030
0030
0060
01C0
0380
0700
0C00
3800
ENDCHAR
STARTCHAR 30D6
ENCODING 12502
SWIDTH 1020 0
DWIDTH 17 0
BBX 17 16 0 -1
BITMAP
000300
000D80
000D80
C1FA80
7F9A00
001800
003000
003000
00E000
00E000
01C000
038000
060000
0C0000
180000
700000
ENDCHAR
STARTCHAR 30D7
ENCODING 12503
SWIDTH 1020 0
DWIDTH 17 0
BBX 16 16 1 -1
BITMAP
000E
001B
001B
C1FB
7F9E
0018
0030
0030
0060
0060
01C0
0380
0700
0C00
1800
7000
ENDCHAR
STARTCHAR 30D8
ENCODING 12504
SWIDTH 1020 0
DWIDTH 17 0
BBX 17 8 0 2
BITMAP
038000
06C000
0CE000
183000
D01800
600C00
000600
000380
ENDCHAR
STARTCHAR 30D9
ENCODING 12505
SWIDTH 1020 0
DWIDTH 17 0
BBX 17 10 0 2
BITMAP
000600
001B00
038D00
06CC00
0CE000
183000
D01800
600C00
000600
000380
ENDCHAR
STARTCHAR 30DA
ENCODING 12506
SWIDTH 1020 0
DWIDTH 17 0
BBX 17 10 0 2
BITMAP
000E00
001B00
039B00
06CE00
0CE000
183000
D01800
600C00
000600
000380
ENDCHAR
STARTCHAR 30DB
ENCODING 12507
SWIDTH 1020 0
DWIDTH 17 0
BBX 15 15 1 -1
BITMAP
0700
0700
0380
0380
C3FC
7F80
0380
03B0
1B98
1B8C
3386
3386
6380
C780
0380
ENDCHAR
STARTCHAR 30DC
ENCODING 12508
SWIDTH 1020 0
DWIDTH 17 0
BBX 16 16 1 -1
BITMAP
0006
071B
071B
038D
038C
C3FC
7F80
0380
03B0
1B98
1B8C
3386
3386
6380
C780
0380
ENDCHAR
STARTCHAR 30DD
ENCODING 12509
SWIDTH 1020 0
DWIDTH 17 0
BBX 16 15 1 0
BITMAP
070E
039B
039B
039B
C3FE
7F80
0380
03B0
1B98
1B8C
3386
3386
6380
C780
0380
ENDCHAR
STARTCHAR 30DE
ENCODING 12510
SWIDTH 1020 0
DWIDTH 17 0
BBX 14 11 1 0
BITMAP
C1FC
7F8C
0018
0018
0030
3860
0F40
0380
01C0
0060
0060
ENDCHAR
STARTCHAR 30DF
ENCODING 12511
SWIDTH 1020 0
DWIDTH 17 0
BBX 11 16 2 -2
BITMAP
3800
3800
0F00
03C0
0060
0000
3800
0F00
0380
00C0
C000
7000
1E00
0780
00C0
0060
ENDCHAR
STARTCHAR 30E0
ENCODING 12512
SWIDTH 1020 0
DWIDTH 17 0
BBX 15 15 1 -1
BITMAP
0700
0700
0380
0380
0380
0380
0760
0730
0718
0C18
0C7C
DBCC
7C06
0006
0006
ENDCHAR
STARTCHAR 30E1
ENCODING 12513
SWIDTH 1020 0
DWIDTH 17 0
BBX 13 15 2 -1
BITMAP
0060
0060
0030
0030
0030
3860
0F60
03C0
00E0
00D0
0398
0700
0E00
3800
E000
ENDCHAR
STARTCHAR 30E2
ENCODING 12514
SWIDTH 1020 0
DWIDTH 17 0
BBX 15 12 0 0
BITMAP
31F8
1F80
0600
0600
0600
C7FE
7E00
0600
0600
0600
0380
01FC
ENDCHAR
STARTCHAR 30E3
ENCODING 12515
SWIDTH 1020 0
DWIDTH 17 0
BBX 13 11 1 -2
BITMAP
3000
1800
19F8
0F98
DC30
7460
0700
0700
0380
0380
0380
ENDCHAR
STARTCHAR 30E4
ENCODING 12516
SWIDTH 1020 0
DWIDTH 17 0
BBX 15 15 1 -1
BITMAP
3000
3000
1800
181E
0DF6
DF0C
7418
0730
0760
0380
0380
0380
01C0
01C0
01C0
ENDCHAR
STARTCHAR 30E5
ENCODING 12517
SWIDTH 1020 0
DWIDTH 17 0
BBX 13 6 1 0
BITMAP
07C0
3DC0
01C0
0380
07F0
FC18
ENDCHAR
STARTCHAR 30E6
ENCODING 12518
SWIDTH 1020 0
DWIDTH 17 0
BBX 15 9 1 1
BITMAP
31F0
1FB0
0030
0030
0060
0060
0060
0FFC
F806
ENDCHAR
STARTCHAR 30E7
ENCODING 12519
SWIDTH 1020 0
DWIDTH 17 0
BBX 10 9 3 -1
BITMAP
0FC0
FCC0
00C0
00C0
0F80
7D80
0180
0F80
FCC0
ENDCHAR
STARTCHAR 30E8
ENCODING 12520
SWIDTH 1020 0
DWIDTH 17 0
BBX 12 12 2 0
BITMAP
0FF0
F830
0030
0030
0030
07E0
7E60
0060
0060
0060
07E0
FE30
ENDCHAR
STARTCHAR 30E9
ENCODING 12521
SWIDTH 1020 0
DWIDTH 17 0
BBX 14 15 1 -1
BITMAP
63F0
63F0
3F00
0000
0000
007C
CFCC
780C
0018
0018
0030
0060
01C0
0780
1C00
ENDCHAR
STARTCHAR 30EA
ENCODING 12522
SWIDTH 1020 0
DWIDTH 17 0
BBX 10 16 3 -1
BITMAP
0180
C0C0
C0C0
60C0
60C0
60C0
60C0
60C0
60C0
60C0
60C0
0180
0180
0700
0E00
1C00
ENDCHAR
STARTCHAR 30EB
ENCODING 12523
SWIDTH 1020 0
DWIDTH 17 0
BBX 16 15 1 -1
BITMAP
0380
0380
01C0
31C0
19C0
19C3
19C3
19C6
19C6
19CC
19D8
31D0
31E0
61C0
C000
ENDCHAR
STARTCHAR 30EC
ENCODING 12524
SWIDTH 1020 0
DWIDTH 17 0
BBX 12 15 3 -1
BITMAP
C000
C000
6000
6000
6000
6000
6000
6000
6030
6060
60C0
6180
6F00
7C00
6000
ENDCHAR
STARTCHAR 30ED
ENCODING 12525
SWIDTH 1020 0
DWIDTH 17 0
BBX 14 12 1 0
BITMAP
C000
63FC
7F0C
600C
300C
300C
3018
3018
3018
33F8
3F0C
3000
ENDCHAR
STARTCHAR 30EE
ENCODING 12526
SWIDTH 1020 0
DWIDTH 17 0
BBX 11 9 3 -1
BITMAP
C7E0
7E60
6060
60C0
60C0
0180
0700
0E00
1C00
ENDCHAR
STARTCHAR 30EF
ENCODING 12527
SWIDTH 1020 0
DWIDTH 17 0
BBX 14 12 1 -1
BITMAP
C1FC
7F8C
600C
300C
3018
3018
3030
0030
0060
01C0
0380
0700
ENDCHAR
STARTCHAR 30F0
ENCODING 12528
SWIDTH 1020 0
DWIDTH 17 0
BBX 16 15 0 -1
BITMAP
01C0
01C0
00E0
00E0
61FE
3FA0
18E0
18E0
0CE0
0DFE
FFA3
00E0
00E0
00E0
00E0
ENDCHAR
STARTCHAR 30F1
ENCODING 12529
SWIDTH 1020 0
DWIDTH 17 0
BBX 15 10 0 1
BITMAP
31FC
1F98
0030
03A0
0380
0380
0380
0380
03FC
FE06
ENDCHAR
STARTCHAR 30F2
ENCODING 12530
SWIDTH 1020 0
DWIDTH 17 0
BBX 12 12 3 0
BITMAP
C1F0
7F30
0030
0030
07E0
7E60
00C0
00C0
0180
0700
1E00
F000
ENDCHAR
STARTCHAR 30F3
ENCODING 12531
SWIDTH 1020 0
DWIDTH 17 0
BBX 14 12 2 -1
BITMAP
E000
300C
180C
0018
0018
0030
0060
00C0
0380
0700
DE00
7000
ENDCHAR
STARTCHAR 30F4
ENCODING 12532
SWIDTH 1020 0
DWIDTH 17 0
BBX 15 16 2 -1
BITMAP
000C
0E36
0E36
071A
0718
C7F8
FE18
6018
6030
6030
6060
0060
00C0
0380
0700
0E00
ENDCHAR
STARTCHAR 30F5
ENCODING 12533
SWIDTH 1020 0
DWIDTH 17 0
BBX 11 11 2 -1
BITMAP
0E00
0E00
0E00
CFE0
7E60
0E60
1860
18C0
30C0
6740
C380
ENDCHAR
STARTCHAR 30F6
ENCODING 12534
SWIDTH 1020 0
DWIDTH 17 0
BBX 11 11 3 -1
BITMAP
6000
3000
31E0
3F00
3180
6180
C700
0700
0E00
1C00
3000
ENDCHAR
STARTCHAR 30FB
ENCODING 12539
SWIDTH 1020 0
DWIDTH 17 0
BBX 4 2 6 5
BITMAP
F0
F0
ENDCHAR
STARTCHAR 30FC
ENCODING 12540
SWIDTH 1020 0
DWIDTH 17 0
BBX 15 2 0 5
BITMAP
C1FE
7F80
ENDCHAR
STARTCHAR 30FD
ENCODING 12541
SWIDTH 1020 0
DWIDTH 17 0
BBX 10 6 3 3
BITMAP
E000
3C00
0E00
0700
0180
00C0
ENDCHAR
STARTCHAR 30FE
ENCODING 12542
SWIDTH 1020 0
DWIDTH 17 0
BBX 10 9 3 3
BITMAP
0180
0EC0
0740
E700
3C00
0E00
0700
0180
00C0
ENDCHAR
STARTCHAR 4E00
ENCODING 19968
SWIDTH 1020 0
DWIDTH 17 0
BBX 17 2 0 6
BITMAP
000300
FFFF80
ENDCHAR
STARTCHAR 4E01
ENCODING 19969
SWIDTH 1020 0
DWIDTH 17 0
BBX 17 14 0 -2
BITMAP
FFFF80
01C000
01C000
01C000
01C000
01C000
01C000
01C000
01C000
01C000
01C000
01C000
01C000
03C000
ENDCHAR
STARTCHAR 4E03
ENCODING 19971
SWIDTH 1020 0
DWIDTH 17 0
BBX 16 16 0 -1
BITMAP
0C00
0C00
0C00
0C00
0C00
0C07
0CFC
0FC0
FC00
0C00
0C00
0C00
0C06
0C06
0606
03FE
ENDCHAR
STARTCHAR 4E07
ENCODING 19975
SWIDTH 1020 0
DWIDTH 17 0
BBX 16 16 0 -2
BITMAP
FFFF
FFFF
0380
0380
0380
03FC
038C
038C
060C
060C
060C
0C0C
0C0C
180C
3018
60F0
ENDCHAR
STARTCHAR 4E08
ENCODING 19976
SWIDTH 1020 0
DWIDTH 17 0
BBX 17 17 0 -2
BITMAP
00E000
00E000
00E000
00E000
7FFF80
00E000
0CE000
0CE000
06E000
06C000
03C000
01C000
03A000
063000
0C1800
380E00
E00380
ENDCHAR
STARTCHAR 4E09
ENCODING 19977
SWIDTH 1020 0
DWIDTH 17 0
BBX 17 14 0 0
BITMAP
3FFE00
3FFE00
000000
000000
000000
000000
000000
1FFC00
000000
000000
000000
000000
000000
FFFF80
ENDCHAR
STARTCHAR 4E0A
ENCODING 19978
SWIDTH 1020 0
DWIDTH 17 0
BBX 17 16 0 -1
BITMAP
01C000
01C000
01C000
01C000
01C000
01C000
01C000
01FE00
01C000
01C000
01C000
01C000
01C000
01C000
01C000
FFFF80
ENDCHAR
STARTCHAR 4E0B
ENCODING 19979
SWIDTH 1020 0
DWIDTH 17 0
BBX 17 16 0 -2
BITMAP
FFFF80
FFFF80
01C000
01C000
01C000
01E000
01D000
01D800
01CC00
01CC00
01C000
01C000
01C000
01C000
01C000
01C000
ENDCHAR
STARTCHAR 4E0D
ENCODING 19981
SWIDTH 1020 0
DWIDTH 17 0
BBX 17 16 0 -2
BITMAP
FFFF80
FFFF80
00E000
00E000
01C000
01E000
03D800
06CC00
0DC600
39C300
E1C180
01C000
01C000
01C000
01C000
01C000
ENDCHAR
STARTCHAR 4E0E
ENCODING 19982
SWIDTH 1020 0
DWIDTH 17 0
BBX 17 17 0 -2
BITMAP
060000
060000
060000
07FE00
060000
060000
07F800
001800
001800
FFFF80
001800
001800
001800
001800
001800
00F000
03C000
ENDCHAR
STARTCHAR 4E10
ENCODING 19984
SWIDTH 1020 0
DWIDTH 17 0
BBX 17 16 0 -2
BITMAP
FFFF80
FFFF80
01C000
19C000
19FF00
19C000
19C000
1FFE00
000600
000600
000600
000600
000600
000C00
000C00
003800
ENDCHAR
STARTCHAR 4E11
ENCODING 19985
SWIDTH 1020 0
DWIDTH 17 0
BBX 17 15 0 -1
BITMAP
3FF800
3FF800
061800
061800
061800
061800
061800
FFFF00
0C1800
0C1800
0C1800
0C1800
0C1800
0C1800
FFFF80
ENDCHAR
STARTCHAR 4E14
ENCODING 19988
SWIDTH 1020 0
DWIDTH 17 0
BBX 16 15 0 -1
BITMAP
1FF8
1FF8
1818
1818
1818
1FF8
1818
1818
1818
1FF8
1818
1818
1818
1818
FFFF
ENDCHAR
STARTCHAR 4E15
ENCODING 19989
SWIDTH 1020 0
DWIDTH 17 0
BBX 17 15 0 -1
BITMAP
7FFF00
7FFF00
00E000
00E000
01C000
03C000
06D800
0DCE00
39C300
E1C180
01C000
01C000
01C000
000000
7FFF00
ENDCHAR
STARTCHAR 4E16
ENCODING 19990
SWIDTH 1020 0
DWIDTH 17 0
BBX 17 15 0 -1
BITMAP
19CC00
19CC00
19CC00
19CC00
19CC00
FFFF80
19CC00
19CC00
19CC00
19CC00
19FC00
180000
180000
180000
1FFF00
ENDCHAR
STARTCHAR 4E17
ENCODING 19991
SWIDTH 1020 0
DWIDTH 17 0
BBX 17 16 0 -1
BITMAP
19CC00
19CC00
19CC00
19CC00
19CC00
19CC00
19CC00
FFFF80
19CC00
19CC00
19CC00
19CC00
19CC00
19CC00
19CC00
1FFC00
ENDCHAR
STARTCHAR 4E18
ENCODING 19992
SWIDTH 1020 0
DWIDTH 17 0
BBX 16 16 0 -1
BITMAP
0018
01F0
01F0
1F80
1800
1800
1800
1FFE
1830
1830
1830
1830
1830
1830
1830
FFFF
ENDCHAR
STARTCHAR 4E19
ENCODING 19993
SWIDTH 1020 0
DWIDTH 17 0
BBX 17 16 0 -2
BITMAP
FFFF80
FFFF80
01C000
01C000
3FFE00
31C600
31C600
33A600
363600
3C1A00
300600
300600
300600
300600
300600
300E00
ENDCHAR
STARTCHAR 4E1E
ENCODING 19998
SWIDTH 1020 0
DWIDTH 17 0
BBX 17 15 0 -1
BITMAP
3FFC00
3FFC00
001800
00F000
01C300
7ED300
06D600
0DDC00
0DCC00
19C600
31C300
61C180
C3C000
000000
FFFF00
ENDCHAR
STARTCHAR 4E21
ENCODING 20001
SWIDTH 1020 0
DWIDTH 17 0
BBX 17 16 0 -2
BITMAP
FFFF80
FFFF80
01C000
01C000
01C000
7FFF00
61C300
6DDB00
6DDB00
6DDB00
6DDB00
6FFB00
6C1B00
600300
600300
600700
ENDCHAR
STARTCHAR 4E26
ENCODING 20006
SWIDTH 1020 0
DWIDTH 17 0
BBX 17 16 0 -1
BITMAP
180C00
0C0C00
0C0C00
061800
063000
7FFF00
063000
063000
663300
363300
363600
1A3600
1A3400
063000
063000
FFFF80
ENDCHAR
STARTCHAR 4E2A
ENCODING 20010
SWIDTH 1020 0
DWIDTH 17 0
BBX 17 17 0 -2
BITMAP
01C000
01C000
01C000
03A000
03A000
063000
0C1800
19CC00
31C600
61C300
C1C180
01C000
01C000
01C000
01C000
01C000
01C000
ENDCHAR
STARTCHAR 4E2D
ENCODING 20013
SWIDTH 1020 0
DWIDTH 17 0
BBX 15 17 1 -2
BITMAP
0380
0380
0380
0380
FFFE
C386
C386
C386
C386
C386
FFFE
0380
0380
0380
0380
0380
0380
ENDCHAR
STARTCHAR 4E31
ENCODING 20017
SWIDTH 1020 0
DWIDTH 17 0
BBX 15 17 1 -2
BITMAP
0C60
0C60
0C60
CC66
CC66
CC66
CC66
CC66
CC66
CC66
CC66
FC7E
0C60
1860
1860
3060
6060
ENDCHAR
STARTCHAR 4E32
ENCODING 20018
SWIDTH 1020 0
DWIDTH 17 0
BBX 15 17 1 -2
BITMAP
0380
0380
0380
7FFC
638C
638C
7FFC
0380
0380
FFFE
C386
C386
FFFE
0380
0380
0380
0380
ENDCHAR
STARTCHAR 4E36
ENCODING 20022
SWIDTH 1020 0
DWIDTH 17 0
BBX 10 8 3 3
BITMAP
E000
3C00
0E00
0700
0180
0180
00C0
00C0
ENDCHAR
STARTCHAR 4E38
ENCODING 20024
SWIDTH 1020 0
DWIDTH 17 0
BBX 16 17 0 -2
BITMAP
0600
0600
0600
0600
0600
FFF8
0618
0618
1A18
0E18
0618
0D98
0DD8
19DB
301B
601B
C00F
ENDCHAR
STARTCHAR 4E39
ENCODING 20025
SWIDTH 1020 0
DWIDTH 17 0
BBX 17 16 0 -2
BITMAP
1FFC00
1FFC00
180C00
1A0C00
1B8C00
19CC00
19CC00
180C00
FFFF80
180C00
180C00
180C00
300C00
300C00
600C00
C01C00
ENDCHAR
STARTCHAR 4E3B
ENCODING 20027
SWIDTH 1020 0
DWIDTH 17 0
BBX 17 16 0 -1
BITMAP
038000
01C000
01C000
01C000
7FFF00
01C000
01C000
01C000
01C000
3FFE00
01C000
01C000
01C000
01C000
01C000
FFFF80
ENDCHAR
STARTCHAR 4E3C
ENCODING 20028
SWIDTH 1020 0
DWIDTH 17 0
BBX 16 17 0 -2
BITMAP
0C30
0C30
0C30
0C30
0C30
7FFE
0C30
0DB0
0DD0
0DD0
FFFF
0C30
0C30
0C30
1830
1830
3030
ENDCHAR
STARTCHAR 4E3F
ENCODING 20031
SWIDTH 1020 0
DWIDTH 17 0
BBX 10 17 1 -2
BITMAP
01C0
01C0
01C0
01C0
01C0
01C0
01C0
01C0
01C0
01C0
01C0
0380
0380
0700
0C00
3800
E000
ENDCHAR
STARTCHAR 4E42
ENCODING 20034
SWIDTH 1020 0
DWIDTH 17 0
BBX 17 16 0 -2
BITMAP
0C1800
0C1800
0C1800
0C1800
0C1800
0C1800
063000
063000
03A000
03A000
01C000
03A000
063000
0C1800
380E00
E00380
ENDCHAR
STARTCHAR 4E43
ENCODING 20035
SWIDTH 1020 0
DWIDTH 17 0
BBX 15 15 0 -1
BITMAP
7FF8
7FF8
0398
0398
0398
0398
039E
0606
0606
0C06
0C06
1806
3006
600C
C038
ENDCHAR
STARTCHAR 4E45
ENCODING 20037
SWIDTH 1020 0
DWIDTH 17 0
BBX 17 17 0 -2
BITMAP
038000
038000
038000
03F800
061800
061800
0C3000
183000
30E000
00E000
01E000
01D000
03B000
061800
0C0C00
380600
E00380
ENDCHAR
STARTCHAR 4E4B
ENCODING 20043
SWIDTH 1020 0
DWIDTH 17 0
BBX 17 17 0 -2
BITMAP
01C000
01C000
01C000
01C000
01C000
3FFE00
000C00
001800
001800
003000
00E000
19C000
1B8000
1E0000
360000
63C000
C0FF80
ENDCHAR
STARTCHAR 4E4D
ENCODING 20045
SWIDTH 1020 0
DWIDTH 17 0
BBX 16 17 0 -2
BITMAP
0C00
0C00
0C00
0C00
0FFF
19C0
19C0
31C0
61FE
C1C0
01C0
01C0
01FE
01C0
01C0
01C0
01C0
ENDCHAR
STARTCHAR 4E4E
ENCODING 20046
SWIDTH 1020 0
DWIDTH 17 0
BBX 17 17 0 -2
BITMAP
000600
003C00
003C00
7FE000
01C600
19C600
0DCC00
0DD800
01C000
FFFF80
01C000
01C000
01C000
01C000
01C000
01C000
03C000
ENDCHAR
STARTCHAR 4E4F
ENCODING 20047
SWIDTH 1020 0
DWIDTH 17 0
BBX 17 17 0 -2
BITMAP
000600
003C00
003C00
FFE000
038000
038000
038000
7FFC00
000C00
001800
003000
18E000
1BC000
3E0000
360000
63C000
C0FF80
ENDCHAR
STARTCHAR 4E55
ENCODING 20053
SWIDTH 1020 0
DWIDTH 17 0
BBX 17 17 0 -2
BITMAP
000600
003C00
003C00
1FE000
18E000
1FFF80
18E000
18E000
1FFF80
18E000
18E000
37FF00
34E300
6CE300
CCE300
0CEE00
00E000
ENDCHAR
STARTCHAR 4E56
ENCODING 20054
SWIDTH 1020 0
DWIDTH 17 0
BBX 17 17 0 -2
BITMAP
000C00
00F800
00F800
3FC000
01C000
01C000
FFFF80
01C000
0DD800
0DDB80
FDDE00
0DD800
0DD980
3DD980
EDCF80
0DC000
01C000
ENDCHAR
STARTCHAR 4E57
ENCODING 20055
SWIDTH 1020 0
DWIDTH 17 0
BBX 17 17 0 -2
BITMAP
001800
1FF000
1FF000
01C000
7FFF00
19CC00
19CC00
FFFF80
19CC00
19CC00
7FFF00
03E000
06D000
0DD800
39CE00
E1C380
01C000
ENDCHAR
STARTCHAR 4E58
ENCODING 20056
SWIDTH 1020 0
DWIDTH 17 0
BBX 17 17 0 -2
BITMAP
000C00
00F800
00F800
3FC000
01C000
FFFF80
01C000
0DDB00
FDDE00
0DD980
3DD980
EDEF80
06D000
0DD800
39CE00
E1C380
01C000
ENDCHAR
STARTCHAR 4E59
ENCODING 20057
SWIDTH 1020 0
DWIDTH 17 0
BBX 14 15 1 -1
BITMAP
7FF8
7FF8
0030
01E0
0380
0700
0C00
1800
3000
6000
6000
C00C
C00C
C00C
7FFC
ENDCHAR
STARTCHAR 4E5D
ENCODING 20061
SWIDTH 1020 0
DWIDTH 17 0
BBX 16 16 0 -2
BITMAP
0600
0600
0600
0600
FFF0
0630
0630
0630
0630
0C30
0C30
0C30
1833
3033
601F
C000
ENDCHAR
STARTCHAR 4E5E
ENCODING 20062
SWIDTH 1020 0
DWIDTH 17 0
BBX 16 17 0 -2
BITMAP
0C00
0C00
0C00
0C00
1FFF
1800
3000
6FF8
C0E0
03C0
0600
0C00
1800
3000
3006
3006
1FFE
ENDCHAR
STARTCHAR 4E5F
ENCODING 20063
SWIDTH 1020 0
DWIDTH 17 0
BBX 16 16 0 -1
BITMAP
01C0
19C0
19C0
19C0
19DC
19F4
1FCC
F9CC
19CC
19CC
19CC
19D8
19C3
1803
0C03
07FF
ENDCHAR
STARTCHAR 4E62
ENCODING 20066
SWIDTH 1020 0
DWIDTH 17 0
BBX 16 16 1 -1
BITMAP
31C0
31C0
31C0
31C0
D740
D740
D740
D740
D740
D740
D740
D740
D743
FF43
01C3
007F
ENDCHAR
STARTCHAR 4E71
ENCODING 20081
SWIDTH 1020 0
DWIDTH 17 0
BBX 17 17 0 -2
BITMAP
03B000
0E3000
0E3000
783000
183000
183000
183000
FFD000
183000
183000
183000
7FB000
63B000
63B180
63B180
7FB180
001F80
ENDCHAR
STARTCHAR 4E73
ENCODING 20083
SWIDTH 1020 0
DWIDTH 17 0
BBX 17 17 0 -2
BITMAP
01D000
0FB000
0FB000
F9D000
6DD000
35B000
363000
7FD000
03B000
063000
0C3000
0FF000
FC3000
0C3000
0C3180
0C1980
1C0F80
ENDCHAR
STARTCHAR 4E7E
ENCODING 20094
SWIDTH 1020 0
DWIDTH 17 0
BBX 17 17 0 -2
BITMAP
18E000
18E000
18E000
FFA000
18FF80
7EE000
66C000
66FE00
7F8600
660C00
661800
7E3000
183000
FFE300
18E300
18E300
183F00
ENDCHAR
STARTCHAR 4E80
ENCODING 20096
SWIDTH 1020 0
DWIDTH 17 0
BBX 17 17 0 -2
BITMAP
060000
0FF800
0FF800
183000
3FFC00
E9CC00
1FFC00
19CC00
1FFC00
01C000
3FFE00
31C600
3FFE00
31C600
3FFE80
01C180
00FF80
ENDCHAR
STARTCHAR 4E82
ENCODING 20098
SWIDTH 1020 0
DWIDTH 17 0
BBX 17 17 0 -2
BITMAP
039800
0E1800
0E1800
FDD800
36E800
66E800
FFE800
339800
1A1800
7FE800
6DA800
7EE800
60E980
6FA980
6DA980
66EF80
6DE000
ENDCHAR
STARTCHAR 4E85
ENCODING 20101
SWIDTH 1020 0
DWIDTH 17 0
BBX 4 17 5 -2
BITMAP
70
70
70
70
70
70
70
70
70
70
70
70
70
70
70
70
F0
ENDCHAR
STARTCHAR 4E86
ENCODING 20102
SWIDTH 1020 0
DWIDTH 17 0
BBX 14 16 1 -2
BITMAP
FFFC
FFFC
0018
0030
0060
03C0
0380
0380
0380
0380
0380
0380
0380
0380
0380
0780
ENDCHAR
STARTCHAR 4E88
ENCODING 20104
SWIDTH 1020 0
DWIDTH 17 0
BBX 16 16 0 -2
BITMAP
3FFC
3FFC
0018
0E30
03A0
01C0
FFFF
01C3
01C6
01CC
01C0
01C0
01C0
01C0
01C0
03C0
ENDCHAR
STARTCHAR 4E89
ENCODING 20105
SWIDTH 1020 0
DWIDTH 17 0
BBX 17 17 0 -2
BITMAP
038000
03F000
03F000
063000
0CE000
39C000
3FFC00
01CC00
01CC00
FFFF80
01CC00
01CC00
3FFC00
01C000
01C000
01C000
03C000
ENDCHAR
STARTCHAR 4E8A
ENCODING 20106
SWIDTH 1020 0
DWIDTH 17 0
BBX 17 17 0 -2
BITMAP
01C000
01C000
01C000
7FFF00
19CC00
0DD800
0DC000
3FFE00
01C600
01C600
FFFF80
01C600
01C600
3FFE00
01C000
01C000
03C000
ENDCHAR
STARTCHAR 4E8B
ENCODING 20107
SWIDTH 1020 0
DWIDTH 17 0
BBX 17 17 0 -2
BITMAP
01C000
01C000
01C000
FFFF80
01C000
1FFC00
19CC00
1FFC00
01C000
3FFE00
01C600
FFFF80
01C600
3FFE00
01C000
01C000
03C000
ENDCHAR
STARTCHAR 4E8C
ENCODING 20108
SWIDTH 1020 0
DWIDTH 17 0
BBX 17 12 0 0
BITMAP
3FFE00
000000
000000
000000
000000
000000
000000
000000
000000
000000
000000
FFFF80
ENDCHAR
STARTCHAR 4E8E
ENCODING 20110
SWIDTH 1020 0
DWIDTH 17 0
BBX 17 16 0 -2
BITMAP
3FFE00
3FFE00
01C000
01C000
01C000
01C000
01C000
FFFF80
01C000
01C000
01C000
01C000
01C000
01C000
01C000
03C000
ENDCHAR
STARTCHAR 4E91
ENCODING 20113
SWIDTH 1020 0
DWIDTH 17 0
BBX 16 14 0 -2
BITMAP
3FFC
0000
0000
0000
FFFF
0380
0380
0630
0618
0C0C
19FC
FF86
0006
0006
ENDCHAR
STARTCHAR 4E92
ENCODING 20114
SWIDTH 1020 0
DWIDTH 17 0
BBX 17 15 0 -1
BITMAP
7FFF00
7FFF00
060000
060000
060000
07F800
0C1800
0C1800
0C1800
181800
1FF000
003000
003000
003000
FFFF80
ENDCHAR
STARTCHAR 4E94
ENCODING 20116
SWIDTH 1020 0
DWIDTH 17 0
BBX 17 15 0 -1
BITMAP
7FFF00
7FFF00
01C000
01C000
01C000
01C000
3FFC00
038C00
038C00
038C00
038C00
060C00
060C00
060C00
FFFF80
ENDCHAR
STARTCHAR 4E95
ENCODING 20117
SWIDTH 1020 0
DWIDTH 17 0
BBX 16 17 0 -2
BITMAP
0C30
0C30
0C30
0C30
0C30
7FFE
0C30
0C30
0C30
0C30
FFFF
0C30
0C30
0C30
1830
1830
3030
ENDCHAR
STARTCHAR 4E98
ENCODING 20120
SWIDTH 1020 0
DWIDTH 17 0
BBX 16 15 0 -1
BITMAP
7FFE
7FFE
0000
0000
1FF8
1818
1818
1FF8
1818
1818
1818
1FF8
0000
0000
FFFF
ENDCHAR
STARTCHAR 4E99
ENCODING 20121
SWIDTH 1020 0
DWIDTH 17 0
BBX 17 15 0 -1
BITMAP
7FFF00
7FFF00
060000
060000
07F800
061800
0DD800
0CE800
0C1800
1BB000
19D000
183000
003000
003000
FFFF80
ENDCHAR
STARTCHAR 4E9B
ENCODING 20123
SWIDTH 1020 0
DWIDTH 17 0
BBX 17 16 0 -1
BITMAP
0CE000
0CE000
0CE000
34E600
37BC00
34E000
34E000
34E300
37A300
383F00
E00000
1FFC00
000000
000000
000000
FFFF80
ENDCHAR
STARTCHAR 4E9C
ENCODING 20124
SWIDTH 1020 0
DWIDTH 17 0
BBX 17 15 0 -1
BITMAP
7FFF80
7FFF80
063000
063000
063000
3FFE00
363600
363600
363600
363600
3FFE00
063000
063000
063000
FFFF80
ENDCHAR
STARTCHAR 4E9E
ENCODING 20126
SWIDTH 1020 0
DWIDTH 17 0
BBX 17 15 0 -1
BITMAP
FFFF80
FFFF80
063000
063000
063000
7E3F00
600300
600300
600300
600300
7E3F00
063000
063000
063000
FFFF80
ENDCHAR
STARTCHAR 4E9F
ENCODING 20127
SWIDTH 1020 0
DWIDTH 17 0
BBX 17 15 0 -1
BITMAP
7FFF00
7FFF00
038000
038000
07E000
00FF00
7EE300
66EA00
66EE00
7EEE00
66EB00
01D180
078000
000000
FFFF80
ENDCHAR
STARTCHAR 4EA0
ENCODING 20128
SWIDTH 1020 0
DWIDTH 17 0
BBX 17 5 0 6
BITMAP
01C000
01C000
01C000
01C000
FFFF80
ENDCHAR
STARTCHAR 4EA1
ENCODING 20129
SWIDTH 1020 0
DWIDTH 17 0
BBX 17 16 0 -1
BITMAP
01C000
01C000
01C000
01C000
FFFF80
180000
180000
180000
180000
180000
180000
180000
180000
180000
0C0000
07FE00
ENDCHAR
STARTCHAR 4EA2
ENCODING 20130
SWIDTH 1020 0
DWIDTH 17 0
BBX 16 17 0 -2
BITMAP
01C0
01C0
01C0
01C0
FFFF
0000
0000
07F0
0630
0630
0630
0630
0630
0C33
0C33
1833
701F
ENDCHAR
STARTCHAR 4EA4
ENCODING 20132
SWIDTH 1020 0
DWIDTH 17 0
BBX 17 17 0 -2
BITMAP
01C000
01C000
01C000
01C000
FFFF80
0C3000
0C1800
183400
1A3400
363600
63A600
03A000
01C000
03A000
063000
1C1C00
F00780
ENDCHAR
STARTCHAR 4EA5
ENCODING 20133
SWIDTH 1020 0
DWIDTH 17 0
BBX 17 17 0 -2
BITMAP
01C000
01C000
01C000
01C000
FFFF80
038000
039800
3A3000
0CE000
06CC00
039800
0E3000
38F000
01D800
078C00
1C0600
F00600
ENDCHAR
STARTCHAR 4EA6
ENCODING 20134
SWIDTH 1020 0
DWIDTH 17 0
BBX 17 17 0 -2
BITMAP
01C000
01C000
01C000
01C000
FFFF80
063000
063000
1A3400
1A3600
1A3600
363300
663300
C63300
0C3000
0C3000
183000
30F000
ENDCHAR
STARTCHAR 4EA8
ENCODING 20136
SWIDTH 1020 0
DWIDTH 17 0
BBX 17 17 0 -2
BITMAP
01C000
01C000
01C000
FFFF80
000000
1FFC00
180C00
1FFC00
000000
7FFE00
000C00
003800
01E000
01C000
01C000
01C000
03C000
ENDCHAR
STARTCHAR 4EAB
ENCODING 20139
SWIDTH 1020 0
DWIDTH 17 0
BBX 17 17 0 -2
BITMAP
01C000
01C000
01C000
FFFF80
000000
1FFC00
180C00
1FFC00
000000
3FFC00
003000
00E000
FFFF00
01C000
01C000
01C000
03C000
ENDCHAR
STARTCHAR 4EAC
ENCODING 20140
SWIDTH 1020 0
DWIDTH 17 0
BBX 17 17 0 -2
BITMAP
01C000
01C000
01C000
01C000
FFFF80
000000
1FFC00
180C00
180C00
180C00
1FFC00
01C000
0DD800
19CC00
31C600
E1C300
03C000
ENDCHAR
STARTCHAR 4EAD
ENCODING 20141
SWIDTH 1020 0
DWIDTH 17 0
BBX 17 17 0 -2
BITMAP
01C000
01C000
01C000
FFFF80
000000
1FF800
181800
1FF800
000000
FFFF00
C00300
DFFB00
01C000
01C000
01C000
01C000
03C000
ENDCHAR
STARTCHAR 4EAE
ENCODING 20142
SWIDTH 1020 0
DWIDTH 17 0
BBX 17 17 0 -2
BITMAP
01C000
01C000
01C000
FFFF80
000000
1FFC00
180C00
1FFC00
000000
FFFF00
C00300
C6E300
06E000
06E000
0CE180
383180
E01F80
ENDCHAR
STARTCHAR 4EB0
ENCODING 20144
SWIDTH 1020 0
DWIDTH 17 0
BBX 17 17 0 -2
BITMAP
01C000
01C000
01C000
FFFF80
000000
1FF800
181800
181800
1FF800
181800
1FF800
01C000
0DD000
19DC00
31C600
E1C300
03C000
ENDCHAR
STARTCHAR 4EB3
ENCODING 20147
SWIDTH 1020 0
DWIDTH 17 0
BBX 16 17 0 -2
BITMAP
0380
FFFF
FFFF
0000
1FF8
1818
1FF8
0000
FFFF
C01B
C3F3
3F80
0380
FFFF
0380
01C3
00FF
ENDCHAR
STARTCHAR 4EB6
ENCODING 20150
SWIDTH 1020 0
DWIDTH 17 0
BBX 17 16 0 -1
BITMAP
01C000
FFFF80
FFFF80
000000
3FFE00
37F600
363600
37F600
300600
3FFE00
0C1800
0FF800
0C1800
0FF800
000000
FFFF80
ENDCHAR
STARTCHAR 4EBA
ENCODING 20154
SWIDTH 1020 0
DWIDTH 17 0
BBX 17 17 0 -2
BITMAP
01C000
01C000
01C000
01C000
01C000
01C000
01C000
01C000
03A000
03A000
063000
063000
0C1800
180C00
300600
600300
C00180
ENDCHAR
STARTCHAR 4EC0
ENCODING 20160
SWIDTH 1020 0
DWIDTH 17 0
BBX 17 17 0 -2
BITMAP
0C1800
0C1800
0C1800
0C1800
181800
181800
381800
3BFF80
681800
D81800
181800
181800
181800
181800
181800
181800
181800
ENDCHAR
STARTCHAR 4EC1
ENCODING 20161
SWIDTH 1020 0
DWIDTH 17 0
BBX 17 17 0 -2
BITMAP
0C0000
0C0000
0C0000
0C0000
1BFE00
180000
300000
700000
D00000
300000
300000
300000
300000
300000
37FF80
300000
300000
ENDCHAR
STARTCHAR 4EC2
ENCODING 20162
SWIDTH 1020 0
DWIDTH 17 0
BBX 16 17 0 -2
BITMAP
0CE0
0CE0
0CE0
0CE0
18E0
1BFF
30E3
30E3
70E3
D0E3
30E3
30E3
31C3
31C3
3383
3606
341C
ENDCHAR
STARTCHAR 4EC4
ENCODING 20164
SWIDTH 1020 0
DWIDTH 17 0
BBX 17 16 0 -2
BITMAP
3FFF80
3FFF80
300000
30E000
30E000
30E000
30E000
30E000
30E000
30E000
31D000
31D000
639800
660C00
DC0600
700380
ENDCHAR
STARTCHAR 4EC6
ENCODING 20166
SWIDTH 1020 0
DWIDTH 17 0
BBX 16 17 0 -2
BITMAP
0630
0630
0630
0C30
0C30
1830
1830
3838
6834
D836
1833
1833
1830
1830
1830
1830
1830
ENDCHAR
STARTCHAR 4EC7
ENCODING 20167
SWIDTH 1020 0
DWIDTH 17 0
BBX 16 17 0 -2
BITMAP
0DC0
0DC0
0DC0
0DC0
19C0
19F8
1FD8
31D8
71D8
D1D8
31D8
31D8
339B
339B
361B
340F
3800
ENDCHAR
STARTCHAR 4ECA
ENCODING 20170
SWIDTH 1020 0
DWIDTH 17 0
BBX 17 17 0 -2
BITMAP
01C000
01C000
01C000
03A000
063000
0C1800
180C00
37F600
E00380
000000
1FF800
001800
003000
003000
00E000
01C000
038000
ENDCHAR
STARTCHAR 4ECB
ENCODING 20171
SWIDTH 1020 0
DWIDTH 17 0
BBX 17 17 0 -2
BITMAP
01C000
01C000
01C000
03A000
063000
0C1800
380E00
EC1B80
0C1800
0C1800
0C1800
0C1800
0C1800
181800
181800
301800
601800
ENDCHAR
STARTCHAR 4ECD
ENCODING 20173
SWIDTH 1020 0
DWIDTH 17 0
BBX 16 17 0 -2
BITMAP
0C00
0FFC
0FFC
0DCC
19CC
19CC
31CC
31CF
71C3
D1C3
31C3
31C3
3383
3383
3603
3406
381C
ENDCHAR
STARTCHAR 4ECE
ENCODING 20174
SWIDTH 1020 0
DWIDTH 17 0
BBX 17 17 0 -2
BITMAP
0C1800
0C1800
0C1800
0C1800
0C1800
0C1800
0C1800
0C1800
0C1800
0E1800
1A1C00
1BB400
1BB400
31E600
30E600
61C300
C38180
ENDCHAR
STARTCHAR 4ECF
ENCODING 20175
SWIDTH 1020 0
DWIDTH 17 0
BBX 17 17 0 -2
BITMAP
0C3000
0C3000
0C3000
0C3000
183000
183000
303000
30E000
70E000
D0E800
30EC00
31C600
31C600
31C300
33BF00
37E180
300180
ENDCHAR
STARTCHAR 4ED4
ENCODING 20180
SWIDTH 1020 0
DWIDTH 17 0
BBX 17 17 0 -2
BITMAP
0C0000
0DFE00
0DFE00
0C0600
180C00
181800
303000
703000
D7FF80
303000
303000
303000
303000
303000
303000
303000
30F000
ENDCHAR
STARTCHAR 4ED5
ENCODING 20181
SWIDTH 1020 0
DWIDTH 17 0
BBX 17 17 0 -2
BITMAP
0C3000
0C3000
0C3000
0C3000
183000
183000
303000
37FF80
703000
D03000
303000
303000
303000
303000
303000
37FF00
300000
ENDCHAR
STARTCHAR 4ED6
ENCODING 20182
SWIDTH 1020 0
DWIDTH 17 0
BBX 17 17 0 -2
BITMAP
0C1800
0C1800
0C1800
0DD800
19DB00
19DF00
39FB00
3BDB00
69DB00
D9DB00
19DB00
19DE00
19D800
19C180
19C180
18E180
183F80
ENDCHAR
STARTCHAR 4ED7
ENCODING 20183
SWIDTH 1020 0
DWIDTH 17 0
BBX 17 17 0 -2
BITMAP
0C3000
0C3000
0C3000
0C3000
183000
1BFF80
303000
33B000
73B000
D1D000
31D000
30E000
30E000
31D000
339800
360E00
3C0380
ENDCHAR
STARTCHAR 4ED8
ENCODING 20184
SWIDTH 1020 0
DWIDTH 17 0
BBX 17 17 0 -2
BITMAP
060C00
060C00
060C00
060C00
0C0C00
0DFF80
180C00
1A0C00
3B8C00
69CC00
D9CC00
19CC00
180C00
180C00
180C00
180C00
181C00
ENDCHAR
STARTCHAR 4ED9
ENCODING 20185
SWIDTH 1020 0
DWIDTH 17 0
BBX 16 17 0 -2
BITMAP
0C30
0C30
0C30
0C30
1830
1A33
3633
3633
7633
D633
3633
3633
3633
3633
3633
37FF
3000
ENDCHAR
STARTCHAR 4EDD
ENCODING 20189
SWIDTH 1020 0
DWIDTH 17 0
BBX 17 16 0 -1
BITMAP
01C000
01C000
01C000
03A000
063000
0C1800
380E00
E00380
000000
1FFE00
01C000
01C000
01C000
01C000
01C000
7FFF00
ENDCHAR
STARTCHAR 4EDE
ENCODING 20190
SWIDTH 1020 0
DWIDTH 17 0
BBX 16 17 0 -2
BITMAP
0C00
0FFF
0FFF
0CE3
18E3
18E3
33A3
33A3
73A3
D6E3
34E3
30E3
31C3
31C3
3383
3606
341C
ENDCHAR
STARTCHAR 4EDF
ENCODING 20191
SWIDTH 1020 0
DWIDTH 17 0
BBX 17 17 0 -2
BITMAP
0C0600
0C1C00
0C1C00
0DF000
183000
183000
303000
303000
77FF80
D03000
303000
303000
303000
303000
303000
303000
303000
ENDCHAR
STARTCHAR 4EE3
ENCODING 20195
SWIDTH 1020 0
DWIDTH 17 0
BBX 17 17 0 -2
BITMAP
0C3400
0C3600
0C3600
0C3300
183000
183000
383F80
3BF000
683000
D81800
181800
181800
180C00
180D80
180680
180380
180180
ENDCHAR
STARTCHAR 4EE4
ENCODING 20196
SWIDTH 1020 0
DWIDTH 17 0
BBX 17 17 0 -2
BITMAP
01C000
01C000
01C000
03A000
063000
0C1800
380E00
EFFB80
000000
000000
7FFE00
01C600
01C600
01C600
01DC00
01C000
01C000
ENDCHAR
STARTCHAR 4EE5
ENCODING 20197
SWIDTH 1020 0
DWIDTH 17 0
BBX 17 16 0 -2
BITMAP
300C00
300C00
300C00
300C00
360C00
338C00
31CC00
31CC00
300C00
300C00
301C00
339A00
363300
38E300
E1C180
078180
ENDCHAR
STARTCHAR 4EED
ENCODING 20205
SWIDTH 1020 0
DWIDTH 17 0
BBX 17 17 0 -2
BITMAP
0C0000
0FFE00
0FFE00
0CE600
18E600
18E600
30E600
36E600
73A600
D1E600
30FA00
30EF80
31C600
31C600
338600
360C00
343800
ENDCHAR
STARTCHAR 4EEE
ENCODING 20206
SWIDTH 1020 0
DWIDTH 17 0
BBX 17 17 0 -2
BITMAP
0C0000
0DFF80
0DFF80
0D8000
1B8000
1B8000
33FE00
33C600
73A600
D3AC00
33B400
363800
361800
343400
34E600
3BC300
360180
ENDCHAR
STARTCHAR 4EF0
ENCODING 20208
SWIDTH 1020 0
DWIDTH 17 0
BBX 16 17 0 -2
BITMAP
0CE0
0DC0
0DC0
0FBF
1A33
1A33
3633
3633
7633
D633
3633
36F3
37D3
3636
3030
3030
3030
ENDCHAR
STARTCHAR 4EF2
ENCODING 20210
SWIDTH 1020 0
DWIDTH 17 0
BBX 16 17 0 -2
BITMAP
0C30
0C30
0C30
0C30
1830
1BFF
3A33
3A33
6A33
DA33
1BFF
1830
1830
1830
1830
1830
1830
ENDCHAR
STARTCHAR 4EF6
ENCODING 20214
SWIDTH 1020 0
DWIDTH 17 0
BBX 17 17 0 -2
BITMAP
0C3000
0DB000
0DB000
0DB000
1BB000
1BFF00
363000
363000
743000
D03000
37FF80
303000
303000
303000
303000
303000
303000
ENDCHAR
STARTCHAR 4EF7
ENCODING 20215
SWIDTH 1020 0
DWIDTH 17 0
BBX 17 17 0 -2
BITMAP
0C3000
0C3000
0C3000
0CE800
18E800
19CC00
33CE00
36CD00
75CD80
D1CC00
31CC00
31CC00
31CC00
338C00
338C00
360C00
340C00
ENDCHAR
STARTCHAR 4EFB
ENCODING 20219
SWIDTH 1020 0
DWIDTH 17 0
BBX 17 17 0 -2
BITMAP
0C0600
0C1C00
0C1C00
0CF000
1BD000
183000
383000
383000
6FFF80
D83000
183000
183000
183000
183000
1BFF00
180000
180000
ENDCHAR
STARTCHAR 4F01
ENCODING 20225
SWIDTH 1020 0
DWIDTH 17 0
BBX 17 16 0 -1
BITMAP
01C000
01C000
01C000
03A000
063000
0C1800
39CE00
E1C380
01C000
19FE00
19C000
19C000
19C000
19C000
19C000
FFFF80
ENDCHAR
STARTCHAR 4F09
ENCODING 20233
SWIDTH 1020 0
DWIDTH 17 0
BBX 17 17 0 -2
BITMAP
0C3000
0C3000
0C3000
0C3000
1BFF80
180000
300000
31F800
71D800
D1D800
31D800
31D800
339800
339800
361B00
341B00
380F00
ENDCHAR
STARTCHAR 4F0A
ENCODING 20234
SWIDTH 1020 0
DWIDTH 17 0
BBX 17 17 0 -2
BITMAP
0C0000
0DFE00
0DFE00
0C3600
183600
183600
3FFF80
383600
683600
D83600
1BFE00
183000
183000
18E000
18E000
19C000
1B8000
ENDCHAR
STARTCHAR 4F0D
ENCODING 20237
SWIDTH 1020 0
DWIDTH 17 0
BBX 17 17 0 -2
BITMAP
0C0000
0FFF00
0FFF00
0CE000
18E000
18E000
30E000
37FC00
70EC00
D0EC00
30EC00
31CC00
31CC00
31CC00
31CC00
37FF80
300000
ENDCHAR
STARTCHAR 4F0E
ENCODING 20238
SWIDTH 1020 0
DWIDTH 17 0
BBX 17 17 0 -2
BITMAP
0C3000
0C3000
0C3000
0C3000
1FFF80
183000
383000
383000
6BFE00
D9C600
18EC00
18EC00
183800
183800
18EC00
19C600
1B8380
ENDCHAR
STARTCHAR 4F0F
ENCODING 20239
SWIDTH 1020 0
DWIDTH 17 0
BBX 17 17 0 -2
BITMAP
0CE000
0CEC00
0CEC00
0CE600
18E600
18E000
37FF80
30E000
70E000
D0E000
30F000
31D000
31D800
338C00
360600
340300
380180
ENDCHAR
STARTCHAR 4F10
ENCODING 20240
SWIDTH 1020 0
DWIDTH 17 0
BBX 17 17 0 -2
BITMAP
0DCC00
0DC600
0DC600
0DC600
19C000
1FFF80
31C600
31C600
70EC00
D0EC00
30E800
303000
30E800
33DB00
360D00
300700
300300
ENDCHAR
STARTCHAR 4F11
ENCODING 20241
SWIDTH 1020 0
DWIDTH 17 0
BBX 17 17 0 -2
BITMAP
18E000
18E000
18E000
18E000
18E000
37FF00
31F000
31F000
73A800
D3A800
36EC00
36E600
34E300
38E180
30E000
30E000
30E000
ENDCHAR
STARTCHAR 4F1A
ENCODING 20250
SWIDTH 1020 0
DWIDTH 17 0
BBX 17 17 0 -2
BITMAP
01C000
01C000
01C000
03A000
063000
0C1800
380E00
EFFB80
000000
000000
7FFF00
038000
03B000
061800
0CF400
7FC600
000600
ENDCHAR
STARTCHAR 4F1C
ENCODING 20252
SWIDTH 1020 0
DWIDTH 17 0
BBX 17 17 0 -2
BITMAP
0CE000
0CE000
0CE000
0FFC00
18EC00
19CC00
31CD80
338D80
760780
D43000
303000
37FF80
303000
303000
303000
303000
303000
ENDCHAR
STARTCHAR 4F1D
ENCODING 20253
SWIDTH 1020 0
DWIDTH 17 0
BBX 17 17 0 -2
BITMAP
0C0000
0C0000
0C0000
0DFE00
180000
180000
300000
37FF80
70E000
D0E000
30E800
31CC00
31C600
338600
33BF00
37E300
300300
ENDCHAR
STARTCHAR 4F2F
ENCODING 20271
SWIDTH 1020 0
DWIDTH 17 0
BBX 15 17 0 -2
BITMAP
0C30
0C30
0C30
0CE0
1BFE
1B86
3386
3386
7386
D3FE
3386
3386
3386
3386
3386
33FE
3000
ENDCHAR
STARTCHAR 4F30
ENCODING 20272
SWIDTH 1020 0
DWIDTH 17 0
BBX 17 17 0 -2
BITMAP
0C3000
0C3000
0C3000
0C3000
183000
1FFF80
303000
303000
703000
D03000
33FE00
338600
338600
338600
338600
33FE00
300000
ENDCHAR
STARTCHAR 4F34
ENCODING 20276
SWIDTH 1020 0
DWIDTH 17 0
BBX 17 17 0 -2
BITMAP
0C3000
0C3600
0C3600
0DB600
19D600
19D400
383000
3BFF00
683000
D83000
183000
1FFF80
183000
183000
183000
183000
183000
ENDCHAR
STARTCHAR 4F36
ENCODING 20278
SWIDTH 1020 0
DWIDTH 17 0
BBX 17 17 0 -2
BITMAP
0C3000
0C3000
0C3000
0CE800
19CC00
1B8600
36FD00
340180
700000
D7FE00
30E600
30E600
30E600
30E600
30EC00
30E000
30E000
ENDCHAR
STARTCHAR 4F38
ENCODING 20280
SWIDTH 1020 0
DWIDTH 17 0
BBX 16 17 0 -2
BITMAP
0C30
0C30
0C30
0C30
1BFF
1A33
3633
3633
77FF
D633
3633
37FF
3030
3030
3030
3030
3030
ENDCHAR
STARTCHAR 4F3A
ENCODING 20282
SWIDTH 1020 0
DWIDTH 17 0
BBX 16 17 0 -2
BITMAP
0C00
0FFF
0FFF
0C03
1803
1BFD
3003
3003
73FB
D39B
339B
339B
33FB
3003
3003
3003
3007
ENDCHAR
STARTCHAR 4F3C
ENCODING 20284
SWIDTH 1020 0
DWIDTH 17 0
BBX 17 17 0 -2
BITMAP
0C0600
0D8600
0D8600
0D8600
1BC600
1BA600
33B600
33B600
738600
D38600
338600
338600
33AE00
33CD00
379B00
3C3180
30E180
ENDCHAR
STARTCHAR 4F3D
ENCODING 20285
SWIDTH 1020 0
DWIDTH 17 0
BBX 16 17 0 -2
BITMAP
1A00
1A00
1A00
1A1F
361B
3FEB
36EB
76EB
76EB
D6EB
36EB
36EB
36EB
34EB
34EF
3BC0
3000
ENDCHAR
STARTCHAR 4F43
ENCODING 20291
SWIDTH 1020 0
DWIDTH 17 0
BBX 16 17 0 -2
BITMAP
0C00
0DFF
0DFF
0DB3
1BB3
1BB3
33B3
33B3
73FF
D3B3
33B3
33B3
33B3
33B3
33B3
33FF
3000
ENDCHAR
STARTCHAR 4F46
ENCODING 20294
SWIDTH 1020 0
DWIDTH 17 0
BBX 17 17 0 -2
BITMAP
0C0000
0DFE00
0DFE00
0D8600
1B8600
1B8600
3B8600
3BFE00
6B8600
DB8600
1B8600
1B8600
1BFE00
180000
180000
1FFF80
180000
ENDCHAR
STARTCHAR 4F47
ENCODING 20295
SWIDTH 1020 0
DWIDTH 17 0
BBX 17 17 0 -2
BITMAP
0C3000
0C3000
0C3000
0FFF00
1A0300
1A0300
300000
37FF80
703000
D03000
303000
303000
303000
303000
303000
303000
30F000
ENDCHAR
STARTCHAR 4F4D
ENCODING 20301
SWIDTH 1020 0
DWIDTH 17 0
BBX 17 17 0 -2
BITMAP
0C3000
0C3000
0C3000
0C3000
183000
1BFF00
380600
380600
6B8600
D9CC00
19CC00
19CC00
19D800
19D800
183000
1FFF80
180000
ENDCHAR
STARTCHAR 4F4E
ENCODING 20302
SWIDTH 1020 0
DWIDTH 17 0
BBX 17 17 0 -2
BITMAP
0C0600
0C1C00
0C1C00
0DF800
1B9800
1B9800
339800
33FF80
739800
D39800
338C00
338C00
33EC00
360600
300680
37FB80
300180
ENDCHAR
STARTCHAR 4F4F
ENCODING 20303
SWIDTH 1020 0
DWIDTH 17 0
BBX 17 17 0 -2
BITMAP
0CE000
0C3000
0C3000
0C3000
1BFF00
183000
303000
303000
703000
D7FF00
303000
303000
303000
303000
303000
37FF80
300000
ENDCHAR
STARTCHAR 4F50
ENCODING 20304
SWIDTH 1020 0
DWIDTH 17 0
BBX 17 17 0 -2
BITMAP
0CE000
0CE000
0CE000
0CE000
1BFF80
18E000
30E000
31C000
71C000
D3FF00
33B000
363000
343000
303000
303000
37FF80
300000
ENDCHAR
STARTCHAR 4F51
ENCODING 20305
SWIDTH 1020 0
DWIDTH 17 0
BBX 17 17 0 -2
BITMAP
0CE000
0CE000
0CE000
0CE000
1FFF80
18E000
30E000
31C000
71C000
D3FE00
33C600
36C600
35C600
31C600
31C600
31FE00
300000
ENDCHAR
STARTCHAR 4F53
ENCODING 20307
SWIDTH 1020 0
DWIDTH 17 0
BBX 17 17 0 -2
BITMAP
183000
183000
183000
183000
183000
37FF80
30F800
30F800
71D400
D1D400
33B600
363300
35FE80
303000
303000
303000
303000
ENDCHAR
STARTCHAR 4F55
ENCODING 20309
SWIDTH 1020 0
DWIDTH 17 0
BBX 17 17 0 -2
BITMAP
0C0000
0C0000
0C0000
0FFF80
180600
180600
37F600
363600
763600
D63600
363600
37F600
300600
300600
300600
300600
300E00
ENDCHAR
STARTCHAR 4F57
ENCODING 20311
SWIDTH 1020 0
DWIDTH 17 0
BBX 16 17 0 -2
BITMAP
0C30
0C30
0C30
0C30
1BFF
1A03
36C3
31C0
71C6
D1DC
31F0
31C0
31C0
31C0
31C3
30E3
303F
ENDCHAR
STARTCHAR 4F59
ENCODING 20313
SWIDTH 1020 0
DWIDTH 17 0
BBX 17 17 0 -2
BITMAP
01C000
01C000
01C000
03A000
063000
0C1800
380E00
EFFD80
01C000
01C000
7FFF00
01C000
0DD800
0DCC00
19C600
31C600
03C000
ENDCHAR
STARTCHAR 4F5A
ENCODING 20314
SWIDTH 1020 0
DWIDTH 17 0
BBX 17 17 0 -2
BITMAP
0C3000
0DB000
0DB000
0DB000
1BB000
1BFF00
363000
363000
743000
D7FF80
303800
30E800
30EC00
31CC00
338600
360300
340180
ENDCHAR
STARTCHAR 4F5B
ENCODING 20315
SWIDTH 1020 0
DWIDTH 17 0
BBX 17 17 0 -2
BITMAP
0DD800
0DD800
0DD800
0FFF00
19DB00
19DB00
37FF00
36D800
76D800
D7FF80
31D980
31D980
31D980
339B00
339E00
361800
341800
ENDCHAR
STARTCHAR 4F5C
ENCODING 20316
SWIDTH 1020 0
DWIDTH 17 0
BBX 17 17 0 -2
BITMAP
0DC000
0DC000
0DC000
0DC000
19FF80
1BB000
3BB000
3A3000
6C3F00
D83000
183000
183000
183F00
183000
183000
183000
183000
ENDCHAR
STARTCHAR 4F5D
ENCODING 20317
SWIDTH 1020 0
DWIDTH 17 0
BBX 16 17 0 -2
BITMAP
0DC0
0DC0
0DC0
0DC0
19FF
1B83
3383
37FB
759B
D39B
339B
339B
33FB
3003
3003
3006
301C
ENDCHAR
STARTCHAR 4F5E
ENCODING 20318
SWIDTH 1020 0
DWIDTH 17 0
BBX 17 17 0 -2
BITMAP
0C0000
0DFE00
0DFE00
0C0000
180000
180000
37FF80
30E000
70E000
D7FF80
31CC00
31CC00
339800
37F800
303400
31E600
378300
ENDCHAR
STARTCHAR 4F69
ENCODING 20329
SWIDTH 1020 0
DWIDTH 17 0
BBX 17 17 0 -2
BITMAP
180000
1BFE00
1BFE00
1A0600
1A0600
37FE00
36E600
76E600
77FA00
D7AA00
37AA00
37AA00
37AA00
35BA80
35A680
38E380
30E180
ENDCHAR
STARTCHAR 4F6F
ENCODING 20335
SWIDTH 1020 0
DWIDTH 17 0
BBX 17 17 0 -2
BITMAP
0DC600
0CE600
0CE600
0CEC00
1BFF00
183000
303000
303000
73FE00
D03000
303000
303000
37FF80
303000
303000
303000
303000
ENDCHAR
STARTCHAR 4F70
ENCODING 20336
SWIDTH 1020 0
DWIDTH 17 0
BBX 17 17 0 -2
BITMAP
0C0000
0FFF80
0FFF80
0C3000
183000
18E000
33FE00
338600
738600
D38600
33FE00
338600
338600
338600
338600
33FE00
300000
ENDCHAR
STARTCHAR 4F73
ENCODING 20339
SWIDTH 1020 0
DWIDTH 17 0
BBX 16 17 0 -2
BITMAP
0C30
0C30
0C30
0DFE
1830
1830
3830
6BFF
6830
D830
1830
1BFE
1830
1830
1830
1BFF
1800
ENDCHAR
STARTCHAR 4F75
ENCODING 20341
SWIDTH 1020 0
DWIDTH 17 0
BBX 17 17 0 -2
BITMAP
0D8600
0DC600
0DC600
0DCC00
1BFF00
19CC00
31CC00
31CC00
71CC00
D7FF80
31CC00
31CC00
31CC00
31CC00
338C00
338C00
360C00
ENDCHAR
STARTCHAR 4F76
ENCODING 20342
SWIDTH 1020 0
DWIDTH 17 0
BBX 17 17 0 -2
BITMAP
0C3000
0C3000
0C3000
0C3000
1FFF80
183000
303000
303000
77FF00
D00000
300000
33FE00
338600
338600
338600
33FE00
300000
ENDCHAR
STARTCHAR 4F7B
ENCODING 20347
SWIDTH 1020 0
DWIDTH 17 0
BBX 17 17 0 -2
BITMAP
0DD800
0DD800
0DD800
0DDB00
19DB00
1DDA00
36D800
36D800
71DC00
D1DA00
33DB00
36D980
3DD800
339800
339980
361980
340F80
ENDCHAR
STARTCHAR 4F7C
ENCODING 20348
SWIDTH 1020 0
DWIDTH 17 0
BBX 17 17 0 -2
BITMAP
0C3000
0C3000
0C3000
0C3000
1BFF80
19CC00
31C600
338D00
76CD00
D5CC00
30E800
30E800
303000
30E800
31CC00
338600
360380
ENDCHAR
STARTCHAR 4F7F
ENCODING 20351
SWIDTH 1020 0
DWIDTH 17 0
BBX 17 17 0 -2
BITMAP
0C3000
0C3000
0C3000
0FFF80
183000
183000
37FF00
363300
763300
D63300
37FF00
31D000
30E000
30F000
31D800
378E00
3C0380
ENDCHAR
STARTCHAR 4F83
ENCODING 20355
SWIDTH 1020 0
DWIDTH 17 0
BBX 17 17 0 -2
BITMAP
0C0000
0DFE00
0DFE00
0D8600
1B8600
1B8600
33FE00
300000
73B600
D3B600
33B600
33B600
33B600
33B600
363680
363680
340380
ENDCHAR
STARTCHAR 4F86
ENCODING 20358
SWIDTH 1020 0
DWIDTH 17 0
BBX 17 17 0 -2
BITMAP
01C000
01C000
01C000
FFFF80
19CC00
19CC00
1DCE00
35DA00
36DB00
61D000
03E000
06D000
0DD800
39CE00
E1C380
01C000
01C000
ENDCHAR
STARTCHAR 4F88
ENCODING 20360
SWIDTH 1020 0
DWIDTH 17 0
BBX 16 17 0 -2
BITMAP
0CE0
0CE0
0CE0
0CFC
19CC
1BD8
36E8
3030
70E8
D3DF
3633
30F6
33DA
300C
3018
30F0
37C0
ENDCHAR
STARTCHAR 4F8B
ENCODING 20363
SWIDTH 1020 0
DWIDTH 17 0
BBX 16 17 0 -2
BITMAP
1803
1FFB
1FFB
1B9B
339B
339B
33EB
76EB
76EB
D7AB
35EB
39DB
31C3
3383
3383
3603
3407
ENDCHAR
STARTCHAR 4F8D
ENCODING 20365
SWIDTH 1020 0
DWIDTH 17 0
BBX 17 17 0 -2
BITMAP
0C3000
0C3000
0C3000
0DFF00
183000
183000
303000
37FF80
700C00
D00C00
37FF00
338C00
31CC00
31CC00
31CC00
300C00
301C00
ENDCHAR
STARTCHAR 4F8F
ENCODING 20367
SWIDTH 1020 0
DWIDTH 17 0
BBX 17 17 0 -2
BITMAP
0C3000
0DD000
0DD000
0DD000
19FF00
1BB000
363000
303000
77FF80
D0F800
30F800
31D400
33B400
363600
343300
303180
303000
ENDCHAR
STARTCHAR 4F91
ENCODING 20369
SWIDTH 1020 0
DWIDTH 17 0
BBX 17 17 0 -2
BITMAP
0CE000
0CE000
0CE000
0FFF80
18E000
19C000
31FE00
33C600
73C600
D6FE00
35C600
31C600
31FE00
31C600
31C600
31C600
31CE00
ENDCHAR
STARTCHAR 4F96
ENCODING 20374
SWIDTH 1020 0
DWIDTH 17 0
BBX 16 17 1 -2
BITMAP
0380
0380
0380
0740
0C70
381C
EFFB
0000
0000
3FFC
376C
376C
3FFC
376C
376C
376C
376C
ENDCHAR
STARTCHAR 4F98
ENCODING 20376
SWIDTH 1020 0
DWIDTH 17 0
BBX 17 17 0 -2
BITMAP
0C3000
0C3000
0C3000
0FFF00
1A0300
1A0D00
303800
37E000
70E000
D0E000
30FF80
37E000
30E000
30E000
30E300
303300
301F00
ENDCHAR
STARTCHAR 4F9B
ENCODING 20379
SWIDTH 1020 0
DWIDTH 17 0
BBX 17 17 0 -2
BITMAP
0DCC00
0DCC00
0DCC00
0DCC00
19CC00
1BFF00
39CC00
39CC00
69CC00
D9CC00
1FFF80
180000
19CC00
19C600
1B8600
1A0300
1C0300
ENDCHAR
STARTCHAR 4F9D
ENCODING 20381
SWIDTH 1020 0
DWIDTH 17 0
BBX 17 17 0 -2
BITMAP
0C3000
0C3000
0C3000
0C3000
1FFF80
19E000
31D300
31D300
73B600
D7B600
359C00
3B9800
338C00
338C00
33B600
33C300
360180
ENDCHAR
STARTCHAR 4FA0
ENCODING 20384
SWIDTH 1020 0
DWIDTH 17 0
BBX 17 17 0 -2
BITMAP
0CE000
0CE000
0CE000
0FFF00
18E000
1AEC00
33AC00
33AC00
73A800
D0E000
3FFF80
30F000
31D000
31D800
338C00
360600
3C0300
ENDCHAR
STARTCHAR 4FA1
ENCODING 20385
SWIDTH 1020 0
DWIDTH 17 0
BBX 17 17 0 -2
BITMAP
0C0000
0C0000
0C0000
0FFF80
18E800
18E800
30E800
37FF00
76EB00
D6EB00
36EB00
36EB00
36EB00
36EB00
36EB00
37FF00
300000
ENDCHAR
STARTCHAR 4FAB
ENCODING 20395
SWIDTH 1020 0
DWIDTH 17 0
BBX 17 17 0 -2
BITMAP
0C3000
0C3000
0C3000
0DFF80
0D8000
1B8000
31FF00
30E000
70E000
D7FF80
31CC00
31CC00
339800
37F800
303400
31E600
378300
ENDCHAR
STARTCHAR 4FAD
ENCODING 20397
SWIDTH 1020 0
DWIDTH 17 0
BBX 17 17 0 -2
BITMAP
0C0000
0DFE00
0DFE00
0D8600
1B8600
1B8600
33FE00
339800
739800
D60C00
36E600
343300
381980
33C000
30F000
301800
300C00
ENDCHAR
STARTCHAR 4FAE
ENCODING 20398
SWIDTH 1020 0
DWIDTH 17 0
BBX 17 17 0 -2
BITMAP
0DC000
0DC000
0DC000
0DFF80
1B8000
1B8000
36FE00
35D600
71D600
D7FF80
33B600
33B600
33B600
37FF80
360600
300C00
303800
ENDCHAR
STARTCHAR 4FAF
ENCODING 20399
SWIDTH 1020 0
DWIDTH 17 0
BBX 17 17 0 -2
BITMAP
0C0000
0DFC00
0DFC00
0C0C00
180C00
1FFF80
31C000
31C000
71FE00
D3B000
363000
37FF80
303000
30E800
31CC00
338600
360380
ENDCHAR
STARTCHAR 4FB5
ENCODING 20405
SWIDTH 1020 0
DWIDTH 17 0
BBX 17 17 0 -2
BITMAP
0C0000
0DFE00
0DFE00
0C0600
19FE00
180600
33FE00
300000
77FF80
D40180
37FD80
31CC00
30E800
303000
30E800
33CE00
360380
ENDCHAR
STARTCHAR 4FB6
ENCODING 20406
SWIDTH 1020 0
DWIDTH 17 0
BBX 16 17 0 -2
BITMAP
0C00
0DFE
0DFE
0D86
1B86
1B86
33FE
3030
7030
D0E0
37FF
3603
3603
3603
3603
37FF
3000
ENDCHAR
STARTCHAR 4FBF
ENCODING 20415
SWIDTH 1020 0
DWIDTH 17 0
BBX 17 17 0 -2
BITMAP
0C0000
0FFF80
0FFF80
0C3000
1BFF00
1BB300
3BB300
3BFF00
6BB300
DBB300
1BFF00
19D000
18E000
18F000
19D800
1B8E00
1C0380
ENDCHAR
STARTCHAR 4FC2
ENCODING 20418
SWIDTH 1020 0
DWIDTH 17 0
BBX 16 17 0 -2
BITMAP
0C07
0C3C
0C3C
0FE0
18EC
19CC
3798
31D0
70EC
D1C6
37FF
3033
33B4
33B6
3633
3433
3030
ENDCHAR
STARTCHAR 4FC3
ENCODING 20419
SWIDTH 1020 0
DWIDTH 17 0
BBX 17 17 0 -2
BITMAP
0C0000
0DFF00
0DFF00
0D8300
1B8300
1B8300
338300
33FF00
703000
D03000
33B000
33BF00
33B000
36D000
36F000
343800
380F80
ENDCHAR
STARTCHAR 4FC4
ENCODING 20420
SWIDTH 1020 0
DWIDTH 17 0
BBX 17 17 0 -2
BITMAP
0CE800
0DDA00
0DDA00
0F9B00
1B9B00
1B9800
3FFF80
339800
739B00
D3AB00
33DA00
378C00
339D00
33B500
33A700
33C700
378300
ENDCHAR
STARTCHAR 4FCA
ENCODING 20426
SWIDTH 1020 0
DWIDTH 17 0
BBX 17 17 0 -2
BITMAP
0CE000
0CE800
0CE800
0DCE00
1BFD00
19D800
31D980
338F80
76C000
D5FC00
31CC00
33CC00
36E800
343000
30E800
33CE00
360380
ENDCHAR
STARTCHAR 4FCE
ENCODING 20430
SWIDTH 1020 0
DWIDTH 17 0
BBX 17 16 0 -1
BITMAP
180000
18FE00
18FE00
18E600
34E600
36E600
63BE00
C0E600
18E600
18E600
18FE00
34E600
36E600
63A600
C0E600
07FF80
ENDCHAR
STARTCHAR 4FD0
ENCODING 20432
SWIDTH 1020 0
DWIDTH 17 0
BBX 16 17 0 -2
BITMAP
18E3
1BDB
1BDB
1F9B
339B
339B
3FEB
739B
739B
D7DB
37AB
35AB
359B
3B83
3383
3383
3387
ENDCHAR
STARTCHAR 4FD1
ENCODING 20433
SWIDTH 1020 0
DWIDTH 17 0
BBX 16 17 0 -2
BITMAP
0C00
0FFE
0FFE
0C0C
19E8
1830
37FF
3633
7633
D7FF
3633
3633
37FF
3633
3633
3633
3637
ENDCHAR
STARTCHAR 4FD4
ENCODING 20436
SWIDTH 1020 0
DWIDTH 17 0
BBX 17 17 0 -2
BITMAP
0C0000
0DFE00
0DFE00
0D8600
1B8600
1BFE00
338600
33FE00
738600
D38600
33FE00
30E800
30E800
31D800
339980
361980
3C0F80
ENDCHAR
STARTCHAR 4FD7
ENCODING 20439
SWIDTH 1020 0
DWIDTH 17 0
BBX 17 17 0 -2
BITMAP
0DCC00
0DC600
0DC600
0DC600
1BB300
1A3300
30E800
30E800
71CC00
D38600
37FF00
358680
338600
338600
338600
33FE00
300000
ENDCHAR
STARTCHAR 4FD8
ENCODING 20440
SWIDTH 1020 0
DWIDTH 17 0
BBX 17 17 0 -2
BITMAP
0C0600
0C3C00
0C3C00
0FE600
1BB300
1BB300
360180
35FE80
700C00
D01800
303000
37FF80
303000
303000
303000
303000
30F000
ENDCHAR
STARTCHAR 4FDA
ENCODING 20442
SWIDTH 1020 0
DWIDTH 17 0
BBX 17 17 0 -2
BITMAP
0C0000
0DFE00
0DFE00
0DB600
1BB600
1BFE00
33B600
33B600
73FE00
D03000
303000
37FF00
303000
303000
303000
37FF80
300000
ENDCHAR
STARTCHAR 4FDB
ENCODING 20443
SWIDTH 1020 0
DWIDTH 17 0
BBX 17 17 0 -2
BITMAP
0CE000
0CFC00
0CFC00
0DCC00
1B9800
1BB000
37FF00
35B300
73B300
D3A300
33FF00
30E800
30E800
31D800
339980
361980
3C0F80
ENDCHAR
STARTCHAR 4FDD
ENCODING 20445
SWIDTH 1020 0
DWIDTH 17 0
BBX 17 17 0 -2
BITMAP
0C0000
0DFE00
0DFE00
0D8600
1B8600
1B8600
33FE00
303000
703000
D7FF80
30F800
31D400
33B600
363300
343180
303000
303000
ENDCHAR
STARTCHAR 4FDF
ENCODING 20447
SWIDTH 1020 0
DWIDTH 17 0
BBX 17 17 0 -2
BITMAP
0CE000
0CE800
0CE800
0CEE00
19DD00
1BF180
31C000
31C000
73FF00
D3B000
363000
37FF80
30E800
30EC00
31C600
378300
3C0180
ENDCHAR
STARTCHAR 4FE1
ENCODING 20449
SWIDTH 1020 0
DWIDTH 17 0
BBX 17 17 0 -2
BITMAP
180000
1BFC00
1BFC00
180000
1FFF80
300000
37FE00
700000
700000
D7FE00
300000
37FE00
360600
360600
360600
37FE00
300000
ENDCHAR
STARTCHAR 4FE3
ENCODING 20451
SWIDTH 1020 0
DWIDTH 17 0
BBX 17 17 0 -2
BITMAP
0C0000
0DFE00
0DFE00
0D8600
1B8600
1B8600
33FE00
300000
77FF00
D03000
303000
37FF80
30E800
30EC00
31C600
338300
360180
ENDCHAR
STARTCHAR 4FE4
ENCODING 20452
SWIDTH 1020 0
DWIDTH 17 0
BBX 16 17 0 -2
BITMAP
0D8C
0DCC
0DCC
0DD8
1FFF
1833
3033
37FF
7630
D630
37FF
30F3
31D3
33B3
3633
3436
3030
ENDCHAR
STARTCHAR 4FE5
ENCODING 20453
SWIDTH 1020 0
DWIDTH 17 0
BBX 17 17 0 -2
BITMAP
0C3000
0C3000
0C3000
0FFF80
183000
1BFE00
33B600
33B600
73FE00
D3B600
33B600
33FE00
303000
37FF80
303000
303000
303000
ENDCHAR
STARTCHAR 4FEE
ENCODING 20462
SWIDTH 1020 0
DWIDTH 17 0
BBX 17 17 0 -2
BITMAP
0CE000
0CE000
0CE000
0CFF80
19CC00
1BCC00
36E800
343800
75EE00
D79B80
34F600
35DC00
34F300
35C600
341C00
30F000
37C000
ENDCHAR
STARTCHAR 4FEF
ENCODING 20463
SWIDTH 1020 0
DWIDTH 17 0
BBX 17 17 0 -2
BITMAP
0C3000
0C3000
0C3000
0FFF80
1A0000
1AE600
36E600
36FF80
76C600
D6D600
37DA00
36DA00
36C600
35C600
35C600
39C600
31CE00
ENDCHAR
STARTCHAR 4FF3
ENCODING 20467
SWIDTH 1020 0
DWIDTH 17 0
BBX 17 17 0 -2
BITMAP
0DD800
0DD800
0DD800
0DD800
1FDF00
19D800
31D800
31D800
77DF00
D1D800
31D800
37D800
3DDF80
339800
339800
361800
341800
ENDCHAR
STARTCHAR 4FF5
ENCODING 20469
SWIDTH 1020 0
DWIDTH 17 0
BBX 17 17 0 -2
BITMAP
0C3000
0C3000
0C3000
0FFF00
183000
1BFF00
303000
303000
77FF80
D1D000
33B600
379A00
359C00
338C00
338600
33E300
360180
ENDCHAR
STARTCHAR 4FF6
ENCODING 20470
SWIDTH 1020 0
DWIDTH 17 0
BBX 17 17 0 -2
BITMAP
1B8000
1BBF00
1BBF00
1B8300
3BF300
339B00
739B00
7FFA00
D39A00
339A00
35CC00
35AC00
35AE00
3B9A00
33B300
37A300
31C180
ENDCHAR
STARTCHAR 4FF8
ENCODING 20472
SWIDTH 1020 0
DWIDTH 17 0
BBX 17 17 0 -2
BITMAP
0C3000
0C3000
0C3000
0FFF00
183000
1BFF00
30E800
37FF80
71CC00
D3B600
363380
33FE00
303000
37FF80
303000
303000
303000
ENDCHAR
STARTCHAR 4FFA
ENCODING 20474
SWIDTH 1020 0
DWIDTH 17 0
BBX 17 17 0 -2
BITMAP
0CE000
0CE000
0CE000
0FFF80
19D000
19E800
33AC00
37FE00
76ED00
DAED80
37FC00
36EC00
36EC00
37FC00
30E300
30E300
303F00
ENDCHAR
STARTCHAR 4FFE
ENCODING 20478
SWIDTH 1020 0
DWIDTH 17 0
BBX 17 17 0 -2
BITMAP
0C3000
0CE000
0CE000
0FFE00
1A3600
1A3600
37FE00
363600
763600
D7FE00
31D800
339800
37FF80
301800
301800
301800
301800
ENDCHAR
STARTCHAR 5005
ENCODING 20485
SWIDTH 1020 0
DWIDTH 17 0
BBX 17 17 0 -2
BITMAP
0C3000
0C3000
0C3000
0FFF80
1B8C00
1B8C00
33CE00
36EB00
743000
D03000
37FF80
303000
303000
303000
303000
303000
303000
ENDCHAR
STARTCHAR 5006
ENCODING 20486
SWIDTH 1020 0
DWIDTH 17 0
BBX 17 17 0 -2
BITMAP
180000
1FFF80
1FFF80
183000
183000
37FF00
363300
763300
77FF00
D6F700
36D500
36D500
37BB00
363300
363300
363300
363700
ENDCHAR
STARTCHAR 5009
ENCODING 20489
SWIDTH 1020 0
DWIDTH 17 0
BBX 17 16 0 -1
BITMAP
01C000
01C000
01C000
03A000
063000
0FF800
380E00
EFFB80
0C1800
0FF800
0C1800
0FF800
180000
1FFC00
340C00
6FFC00
ENDCHAR
STARTCHAR 500B
ENCODING 20491
SWIDTH 1020 0
DWIDTH 17 0
BBX 16 17 0 -2
BITMAP
0C00
0FFF
0FFF
0E33
1A33
1A33
37FF
3633
7633
D6FD
36CD
36CD
36FD
3603
3603
37FF
3000
ENDCHAR
STARTCHAR 500D
ENCODING 20493
SWIDTH 1020 0
DWIDTH 17 0
BBX 17 17 0 -2
BITMAP
0C3000
0C3000
0C3000
0FFF00
1B8600
19C600
31CC00
31CC00
77FF80
D00000
300000
33FE00
338600
338600
338600
33FE00
300000
ENDCHAR
STARTCHAR 500F
ENCODING 20495
SWIDTH 1020 0
DWIDTH 17 0
BBX 17 17 0 -2
BITMAP
0C3000
0C3E00
0C3E00
0CE600
19CC00
1BA800
343800
35EE00
778380
D43400
343600
343600
37FF80
343800
30EC00
33C600
360380
ENDCHAR
STARTCHAR 5011
ENCODING 20497
SWIDTH 1020 0
DWIDTH 17 0
BBX 16 17 0 -2
BITMAP
1800
1BEF
1BEF
1AEB
1BEF
36EB
36EB
77EF
7603
D603
3603
3603
3603
3603
3603
3603
3607
ENDCHAR
STARTCHAR 5012
ENCODING 20498
SWIDTH 1020 0
DWIDTH 17 0
BBX 16 17 0 -2
BITMAP
1803
1FFD
1FFD
1B8D
33AD
33B5
36F5
77DD
7DDD
D1CD
37F5
31CD
31CD
31DB
33E3
3603
3007
ENDCHAR
STARTCHAR 5014
ENCODING 20500
SWIDTH 1020 0
DWIDTH 17 0
BBX 16 17 0 -2
BITMAP
0C00
0FFF
0FFF
0E03
1A03
1BFF
3618
36DB
76DB
D6DB
36FF
3618
36DB
35DB
35DB
39FF
3000
ENDCHAR
STARTCHAR 5016
ENCODING 20502
SWIDTH 1020 0
DWIDTH 17 0
BBX 17 17 0 -2
BITMAP
0C3000
0C3000
0C3000
0DFF00
183000
183000
37FF80
338C00
71CC00
D1D800
37FF00
303000
303000
37FF00
303000
303000
303000
ENDCHAR
STARTCHAR 5019
ENCODING 20505
SWIDTH 1020 0
DWIDTH 17 0
BBX 17 17 0 -2
BITMAP
180000
1BFC00
1BFC00
180C00
340C00
37FF80
35C000
75C000
75FF00
D5B000
363000
37FF80
343800
34E800
35CC00
338600
360380
ENDCHAR
STARTCHAR 501A
ENCODING 20506
SWIDTH 1020 0
DWIDTH 17 0
BBX 17 17 0 -2
BITMAP
0C3000
0C3000
0C3000
0FFF00
18E800
19CC00
378600
300000
77FF80
D00600
37F600
363600
363600
37F600
300600
300600
300E00
ENDCHAR
STARTCHAR 501F
ENCODING 20511
SWIDTH 1020 0
DWIDTH 17 0
BBX 17 17 0 -2
BITMAP
0DCC00
0DCC00
0DCC00
0DCC00
1BFF00
19CC00
31CC00
37FF80
700000
D3FE00
338600
338600
33FE00
338600
338600
33FE00
300000
ENDCHAR
STARTCHAR 5021
ENCODING 20513
SWIDTH 1020 0
DWIDTH 17 0
BBX 16 17 0 -2
BITMAP
0C00
0DFE
0DFE
0D86
1B86
1BFE
3386
3386
73FE
D000
37FF
3603
37FF
3603
3603
37FF
3000
ENDCHAR
STARTCHAR 5023
ENCODING 20515
SWIDTH 1020 0
DWIDTH 17 0
BBX 17 17 0 -2
BITMAP
0D9800
0D9800
0D9800
0D9800
1FFF80
1A1B00
361B00
37F300
76FA00
D6EA00
36EA00
36EC00
34EC00
34EA00
38F600
30E300
33C180
ENDCHAR
STARTCHAR 5024
ENCODING 20516
SWIDTH 1020 0
DWIDTH 17 0
BBX 17 17 0 -2
BITMAP
0C1800
0C1800
0C1800
0FFF80
181800
1AFE00
36C600
36C600
76FE00
D6C600
36FE00
36C600
36C600
36FE00
360000
37FF80
300000
ENDCHAR
STARTCHAR 5025
ENCODING 20517
SWIDTH 1020 0
DWIDTH 17 0
BBX 17 17 0 -2
BITMAP
0C3000
0C3000
0C3000
0FFF80
1AE980
1AE980
36E800
31DB00
738F00
D60000
33FE00
303000
303000
303000
303000
37FF80
300000
ENDCHAR
STARTCHAR 5026
ENCODING 20518
SWIDTH 1020 0
DWIDTH 17 0
BBX 17 17 0 -2
BITMAP
0DB600
0DD600
0DD600
0DD400
1FFF00
18E800
30E800
37FF80
71CC00
D38600
36FB00
341980
301800
33F800
338600
338600
31FE00
ENDCHAR
STARTCHAR 5028
ENCODING 20520
SWIDTH 1020 0
DWIDTH 17 0
BBX 17 17 0 -2
BITMAP
0C0000
0DFF00
0DFF00
0D8300
1B8300
1BFF00
339800
339800
73FF80
D39800
339800
36FF00
36C300
35C300
39C300
31FF00
300000
ENDCHAR
STARTCHAR 5029
ENCODING 20521
SWIDTH 1020 0
DWIDTH 17 0
BBX 17 17 0 -2
BITMAP
0C3000
0C3000
0C3000
0FFF00
183000
1BFE00
303000
37FF80
700000
D3FE00
33B600
33B600
33FE00
338600
338600
338600
338E00
ENDCHAR
STARTCHAR 502A
ENCODING 20522
SWIDTH 1020 0
DWIDTH 17 0
BBX 17 17 0 -2
BITMAP
0C3000
0CE000
0CE000
0FDE00
1A0600
1A0600
37DE00
360600
760600
D7FE00
30E800
30E800
31D800
31D980
339980
361980
340F80
ENDCHAR
STARTCHAR 502B
ENCODING 20523
SWIDTH 1020 0
DWIDTH 17 0
BBX 17 17 0 -2
BITMAP
0C3000
0CF000
0CF000
0CE800
19CC00
1B8600
36FD80
300000
700000
D7FF00
36EB00
36EB00
37FF00
36EB00
36EB00
36EB00
36EB00
ENDCHAR
STARTCHAR 502C
ENCODING 20524
SWIDTH 1020 0
DWIDTH 17 0
BBX 17 17 0 -2
BITMAP
0C3000
0C3000
0C3000
0C3F80
183000
1BFE00
338600
338600
73FE00
D38600
338600
33FE00
303000
37FF80
303000
303000
303000
ENDCHAR
STARTCHAR 502D
ENCODING 20525
SWIDTH 1020 0
DWIDTH 17 0
BBX 17 17 0 -2
BITMAP
0C0C00
0C3800
0C3800
0DF000
183000
1FFF80
30F800
33D600
763380
D0F000
37FF80
30EC00
31CC00
33E800
30F800
33CC00
360600
ENDCHAR
STARTCHAR 5036
ENCODING 20534
SWIDTH 1020 0
DWIDTH 17 0
BBX 17 17 0 -2
BITMAP
0C0000
0DFE00
0DFE00
0D8600
1B8600
1BFE00
338600
338600
73FE00
D38600
338600
33FE00
300000
37FF80
31DC00
338600
360300
ENDCHAR
STARTCHAR 5039
ENCODING 20537
SWIDTH 1020 0
DWIDTH 17 0
BBX 17 17 0 -2
BITMAP
0C3000
0C3000
0C3000
0CE800
19CC00
1B8600
3BFF00
3C3180
6BFE00
DBB600
1BB600
1BFE00
183800
18E800
19CC00
1B8600
1E0380
ENDCHAR
STARTCHAR 5043
ENCODING 20547
SWIDTH 1020 0
DWIDTH 17 0
BBX 17 17 0 -2
BITMAP
180000
1BFF80
1BFF80
1A0000
36FF00
36E300
76FF00
76E300
D6FF00
361800
37FF80
363600
36FC00
361A00
36F300
37FF80
360000
ENDCHAR
STARTCHAR 5047
ENCODING 20551
SWIDTH 1020 0
DWIDTH 17 0
BBX 17 17 0 -2
BITMAP
0C0000
0FEF00
0FEF00
0EE300
1AE300
1AE300
37EF00
360000
76FF00
D7D600
363600
361A00
37DC00
360C00
361A00
363300
36E180
ENDCHAR
STARTCHAR 5048
ENCODING 20552
SWIDTH 1020 0
DWIDTH 17 0
BBX 16 17 0 -2
BITMAP
0C00
0DFE
0DFE
0D86
1BFE
1B86
3386
33FE
71C0
D3FF
3633
3DBB
33AB
33C3
33FD
3003
301E
ENDCHAR
STARTCHAR 5049
ENCODING 20553
SWIDTH 1020 0
DWIDTH 17 0
BBX 17 17 0 -2
BITMAP
0C3000
0DFE00
0DFE00
0CE600
18E600
1FFF80
300000
33FE00
738600
D3FE00
301800
33FF00
339800
339800
37FF80
301800
301800
ENDCHAR
STARTCHAR 504F
ENCODING 20559
SWIDTH 1020 0
DWIDTH 17 0
BBX 16 17 0 -2
BITMAP
0C00
0FFF
0FFF
0C00
1BFE
1A06
3606
37FE
7600
D7FF
36EB
36EB
37FF
3AEB
36EB
36EB
3607
ENDCHAR
STARTCHAR 5050
ENCODING 20560
SWIDTH 1020 0
DWIDTH 17 0
BBX 17 17 0 -2
BITMAP
0C3000
0FFF80
0FFF80
0CEC00
183800
19EE00
37FF80
360C00
761800
D6F300
37C600
360C00
363980
35E300
340E00
383800
33E000
ENDCHAR
STARTCHAR 5055
ENCODING 20565
SWIDTH 1020 0
DWIDTH 17 0
BBX 17 17 0 -2
BITMAP
0D9800
0DBB00
0DBB00
0DEE00
1B9800
1B9800
33B980
33EF80
763000
D0E000
33FE00
338600
33FE00
338600
338600
33FE00
300000
ENDCHAR
STARTCHAR 5056
ENCODING 20566
SWIDTH 1020 0
DWIDTH 17 0
BBX 17 17 0 -2
BITMAP
0CE000
0CE600
0CE600
0FFE00
18EC00
18EC00
30E800
37FF80
70EC00
D1C600
31FE00
33C600
36FE00
35C600
31C600
31FE00
300000
ENDCHAR
STARTCHAR 505A
ENCODING 20570
SWIDTH 1020 0
DWIDTH 17 0
BBX 17 17 0 -2
BITMAP
1B9800
1B9800
1B9800
1B9800
1FEF80
33B600
33B600
73A600
739A00
D7EA00
34EA00
34EC00
34EC00
37EA00
303600
30E300
33C180
ENDCHAR
STARTCHAR 505C
ENCODING 20572
SWIDTH 1020 0
DWIDTH 17 0
BBX 16 17 1 -2
BITMAP
1860
1860
1860
1FFF
3000
37FC
670C
67FC
E000
6FFF
6803
6BFD
6060
6060
6060
6060
61E0
ENDCHAR
STARTCHAR 5065
ENCODING 20581
SWIDTH 1020 0
DWIDTH 17 0
BBX 17 17 0 -2
BITMAP
180C00
1FDF00
1FDF00
19CD00
1B8D00
33BF80
360D00
77CD00
71DF00
D6CC00
36DF00
36CC00
33BF80
338C00
36CC00
34F000
381F80
ENDCHAR
STARTCHAR 506C
ENCODING 20588
SWIDTH 1020 0
DWIDTH 17 0
BBX 17 17 0 -2
BITMAP
0DC000
0DC000
0DC000
0DFF00
1BB500
1BB500
36F500
34ED00
71DB00
D3B300
300E00
36D000
36DB00
36D980
35C680
38E680
303E00
ENDCHAR
STARTCHAR 5072
ENCODING 20594
SWIDTH 1020 0
DWIDTH 17 0
BBX 17 17 0 -2
BITMAP
0C0000
0DFF00
0DFF00
0DB300
1BB300
1BFF00
33B300
33B300
73B300
D3FF00
303000
31D800
36DB00
36C180
36C680
35C600
30FE00
ENDCHAR
STARTCHAR 5074
ENCODING 20596
SWIDTH 1020 0
DWIDTH 17 0
BBX 16 17 0 -2
BITMAP
1803
1FEB
1FEB
1CEB
34EB
37EB
74EB
74EB
D4EB
37EB
34EB
34EB
37EB
36C3
36E3
34E3
3807
ENDCHAR
STARTCHAR 5075
ENCODING 20597
SWIDTH 1020 0
DWIDTH 17 0
BBX 17 17 0 -2
BITMAP
0C3000
0C3000
0C3000
0C3F80
183000
1BFE00
3B8600
3B8600
6BFE00
DB8600
1BFE00
1B8600
1B8600
1BFE00
19DC00
1B8600
1E0300
ENDCHAR
STARTCHAR 5076
ENCODING 20598
SWIDTH 1020 0
DWIDTH 17 0
BBX 16 17 0 -2
BITMAP
0C00
0FFE
0FFE
0E36
1A36
1BFE
3636
3636
77FE
D030
37FF
343B
3435
343B
35E7
3403
3407
ENDCHAR
STARTCHAR 5078
ENCODING 20600
SWIDTH 1020 0
DWIDTH 17 0
BBX 17 17 0 -2
BITMAP
0DF000
0C3000
0C3000
0CE800
19CC00
1B8600
3DFD80
300000
77EB00
D6EB00
37AB00
36F600
37B600
36F600
36EB00
36EB00
36EB00
ENDCHAR
STARTCHAR 507D
ENCODING 20605
SWIDTH 1020 0
DWIDTH 17 0
BBX 16 17 0 -2
BITMAP
1A30
1BB0
1BB0
1BB0
1BFC
30EC
30EC
31FE
71C6
D386
33FF
361B
35AD
3AD5
36D3
3403
300E
ENDCHAR
STARTCHAR 5080
ENCODING 20608
SWIDTH 1020 0
DWIDTH 17 0
BBX 17 17 0 -2
BITMAP
0C3000
0CE000
0CE000
0FFE00
1AE600
1AE600
37FE00
36E600
76E600
D7FE00
31D600
31D600
33B500
33BF00
363180
341980
380F80
ENDCHAR
STARTCHAR 5085
ENCODING 20613
SWIDTH 1020 0
DWIDTH 17 0
BBX 17 17 0 -2
BITMAP
0C3600
0C3300
0C3300
0FFF80
183000
1BFE00
363600
37FE00
763600
D7FE00
363600
300C00
37FF80
338C00
31CC00
31CC00
301C00
ENDCHAR
STARTCHAR 508D
ENCODING 20621
SWIDTH 1020 0
DWIDTH 17 0
BBX 16 17 0 -2
BITMAP
0C30
0C30
0C30
0FFF
19CC
18E8
37FF
3603
7633
D030
37FF
30E0
30FE
30E6
31C6
3386
361C
ENDCHAR
STARTCHAR 5091
ENCODING 20625
SWIDTH 1020 0
DWIDTH 17 0
BBX 17 17 0 -2
BITMAP
0D8600
0DE600
0DE600
0DBF80
1BAA00
1AEA00
35DA00
31DF80
738600
D63600
303000
37FF80
30F400
31D600
33B300
363180
303000
ENDCHAR
STARTCHAR 5098
ENCODING 20632
SWIDTH 1020 0
DWIDTH 17 0
BBX 17 17 0 -2
BITMAP
01C000
01C000
01C000
03A000
0E3800
39CE00
E9CD80
19CC00
35DA00
6AD500
19CC00
35DA00
66D300
FFFF80
01C000
01C000
01C000
ENDCHAR
STARTCHAR 5099
ENCODING 20633
SWIDTH 1020 0
DWIDTH 17 0
BBX 17 17 0 -2
BITMAP
0DCC00
0DCC00
0DCC00
0FFF00
19CC00
19CC00
37FF80
360000
76FF00
D6DB00
36FF00
36DB00
36DB00
35FF00
35DB00
39DB00
31C700
ENDCHAR
STARTCHAR 509A
ENCODING 20634
SWIDTH 1020 0
DWIDTH 17 0
BBX 17 17 0 -2
BITMAP
1B9800
1B9800
1B9800
1B9800
3FEF80
301A00
36D600
76D600
74EA00
DADA00
36DA00
338C00
33CC00
36EE00
361A00
343300
39E180
ENDCHAR
STARTCHAR 50AC
ENCODING 20652
SWIDTH 1020 0
DWIDTH 17 0
BBX 17 17 0 -2
BITMAP
0C3000
0DB300
0DB300
0DB300
1BFF00
19CC00
31D800
33FF00
739800
D79800
35FF00
339800
33FF00
339800
339800
33FF80
300000
ENDCHAR
STARTCHAR 50AD
ENCODING 20653
SWIDTH 1020 0
DWIDTH 17 0
BBX 17 17 0 -2
BITMAP
0C3000
0FFF80
0FFF80
0E1800
1AFF00
1A1B00
37FF80
361B00
76FF00
D61800
36FF00
36DB00
35FF00
35DB00
39FF00
31DB00
31DB00
ENDCHAR
STARTCHAR 50B2
ENCODING 20658
SWIDTH 1020 0
DWIDTH 17 0
BBX 17 17 0 -2
BITMAP
1B9800
1B9800
1B9800
1FE800
1B9F80
339A00
37F600
73A600
739A00
DFFA00
339A00
33EC00
33AC00
36EA00
36EA00
34F300
33C180
ENDCHAR
STARTCHAR 50B3
ENCODING 20659
SWIDTH 1020 0
DWIDTH 17 0
BBX 17 17 0 -2
BITMAP
0C3000
0C3000
0C3000
0FFF80
183000
1BFE00
363600
37FE00
763600
D7FE00
303700
37FD80
300C00
37FF00
338C00
31CC00
301C00
ENDCHAR
STARTCHAR 50B4
ENCODING 20660
SWIDTH 1020 0
DWIDTH 17 0
BBX 17 17 0 -2
BITMAP
0C0000
0FFF00
0FFF00
0E0000
1AFC00
1AEC00
36EC00
36FC00
760000
D6F700
36D500
36D500
36D500
36F700
360000
37FF80
300000
ENDCHAR
STARTCHAR 50B5
ENCODING 20661
SWIDTH 1020 0
DWIDTH 17 0
BBX 17 17 0 -2
BITMAP
0C3000
0FFF00
0FFF00
0C3000
1BFE00
183000
3FFF80
300000
73FE00
D38600
33FE00
338600
33FE00
338600
33FE00
31CE00
378380
ENDCHAR
STARTCHAR 50B7
ENCODING 20663
SWIDTH 1020 0
DWIDTH 17 0
BBX 17 17 0 -2
BITMAP
0DC000
0DFF00
0DFF00
0D8000
1BFC00
1ACC00
35FC00
31CC00
71FC00
D00000
37FF80
31C000
33FF00
36ED00
33DB00
363300
31EE00
ENDCHAR
STARTCHAR 50BE
ENCODING 20670
SWIDTH 1020 0
DWIDTH 17 0
BBX 17 17 0 -2
BITMAP
180000
1BFF80
1BFF80
181800
343000
34FF00
35A300
76E300
D4FF00
34E300
34FF00
35A300
35A300
37BF00
301A00
303300
31E180
ENDCHAR
STARTCHAR 50C2
ENCODING 20674
SWIDTH 1020 0
DWIDTH 17 0
BBX 17 17 0 -2
BITMAP
0C3000
0DFF00
0DFF00
0DB300
1FFF80
1BB300
33FF00
303000
73FF00
D3B300
33FF00
303000
37FF80
30E600
31FC00
303A00
33E300
ENDCHAR
STARTCHAR 50C5
ENCODING 20677
SWIDTH 1020 0
DWIDTH 17 0
BBX 17 17 0 -2
BITMAP
0DCC00
0DCC00
0DCC00
0FFF80
19CC00
1BFF00
363300
363300
77FF00
D03000
33FE00
303000
33FE00
303000
303000
37FF80
300000
ENDCHAR
STARTCHAR 50C9
ENCODING 20681
SWIDTH 1020 0
DWIDTH 17 0
BBX 17 17 0 -2
BITMAP
01C000
01C000
01C000
03A000
063000
0C1800
3BF600
E00380
3FBE00
33A600
33A600
3FBE00
0C1800
0E1C00
1BB600
33A300
E1C000
ENDCHAR
STARTCHAR 50CA
ENCODING 20682
SWIDTH 1020 0
DWIDTH 17 0
BBX 17 17 0 -2
BITMAP
180000
1FFF80
1FFF80
19D800
1BFE00
36DA00
36DA00
77FE00
71C000
D7FF80
338C00
37FA00
359B80
3BF800
338600
338600
31FE00
ENDCHAR
STARTCHAR 50CD
ENCODING 20685
SWIDTH 1020 0
DWIDTH 17 0
BBX 16 17 0 -2
BITMAP
19EC
1F8C
1F8C
1B8C
1FF4
339F
37F5
75B5
77F5
D5B5
37F5
338D
37ED
33BB
33EB
3E33
30EE
ENDCHAR
STARTCHAR 50CF
ENCODING 20687
SWIDTH 1020 0
DWIDTH 17 0
BBX 17 17 0 -2
BITMAP
0CE000
0CFC00
0CFC00
0DCC00
1B9800
1DFF00
33B300
33B300
73FF00
D1E600
37B600
31EC00
37BC00
30EA00
33DB00
361980
30F000
ENDCHAR
STARTCHAR 50D1
ENCODING 20689
SWIDTH 1020 0
DWIDTH 17 0
BBX 17 17 0 -2
BITMAP
0C0E00
0DF800
0DF800
0CE000
1FFF80
19CC00
33FE00
36CD80
71FC00
D00000
37FF00
360300
36FD00
36CD00
36FD00
360300
360700
ENDCHAR
STARTCHAR 50D5
ENCODING 20693
SWIDTH 1020 0
DWIDTH 17 0
BBX 17 17 0 -2
BITMAP
0CE800
0EEB00
0EEB00
0DAA00
18E800
1FFF80
338C00
31D800
77FF00
D03000
37FE00
303000
37FF80
30E800
31CC00
378600
3C0380
ENDCHAR
STARTCHAR 50D6
ENCODING 20694
SWIDTH 1020 0
DWIDTH 17 0
BBX 17 17 0 -2
BITMAP
0C3000
0FFF80
0FFF80
0C3000
1BFE00
180000
37FE00
360600
77FE00
D38C00
31D800
3FFF80
300000
37FE00
360600
37FE00
300000
ENDCHAR
STARTCHAR 50DA
ENCODING 20698
SWIDTH 1020 0
DWIDTH 17 0
BBX 17 17 0 -2
BITMAP
0C3000
0C3000
0C3000
0FFF80
18E800
1ACD00
338600
37FF00
758680
D3FE00
338600
33FE00
303400
33B600
363300
343300
30F000
ENDCHAR
STARTCHAR 50DE
ENCODING 20702
SWIDTH 1020 0
DWIDTH 17 0
BBX 17 17 0 -2
BITMAP
181C00
1BF000
1BF000
1BAC00
1AE600
37FA00
361800
761800
77FE00
D60600
360600
37FF80
343680
35DA80
3AE980
33A300
338E00
ENDCHAR
STARTCHAR 50E3
ENCODING 20707
SWIDTH 1020 0
DWIDTH 17 0
BBX 17 17 0 -2
BITMAP
1B8C00
1B8C00
1B8C00
1FEF00
1B8C00
37FF80
338C00
76CE00
76EB00
D43180
3BFE00
338600
33FE00
338600
338600
33FE00
300000
ENDCHAR
STARTCHAR 50E5
ENCODING 20709
SWIDTH 1020 0
DWIDTH 17 0
BBX 17 17 0 -2
BITMAP
0C3000
0DFE00
0DFE00
0C3000
1BFF00
180000
338600
37EF80
738600
D3E600
361F80
300000
37FF80
30E800
31D980
379980
3C0F80
ENDCHAR
STARTCHAR 50E7
ENCODING 20711
SWIDTH 1020 0
DWIDTH 17 0
BBX 16 17 0 -2
BITMAP
0D86
0DCC
0DCC
0FFF
1A33
1BFF
3633
3633
77FF
D000
33FE
3386
33FE
3386
3386
33FE
3000
ENDCHAR
STARTCHAR 50ED
ENCODING 20717
SWIDTH 1020 0
DWIDTH 17 0
BBX 17 17 0 -2
BITMAP
19C600
1FEF00
1FEF00
1ADA00
1ADA00
37FF80
33D600
76EE80
76DB80
D43000
33FE00
338600
33FE00
338600
338600
33FE00
300000
ENDCHAR
STARTCHAR 50EE
ENCODING 20718
SWIDTH 1020 0
DWIDTH 17 0
BBX 17 17 0 -2
BITMAP
0C3000
0C3000
0C3000
0FFF00
19CC00
1FFF80
300000
33FE00
73B600
D3FE00
33B600
33FE00
303000
37FF00
303000
37FF80
300000
ENDCHAR
STARTCHAR 50F5
ENCODING 20725
SWIDTH 1020 0
DWIDTH 17 0
BBX 17 17 0 -2
BITMAP
0C0000
0FFF80
0FFF80
0C0000
1BFE00
1BB600
33FE00
33B600
77FF80
D00000
33FE00
33B600
33FE00
33B600
33FE00
37FF80
300000
ENDCHAR
STARTCHAR 50F9
ENCODING 20729
SWIDTH 1020 0
DWIDTH 17 0
BBX 17 17 0 -2
BITMAP
0C0000
0FFF80
0FFF80
0DD800
1BFF00
1ADB00
37FF00
300000
73FE00
D38600
33FE00
338600
33FE00
338600
33FE00
31CE00
378300
ENDCHAR
STARTCHAR 50FB
ENCODING 20731
SWIDTH 1020 0
DWIDTH 17 0
BBX 17 17 0 -2
BITMAP
180C00
1BEC00
1BEC00
1AFF80
36E300
36F300
37EA00
761A00
76FF80
D60C00
37EC00
36FF80
3AEC00
36EC00
37EC00
36EC00
360C00
ENDCHAR
STARTCHAR 5100
ENCODING 20736
SWIDTH 1020 0
DWIDTH 17 0
BBX 17 17 0 -2
BITMAP
1B8C00
19D800
19D800
3BFF00
303000
33FC00
703000
77FF80
D0EC00
37DA00
339800
37FF80
339B00
33EE00
378D00
339B00
37B300
ENDCHAR
STARTCHAR 5101
ENCODING 20737
SWIDTH 1020 0
DWIDTH 17 0
BBX 17 17 0 -2
BITMAP
0DCC00
0DD800
0DD800
0DFF80
1B9800
1BFF00
359800
33FF00
739800
D3FF80
300000
37EF00
36EB00
36EB00
36FB00
360300
360700
ENDCHAR
STARTCHAR 5102
ENCODING 20738
SWIDTH 1020 0
DWIDTH 17 0
BBX 17 17 0 -2
BITMAP
0CE800
0DFE00
0DFE00
0DAA00
1BFE00
1BAA00
33FE00
300000
77FF80
D60000
36FE00
360000
37FF80
36D600
35DC00
39F600
378380
ENDCHAR
STARTCHAR 5104
ENCODING 20740
SWIDTH 1020 0
DWIDTH 17 0
BBX 17 17 0 -2
BITMAP
0C3000
0C3000
0C3000
0FFF00
1B8600
19CC00
37FF80
300000
73FE00
D38600
33FE00
338600
33FE00
36D300
36D980
35C680
30FE00
ENDCHAR
STARTCHAR 5109
ENCODING 20745
SWIDTH 1020 0
DWIDTH 17 0
BBX 17 17 0 -2
BITMAP
0C3000
0C3000
0C3000
0CE800
19CC00
1B8600
36FD80
300000
77EF00
D6EB00
36EB00
37EF00
338C00
338C00
33CE00
36EB00
343180
ENDCHAR
STARTCHAR 5112
ENCODING 20754
SWIDTH 1020 0
DWIDTH 17 0
BBX 17 17 0 -2
BITMAP
0C0000
0FFF00
0FFF00
0C3000
1FFF80
1C3180
35D680
343180
73D600
D00000
37FF00
303000
37FF00
36EB00
36EB00
36EB00
360700
ENDCHAR
STARTCHAR 5114
ENCODING 20756
SWIDTH 1020 0
DWIDTH 17 0
BBX 17 17 0 -2
BITMAP
0C3000
0FFF00
0FFF00
0C3000
1BFE00
180000
37FF80
303300
77FC00
D00000
37FF80
300600
37FF80
35D600
35DA00
37C600
300E00
ENDCHAR
STARTCHAR 5115
ENCODING 20757
SWIDTH 1020 0
DWIDTH 17 0
BBX 17 17 0 -2
BITMAP
0C3000
0C3000
0C3000
0FFF80
18E980
1FD700
36D500
36D500
75D680
D00000
338600
33FE00
338600
33FE00
338600
360600
340600
ENDCHAR
STARTCHAR 5116
ENCODING 20758
SWIDTH 1020 0
DWIDTH 17 0
BBX 17 17 0 -2
BITMAP
180C00
1FEC00
1FEC00
1D8C00
359F80
37E800
74F000
77EF80
D58000
37E000
300000
37FF00
36EB00
36EB00
36EB00
3FFF80
300000
ENDCHAR
STARTCHAR 5118
ENCODING 20760
SWIDTH 1020 0
DWIDTH 17 0
BBX 17 17 0 -2
BITMAP
0C3000
0DFE00
0DFE00
0C3600
1BFF80
183600
33FE00
303000
77FF80
D6D600
36EB00
340300
37FE00
36DA00
36DA00
3FFF80
300000
ENDCHAR
STARTCHAR 511A
ENCODING 20762
SWIDTH 1020 0
DWIDTH 17 0
BBX 17 17 0 -2
BITMAP
0DCC00
0DCC00
0DCC00
0FFF80
19CC00
1BFF00
36EB00
37FF00
700000
D7FF80
343180
34FE80
31E600
37B400
301800
30F000
37C000
ENDCHAR
STARTCHAR 511F
ENCODING 20767
SWIDTH 1020 0
DWIDTH 17 0
BBX 16 17 0 -2
BITMAP
0DB6
0DD4
0DD4
0FFF
1A03
1AFD
31CC
31FC
73FE
D386
33FE
3386
33FE
3386
33FE
31EE
3783
ENDCHAR
STARTCHAR 5121
ENCODING 20769
SWIDTH 1020 0
DWIDTH 17 0
BBX 17 17 0 -2
BITMAP
0C0000
0DFE00
0DFE00
0DB600
1BFE00
1BB600
33B600
33FE00
700000
D7EF80
35AA80
35AA80
37EF80
35AA80
35AA80
37EF80
300000
ENDCHAR
STARTCHAR 512A
ENCODING 20778
SWIDTH 1020 0
DWIDTH 17 0
BBX 17 17 0 -2
BITMAP
0C0000
0FFF80
0FFF80
0C3000
1BFE00
1B8600
33FE00
338600
77FF80
D5D680
36DB00
36FE80
35CD80
37A800
303800
31EE00
378380
ENDCHAR
STARTCHAR 5132
ENCODING 20786
SWIDTH 1020 0
DWIDTH 17 0
BBX 17 17 0 -2
BITMAP
180C00
1BCC00
1BCC00
183F00
3FED00
300E00
37CE00
70FF80
701800
D7DF00
30F300
37D300
35DF00
35D300
35D300
37DF00
300000
ENDCHAR
STARTCHAR 5137
ENCODING 20791
SWIDTH 1020 0
DWIDTH 17 0
BBX 17 17 0 -2
BITMAP
1BEF80
180000
180000
1FEF80
1CE980
35AA80
303000
77FF80
76E800
D7FF00
36EB00
37FF00
379800
35FF00
359800
3BE980
378F80
ENDCHAR
STARTCHAR 513A
ENCODING 20794
SWIDTH 1020 0
DWIDTH 17 0
BBX 17 17 0 -2
BITMAP
1ACD00
1FF500
1FF500
1ADA00
1BDF80
33BA00
37EA00
75AA00
77EF80
D39A00
37EA00
339F80
37EA00
36DA00
36EA00
34EF80
380000
ENDCHAR
STARTCHAR 513B
ENCODING 20795
SWIDTH 1020 0
DWIDTH 17 0
BBX 17 17 0 -2
BITMAP
0DB600
0DD400
0DD400
0FFF00
1ACD00
1AFD00
300000
33FE00
73B600
D3DA00
33FE00
303000
37FF00
303000
37FF80
36DB00
34ED80
ENDCHAR
STARTCHAR 513C
ENCODING 20796
SWIDTH 1020 0
DWIDTH 17 0
BBX 17 17 0 -2
BITMAP
180000
1BEF00
1BEF00
1AEB00
1BEF00
300000
37FF80
740C00
77F400
D5CF80
37FB00
35AD00
35ED00
35E600
35B600
3BEB00
30F180
ENDCHAR
STARTCHAR 513F
ENCODING 20799
SWIDTH 1020 0
DWIDTH 17 0
BBX 17 17 0 -2
BITMAP
063000
063000
063000
063000
063000
063000
063000
063000
063000
063000
063000
063000
0C3180
0C3180
181980
300F80
E00000
ENDCHAR
STARTCHAR 5140
ENCODING 20800
SWIDTH 1020 0
DWIDTH 17 0
BBX 17 16 0 -2
BITMAP
FFFF80
FFFF80
063000
063000
063000
063000
063000
063000
063000
063000
063000
0C3000
0C3180
181980
300F80
E00000
ENDCHAR
STARTCHAR 5141
ENCODING 20801
SWIDTH 1020 0
DWIDTH 17 0
BBX 16 17 0 -2
BITMAP
0380
0380
0380
03A0
0630
061C
0DFA
FFA3
06E0
06E0
06E0
0CE0
0CE0
18E0
18E3
3033
601F
ENDCHAR
STARTCHAR 5143
ENCODING 20803
SWIDTH 1020 0
DWIDTH 17 0
BBX 17 16 0 -2
BITMAP
1FFC00
1FFC00
000000
000000
000000
000000
FFFF80
063000
063000
063000
063000
0C3000
0C3000
183180
301980
600F80
ENDCHAR
STARTCHAR 5144
ENCODING 20804
SWIDTH 1020 0
DWIDTH 17 0
BBX 15 16 1 -2
BITMAP
3FF8
3FF8
3018
3018
3018
3018
3018
3FF8
0DC0
0DC0
0DC0
19C0
19C6
31C6
6066
C03E
ENDCHAR
STARTCHAR 5145
ENCODING 20805
SWIDTH 1020 0
DWIDTH 17 0
BBX 17 17 0 -2
BITMAP
01C000
01C000
01C000
FFFF80
038000
03B000
061C00
0CFA00
3FD300
03B000
03B000
03B000
063000
063300
0C3300
183300
701F00
ENDCHAR
STARTCHAR 5146
ENCODING 20806
SWIDTH 1020 0
DWIDTH 17 0
BBX 17 17 0 -2
BITMAP
06E000
06E000
06E000
06E600
66E600
36EC00
1AE800
06E000
06E000
0EF800
3AEE00
E6E300
0CE000
0CE000
18E180
303180
E01F80
ENDCHAR
STARTCHAR 5147
ENCODING 20807
SWIDTH 1020 0
DWIDTH 17 0
BBX 16 17 0 -2
BITMAP
0030
3034
3034
36EC
33AC
31CC
33AC
3634
3C34
300C
3FFC
06E0
06E0
0CE0
18E3
3033
E01F
ENDCHAR
STARTCHAR 5148
ENCODING 20808
SWIDTH 1020 0
DWIDTH 17 0
BBX 17 17 0 -2
BITMAP
01C000
0DC000
0DC000
0DC000
0FFE00
19C000
19C000
31C000
FFFF80
03B000
03B000
03B000
063000
063000
0C3180
181980
700F80
ENDCHAR
STARTCHAR 5149
ENCODING 20809
SWIDTH 1020 0
DWIDTH 17 0
BBX 17 17 0 -2
BITMAP
01C000
01C000
01C000
19CC00
0DCC00
0DD800
0DD000
01C000
FFFF80
03B000
03B000
03B000
063000
063000
0C3180
181980
700F80
ENDCHAR
STARTCHAR 514B
ENCODING 20811
SWIDTH 1020 0
DWIDTH 17 0
BBX 16 17 0 -2
BITMAP
0380
0380
0380
FFFF
0380
0380
3FF8
3018
3018
3018
3FF8
06E0
06E0
06E0
0CE3
3833
E01F
ENDCHAR
STARTCHAR 514C
ENCODING 20812
SWIDTH 1020 0
DWIDTH 17 0
BBX 17 17 0 -2
BITMAP
03F000
0C3000
0C3000
0C3000
181800
1FF800
381C00
681A00
D81B80
181800
1FF800
06E000
06E000
06E000
0CE180
383180
E01F80
ENDCHAR
STARTCHAR 514D
ENCODING 20813
SWIDTH 1020 0
DWIDTH 17 0
BBX 17 17 0 -2
BITMAP
038000
03F000
03F000
063000
0CE000
19C000
7FFE00
19C600
19C600
19C600
1FFE00
03B000
03B000
063000
0C3180
381980
E00F80
ENDCHAR
STARTCHAR 514E
ENCODING 20814
SWIDTH 1020 0
DWIDTH 17 0
BBX 16 17 0 -2
BITMAP
000C
0038
0038
7FE0
0380
0380
3FFC
338C
338C
338C
3FFC
06E8
06EC
06EC
0CE3
38E3
E03F
ENDCHAR
STARTCHAR 5150
ENCODING 20816
SWIDTH 1020 0
DWIDTH 17 0
BBX 17 17 0 -2
BITMAP
300000
33FE00
33FE00
338600
338600
338600
33FE00
338600
338600
338600
33FE00
36E000
06E000
06E000
0CE180
38E180
E03F80
ENDCHAR
STARTCHAR 5152
ENCODING 20818
SWIDTH 1020 0
DWIDTH 17 0
BBX 17 17 0 -2
BITMAP
038000
060000
060000
3DFE00
300600
300600
3EFE00
300600
300600
300600
3FFE00
06E000
06E000
06E180
0CE180
383180
E01F80
ENDCHAR
STARTCHAR 5154
ENCODING 20820
SWIDTH 1020 0
DWIDTH 17 0
BBX 17 17 0 -2
BITMAP
038000
03F000
03F000
063000
0CE000
39C000
FFFC00
31CC00
31CC00
338C00
3FFC00
03A800
06EC00
06EC00
0CE180
383180
E01F80
ENDCHAR
STARTCHAR 515A
ENCODING 20826
SWIDTH 1020 0
DWIDTH 17 0
BBX 16 17 0 -2
BITMAP
01C0
19CC
19CC
0DCC
0DD8
FFFF
C003
DFFB
D81B
1818
1FF8
06E0
06E0
06E3
0CE3
3833
E01F
ENDCHAR
STARTCHAR 515C
ENCODING 20828
SWIDTH 1020 0
DWIDTH 17 0
BBX 16 17 0 -2
BITMAP
0DC0
1B80
1B80
77EE
66E6
66E6
67E6
66E6
66E6
7BEE
0000
06E0
06E0
06E3
0CE3
38E3
E03F
ENDCHAR
STARTCHAR 5162
ENCODING 20834
SWIDTH 1020 0
DWIDTH 17 0
BBX 17 17 0 -2
BITMAP
181800
181800
181800
FFFF80
181800
181800
7EFE00
66E600
66E600
66E600
7EFE00
343400
343400
35AC00
6EED80
6DCD80
C38780
ENDCHAR
STARTCHAR 5165
ENCODING 20837
SWIDTH 1020 0
DWIDTH 17 0
BBX 17 17 0 -2
BITMAP
07C000
01C000
01C000
01C000
01C000
01C000
01C000
01C000
03A000
03A000
063000
063000
0C1800
180C00
300600
600300
C00180
ENDCHAR
STARTCHAR 5168
ENCODING 20840
SWIDTH 1020 0
DWIDTH 17 0
BBX 17 16 0 -1
BITMAP
01C000
01C000
01C000
03A000
063000
0C1800
380E00
EFFD80
01C000
01C000
01C000
3FFC00
01C000
01C000
01C000
FFFF80
ENDCHAR
STARTCHAR 5169
ENCODING 20841
SWIDTH 1020 0
DWIDTH 17 0
BBX 17 16 0 -2
BITMAP
FFFF80
FFFF80
01C000
01C000
7FFF00
61C300
61C300
6DDB00
6DDB00
6DDB00
6AD500
6AD500
73E700
61C300
61C300
61C700
ENDCHAR
STARTCHAR 516A
ENCODING 20842
SWIDTH 1020 0
DWIDTH 17 0
BBX 17 17 0 -2
BITMAP
01C000
03A000
03A000
063000
0C1800
380E00
EFFB80
000000
7E3300
663300
6AE600
6ECC00
679800
6ACC00
6EE600
663300
6E3300
ENDCHAR
STARTCHAR 516B
ENCODING 20843
SWIDTH 1020 0
DWIDTH 17 0
BBX 17 16 0 -2
BITMAP
07F000
07F000
003000
003000
0C3000
0C3000
0C3000
0C3000
0C1800
0C1800
0C1800
180C00
180C00
300600
600300
C00180
ENDCHAR
STARTCHAR 516C
ENCODING 20844
SWIDTH 1020 0
DWIDTH 17 0
BBX 17 17 0 -2
BITMAP
03F000
0C3000
0C3000
0C3000
0C1800
181800
180C00
338600
638300
C38180
03A000
063000
061800
0C0C00
0DFC00
7E0600
000600
ENDCHAR
STARTCHAR 516D
ENCODING 20845
SWIDTH 1020 0
DWIDTH 17 0
BBX 17 16 0 -1
BITMAP
01C000
01C000
01C000
01C000
01C000
FFFF80
000000
000000
000000
0C3000
0C1800
0C0C00
180C00
180600
300600
600600
ENDCHAR
STARTCHAR 516E
ENCODING 20846
SWIDTH 1020 0
DWIDTH 17 0
BBX 17 17 0 -2
BITMAP
01F000
063000
063000
061800
0C1800
1FFC00
338600
638300
C60180
0FFC00
0C0C00
000C00
000C00
000C00
001800
001800
00F000
ENDCHAR
STARTCHAR 5171
ENCODING 20849
SWIDTH 1020 0
DWIDTH 17 0
BBX 17 17 0 -2
BITMAP
0C3000
0C3000
0C3000
0C3000
0C3000
7FFE00
0C3000
0C3000
0C3000
0C3000
FFFF80
000000
0C3000
0C1800
180C00
300600
600600
ENDCHAR
STARTCHAR 5175
ENCODING 20853
SWIDTH 1020 0
DWIDTH 17 0
BBX 17 17 0 -2
BITMAP
001800
01F000
01F000
0F8000
0C0000
0FFF00
0C1800
0C1800
0C1800
0C1800
0C1800
FFFF80
000000
063000
0C1C00
180600
700300
ENDCHAR
STARTCHAR 5176
ENCODING 20854
SWIDTH 1020 0
DWIDTH 17 0
BBX 17 17 0 -2
BITMAP
0C1800
0C1800
0C1800
7FFF00
0C1800
0C1800
0FF800
0C1800
0C1800
0FF800
0C1800
0C1800
FFFF80
000000
063800
1C0E00
700300
ENDCHAR
STARTCHAR 5177
ENCODING 20855
SWIDTH 1020 0
DWIDTH 17 0
BBX 17 16 0 -2
BITMAP
1FF800
1FF800
181800
181800
1FF800
181800
181800
1FF800
181800
181800
1FF800
000000
FFFF80
0CF000
381C00
E00600
ENDCHAR
STARTCHAR 5178
ENCODING 20856
SWIDTH 1020 0
DWIDTH 17 0
BBX 17 17 0 -2
BITMAP
063000
063000
063000
063000
3FFE00
363600
363600
363600
3FFE00
363600
363600
363600
FFFF80
000000
0E3800
380E00
E00300
ENDCHAR
STARTCHAR 517C
ENCODING 20860
SWIDTH 1020 0
DWIDTH 17 0
BBX 16 17 0 -2
BITMAP
1818
0C30
0C30
FFFF
06E0
3FFC
06EC
06EC
FFFF
06EC
3FFC
06E0
0EF0
1AE8
36EC
E6E7
06E0
ENDCHAR
STARTCHAR 5180
ENCODING 20864
SWIDTH 1020 0
DWIDTH 17 0
BBX 17 17 0 -2
BITMAP
063300
FE3600
FE3600
063D80
1E3180
F61F80
1FFC00
19CC00
1FFC00
19CC00
1FFC00
063000
3FFE00
063000
FFFF80
0E3C00
F80700
ENDCHAR
STARTCHAR 5182
ENCODING 20866
SWIDTH 1020 0
DWIDTH 17 0
BBX 15 16 1 -2
BITMAP
FFFE
FFFE
C006
C006
C006
C006
C006
C006
C006
C006
C006
C006
C006
C006
C006
C00E
ENDCHAR
STARTCHAR 5185
ENCODING 20869
SWIDTH 1020 0
DWIDTH 17 0
BBX 15 17 1 -2
BITMAP
0380
0380
0380
0380
FFFE
C386
C386
C746
C746
CC66
D836
D01A
C006
C006
C006
C006
C00E
ENDCHAR
STARTCHAR 5186
ENCODING 20870
SWIDTH 1020 0
DWIDTH 17 0
BBX 14 16 1 -2
BITMAP
FFFC
FFFC
C70C
C70C
C70C
C70C
C70C
FFFC
C00C
C00C
C00C
C00C
C00C
C00C
C00C
C01C
ENDCHAR
STARTCHAR 5189
ENCODING 20873
SWIDTH 1020 0
DWIDTH 17 0
BBX 17 17 0 -2
BITMAP
01C000
01C000
01C000
01C000
3FFE00
31C600
31C600
3FFE00
31C600
31C600
31C600
FFFF80
300600
300600
300600
300600
300E00
ENDCHAR
STARTCHAR 518A
ENCODING 20874
SWIDTH 1020 0
DWIDTH 17 0
BBX 17 16 0 -2
BITMAP
3FFE00
3FFE00
363600
363600
363600
363600
363600
FFFF80
363600
363600
363600
363600
363600
363600
363600
363600
ENDCHAR
STARTCHAR 518C
ENCODING 20876
SWIDTH 1020 0
DWIDTH 17 0
BBX 17 16 0 -2
BITMAP
3E3E00
3E3E00
363600
363600
363600
363600
363600
FFFF80
363600
363600
363600
363600
36E600
36E600
6EC600
C38E00
ENDCHAR
STARTCHAR 518D
ENCODING 20877
SWIDTH 1020 0
DWIDTH 17 0
BBX 17 16 0 -2
BITMAP
7FFF00
7FFF00
01C000
01C000
1FFC00
19CC00
19CC00
1FFC00
19CC00
19CC00
19CC00
FFFF80
180C00
180C00
180C00
181C00
ENDCHAR
STARTCHAR 518F
ENCODING 20879
SWIDTH 1020 0
DWIDTH 17 0
BBX 15 16 1 -2
BITMAP
FFFE
FFFE
CC66
CC66
CC66
CC6E
D83E
D006
EFE6
CC66
CC66
CC66
CFE6
C006
C006
C00E
ENDCHAR
STARTCHAR 5190
ENCODING 20880
SWIDTH 1020 0
DWIDTH 17 0
BBX 15 16 1 -2
BITMAP
FFFE
FFFE
C006
DFFA
C006
DFFA
0000
0000
3FF8
3018
3FF8
3018
3FF8
3018
3018
3038
ENDCHAR
STARTCHAR 5191
ENCODING 20881
SWIDTH 1020 0
DWIDTH 17 0
BBX 15 17 1 -2
BITMAP
0380
0380
0380
FFFE
C386
FFFE
C386
FFFE
0000
7FFC
600C
6FF4
600C
6FF4
600C
600C
601C
ENDCHAR
STARTCHAR 5192
ENCODING 20882
SWIDTH 1020 0
DWIDTH 17 0
BBX 14 15 1 -1
BITMAP
FFFC
FFFC
C00C
FFFC
C00C
FFFC
0000
3FF0
3030
3FF0
3030
3FF0
3030
3030
3FF0
ENDCHAR
STARTCHAR 5193
ENCODING 20883
SWIDTH 1020 0
DWIDTH 17 0
BBX 17 17 0 -2
BITMAP
063000
063000
063000
7FFF00
063000
3FFE00
063000
FFFF80
01C000
1FFC00
19CC00
1FFC00
19CC00
FFFF80
180C00
180C00
181C00
ENDCHAR
STARTCHAR 5195
ENCODING 20885
SWIDTH 1020 0
DWIDTH 17 0
BBX 16 16 0 -2
BITMAP
7FFE
7FFE
6006
6FFA
6006
6FFA
6606
0FE0
39C0
FFF8
3398
3398
3FFB
06E3
1CE3
F03F
ENDCHAR
STARTCHAR 5196
ENCODING 20886
SWIDTH 1020 0
DWIDTH 17 0
BBX 16 4 0 4
BITMAP
FFFF
C003
C003
C003
ENDCHAR
STARTCHAR 5197
ENCODING 20887
SWIDTH 1020 0
DWIDTH 17 0
BBX 16 16 0 -2
BITMAP
FFFF
FFFF
C003
C003
C7F3
0630
0630
0630
0630
0630
0C30
0C30
1830
1833
3033
601F
ENDCHAR
STARTCHAR 5199
ENCODING 20889
SWIDTH 1020 0
DWIDTH 17 0
BBX 16 16 0 -2
BITMAP
FFFF
FFFF
C003
CC03
CFFB
0C00
0C00
0FF0
0030
0030
FFFF
0030
0030
0030
00E0
07C0
ENDCHAR
STARTCHAR 51A0
ENCODING 20896
SWIDTH 1020 0
DWIDTH 17 0
BBX 16 16 0 -2
BITMAP
FFFF
FFFF
C003
C003
7F8C
000C
01FF
FF8C
36CC
36EC
36EC
360C
360C
661D
6383
C1FF
ENDCHAR
STARTCHAR 51A2
ENCODING 20898
SWIDTH 1020 0
DWIDTH 17 0
BBX 17 16 0 -2
BITMAP
FFFF00
FFFF00
C00300
C00300
3FFC00
060000
1D8C00
F3AC00
36E800
1DD000
FBD000
0ED800
1DCE00
F1C380
01C000
078000
ENDCHAR
STARTCHAR 51A4
ENCODING 20900
SWIDTH 1020 0
DWIDTH 17 0
BBX 16 16 0 -2
BITMAP
FFFF
FFFF
C383
C7F3
0CE0
39C0
FFFC
338C
338C
3FFC
06E0
06E8
0CEC
18E3
3033
E01F
ENDCHAR
STARTCHAR 51A5
ENCODING 20901
SWIDTH 1020 0
DWIDTH 17 0
BBX 16 16 0 -2
BITMAP
FFFF
FFFF
C003
DFFB
1818
1818
1FF8
1818
1818
1FF8
0380
FFFF
0000
0CF0
381C
E006
ENDCHAR
STARTCHAR 51A6
ENCODING 20902
SWIDTH 1020 0
DWIDTH 17 0
BBX 16 16 0 -2
BITMAP
FFFF
FFFF
C033
C033
7E3E
0030
01FC
FF8C
34EC
34E8
3438
34EC
35C7
6C03
6603
C3FF
ENDCHAR
STARTCHAR 51A8
ENCODING 20904
SWIDTH 1020 0
DWIDTH 17 0
BBX 16 15 0 -1
BITMAP
FFFF
FFFF
C003
DFFD
0000
1FF8
1818
1FF8
0000
3FFC
338C
3FFC
338C
338C
3FFC
ENDCHAR
STARTCHAR 51A9
ENCODING 20905
SWIDTH 1020 0
DWIDTH 17 0
BBX 16 16 0 -2
BITMAP
FFFF
FFFF
C383
C603
1DF8
1818
1FB8
1818
1FF8
0C00
1FFE
3036
EDDA
36EA
36E6
601C
ENDCHAR
STARTCHAR 51AA
ENCODING 20906
SWIDTH 1020 0
DWIDTH 17 0
BBX 16 16 0 -2
BITMAP
FFFF
FFFF
CC33
7FFE
1818
1FF8
1818
1FF8
0600
FFFF
1B98
3FFC
6B9A
DB9B
1BB0
0380
ENDCHAR
STARTCHAR 51AB
ENCODING 20907
SWIDTH 1020 0
DWIDTH 17 0
BBX 8 15 4 -1
BITMAP
60
60
38
1C
1C
00
00
03
03
0E
1C
1C
38
60
C0
ENDCHAR
STARTCHAR 51AC
ENCODING 20908
SWIDTH 1020 0
DWIDTH 17 0
BBX 17 17 0 -2
BITMAP
038000
038000
038000
03FC00
060C00
0E1800
3BD000
00E000
01D000
079800
1DCE00
F0E380
003000
0E0000
03C000
00F000
001800
ENDCHAR
STARTCHAR 51B0
ENCODING 20912
SWIDTH 1020 0
DWIDTH 17 0
BBX 17 17 0 -2
BITMAP
00E000
60E000
60E000
30E300
30E300
00F600
1FB600
03B400
03A800
1BA800
36EC00
36EC00
6CE600
6CE300
D8E180
D0E000
01E000
ENDCHAR
STARTCHAR 51B1
ENCODING 20913
SWIDTH 1020 0
DWIDTH 17 0
BBX 17 15 0 -1
BITMAP
6FFF00
6FFF00
31C000
31C000
01C000
01FC00
01CC00
1B8C00
1B8C00
338C00
37F800
661800
601800
C01800
DFFF80
ENDCHAR
STARTCHAR 51B2
ENCODING 20914
SWIDTH 1020 0
DWIDTH 17 0
BBX 16 17 0 -2
BITMAP
0030
6030
6030
3030
3030
07FF
0633
0633
1A33
1A33
37FF
3030
6030
6030
C030
C030
0030
ENDCHAR
STARTCHAR 51B3
ENCODING 20915
SWIDTH 1020 0
DWIDTH 17 0
BBX 17 17 0 -2
BITMAP
00E000
60E000
60E000
30E000
37FE00
00E600
00E600
00E600
18E600
1FFF80
30F000
30E800
61D800
61CC00
C38600
C60300
1C0180
ENDCHAR
STARTCHAR 51B4
ENCODING 20916
SWIDTH 1020 0
DWIDTH 17 0
BBX 17 16 0 -2
BITMAP
67FF00
67FF00
31CC00
19CC00
19CC00
01CC00
01CC00
1BFF80
183400
303400
30EC00
61CC00
638C00
C60C00
DC0C00
001C00
ENDCHAR
STARTCHAR 51B5
ENCODING 20917
SWIDTH 1020 0
DWIDTH 17 0
BBX 17 16 0 -2
BITMAP
67FE00
67FE00
360600
360600
060600
060600
060600
1BFE00
19D800
31D800
31D800
61D800
639980
C39980
C61980
0C0F80
ENDCHAR
STARTCHAR 51B6
ENCODING 20918
SWIDTH 1020 0
DWIDTH 17 0
BBX 16 16 0 -1
BITMAP
00E0
60E0
60E0
30E0
19D8
19CC
0386
03BE
0FE3
1803
1BFE
3386
3386
6386
6386
C3FE
ENDCHAR
STARTCHAR 51B7
ENCODING 20919
SWIDTH 1020 0
DWIDTH 17 0
BBX 17 17 0 -2
BITMAP
00E000
60F000
60F000
31D000
31D800
338C00
03FE00
060300
0C0180
37FE00
30E600
30E600
60E600
60EC00
C0E000
C0E000
00E000
ENDCHAR
STARTCHAR 51BD
ENCODING 20925
SWIDTH 1020 0
DWIDTH 17 0
BBX 16 17 0 -2
BITMAP
0003
6FFB
6FFB
361B
361B
061B
07EB
06EB
36EB
35AB
35DB
69DB
6383
C383
C603
CC03
3807
ENDCHAR
STARTCHAR 51C4
ENCODING 20932
SWIDTH 1020 0
DWIDTH 17 0
BBX 17 17 0 -2
BITMAP
00E000
60E000
60E000
37FF00
30E000
37FC00
00EC00
1FFF80
00EC00
1BFC00
31C000
3FFF80
61CC00
639800
C7F800
C1EC00
1F8600
ENDCHAR
STARTCHAR 51C5
ENCODING 20933
SWIDTH 1020 0
DWIDTH 17 0
BBX 16 15 0 -1
BITMAP
6FFF
6FFF
34E3
34E3
0FFF
0CE3
0CE3
0DFB
35DB
35DB
35DB
6DFB
6C03
CC03
CFFF
ENDCHAR
STARTCHAR 51C6
ENCODING 20934
SWIDTH 1020 0
DWIDTH 17 0
BBX 17 16 0 -1
BITMAP
01CC00
61CC00
61CC00
339800
33FF00
079800
079800
0D9800
03FF00
1B9800
339800
33FF00
639800
639800
C39800
C3FF80
ENDCHAR
STARTCHAR 51C9
ENCODING 20937
SWIDTH 1020 0
DWIDTH 17 0
BBX 17 17 0 -2
BITMAP
003000
603000
603000
303000
37FF80
000000
03FE00
038600
1B8600
1B8600
33FE00
303000
63B400
63B600
C63300
CC3300
00F000
ENDCHAR
STARTCHAR 51CB
ENCODING 20939
SWIDTH 1020 0
DWIDTH 17 0
BBX 16 16 0 -2
BITMAP
67FF
67FF
3633
3633
06FD
0633
0633
1BFF
1A03
36FD
36CD
66CD
66FD
CC03
CC03
1807
ENDCHAR
STARTCHAR 51CC
ENCODING 20940
SWIDTH 1020 0
DWIDTH 17 0
BBX 17 17 0 -2
BITMAP
003000
603000
603000
37FF00
303000
003000
0FFF80
01D800
19DB00
1BAF00
36FC00
35CC00
63D800
6EE800
C0F000
C3DC00
0E0780
ENDCHAR
STARTCHAR 51CD
ENCODING 20941
SWIDTH 1020 0
DWIDTH 17 0
BBX 16 17 0 -2
BITMAP
00E0
60E0
60E0
6FFF
30E0
37FE
06E6
07FE
06E6
1AE6
37FE
31F0
63A8
66EC
CCE6
D8E3
00E0
ENDCHAR
STARTCHAR 51D6
ENCODING 20950
SWIDTH 1020 0
DWIDTH 17 0
BBX 16 17 0 -2
BITMAP
01CC
61D8
61D8
33FF
33B0
07FE
0DB0
03FE
1BB0
73FF
C1C0
01C0
FFFF
01C0
01C0
01C0
01C0
ENDCHAR
STARTCHAR 51DB
ENCODING 20955
SWIDTH 1020 0
DWIDTH 17 0
BBX 17 17 0 -2
BITMAP
003000
6FFF80
6FFF80
360600
36FA00
06DA00
06FA00
060600
1BFE00
180000
37FE00
300000
6FFF80
63B400
C3B600
C63300
0CF000
ENDCHAR
STARTCHAR 51DC
ENCODING 20956
SWIDTH 1020 0
DWIDTH 17 0
BBX 17 17 0 -2
BITMAP
003000
003000
003000
6FFF80
63BA00
33AA00
33BA00
038600
03FE00
180E00
33F800
303000
6FFF80
60F800
C3D600
CE3380
003000
ENDCHAR
STARTCHAR 51DD
ENCODING 20957
SWIDTH 1020 0
DWIDTH 17 0
BBX 17 17 0 -2
BITMAP
0C0000
0DDF00
0DDF00
6F8300
341A00
35CC00
07C600
06FF80
37CD00
358E00
33B400
6FF700
63B400
66D400
C6EC00
CCEE00
19C380
ENDCHAR
STARTCHAR 51E0
ENCODING 20960
SWIDTH 1020 0
DWIDTH 17 0
BBX 17 16 0 -2
BITMAP
0FF000
0FF000
0C3000
0C3000
0C3000
0C3000
0C3000
0C3000
0C3000
0C3000
0C3000
183000
183180
303180
601F80
C00000
ENDCHAR
STARTCHAR 51E1
ENCODING 20961
SWIDTH 1020 0
DWIDTH 17 0
BBX 16 16 0 -2
BITMAP
0FF0
0FF0
0C30
0C30
0C30
0E30
0DB0
0DD0
0DD0
0C30
0C30
1830
1833
3033
601F
C000
ENDCHAR
STARTCHAR 51E6
ENCODING 20966
SWIDTH 1020 0
DWIDTH 17 0
BBX 17 17 0 -2
BITMAP
180000
183E00
183E00
183600
1FB600
1BB600
33B600
33B600
6A3600
6A3600
CCE600
0CE680
1AC680
1B8380
31C000
60F000
C01F80
ENDCHAR
STARTCHAR 51E7
ENCODING 20967
SWIDTH 1020 0
DWIDTH 17 0
BBX 17 16 0 -2
BITMAP
3FFC00
3FFC00
300C00
338C00
338C00
37F400
35B400
35B400
35B400
35B400
35B400
35AC00
358680
638680
638380
C38180
ENDCHAR
STARTCHAR 51E9
ENCODING 20969
SWIDTH 1020 0
DWIDTH 17 0
BBX 17 16 0 -2
BITMAP
3FFC00
3FFC00
300C00
31CC00
31CC00
37FC00
31CC00
31CC00
33EC00
33EC00
36D400
36D400
35DA80
69C680
61C380
C1C180
ENDCHAR
STARTCHAR 51EA
ENCODING 20970
SWIDTH 1020 0
DWIDTH 17 0
BBX 17 16 0 -2
BITMAP
3FFC00
3FFC00
300C00
31CC00
31CC00
31CC00
35CC00
35CC00
35F400
35CC00
35CC00
35CC00
35C680
6DC680
7FFD80
C00180
ENDCHAR
STARTCHAR 51ED
ENCODING 20973
SWIDTH 1020 0
DWIDTH 17 0
BBX 17 17 0 -2
BITMAP
0C0C00
0C3800
0C3800
1BF000
303000
77FF80
D03000
303000
37FF00
300000
000000
0FF000
0C3000
0C3000
183300
303300
E01F00
ENDCHAR
STARTCHAR 51F0
ENCODING 20976
SWIDTH 1020 0
DWIDTH 17 0
BBX 17 16 0 -2
BITMAP
3FFE00
3FFE00
31C600
338600
37FA00
341A00
37FA00
341A00
37FA00
300600
37FA00
31C600
37F680
61C680
6FFD80
C00180
ENDCHAR
STARTCHAR 51F1
ENCODING 20977
SWIDTH 1020 0
DWIDTH 17 0
BBX 17 17 0 -2
BITMAP
180000
6BBE00
6BBE00
6BB600
7FB600
003600
FFD600
003600
7FB600
63B600
63B600
7FB600
663600
363600
35E680
1EE680
F1C380
ENDCHAR
STARTCHAR 51F5
ENCODING 20981
SWIDTH 1020 0
DWIDTH 17 0
BBX 15 16 1 -1
BITMAP
C006
C006
C006
C006
C006
C006
C006
C006
C006
C006
C006
C006
C006
C006
C006
FFFE
ENDCHAR
STARTCHAR 51F6
ENCODING 20982
SWIDTH 1020 0
DWIDTH 17 0
BBX 15 15 1 -1
BITMAP
0030
0030
C036
C036
DC66
C7A6
C1C6
C1E6
C3B6
C736
CC1A
D81A
D006
C006
FFFE
ENDCHAR
STARTCHAR 51F8
ENCODING 20984
SWIDTH 1020 0
DWIDTH 17 0
BBX 15 14 1 0
BITMAP
0FE0
0FE0
0C60
0C60
0C60
0C60
0C60
FC7E
C006
C006
C006
C006
C006
FFFE
ENDCHAR
STARTCHAR 51F9
ENCODING 20985
SWIDTH 1020 0
DWIDTH 17 0
BBX 15 14 1 0
BITMAP
FC7E
FC7E
CC66
CC66
CC66
CC66
CC66
CC66
CFE6
C006
C006
C006
C006
FFFE
ENDCHAR
STARTCHAR 51FA
ENCODING 20986
SWIDTH 1020 0
DWIDTH 17 0
BBX 15 16 1 -1
BITMAP
0380
0380
0380
638C
638C
638C
638C
7FFC
0380
0380
C386
C386
C386
C386
C386
FFFE
ENDCHAR
STARTCHAR 51FD
ENCODING 20989
SWIDTH 1020 0
DWIDTH 17 0
BBX 17 15 0 -1
BITMAP
FFFF80
FFFF80
060000
060000
67CD00
69CD00
6DEB00
66E300
61D300
63D300
6EDB00
79CD00
678300
600300
7FFF00
ENDCHAR
STARTCHAR 51FE
ENCODING 20990
SWIDTH 1020 0
DWIDTH 17 0
BBX 15 16 1 -2
BITMAP
3FF8
3FF8
0030
01E0
C386
DDFA
D59A
D5AA
D5AA
D5B6
DDD6
D39A
C78E
C006
FFFE
C006
ENDCHAR
STARTCHAR 5200
ENCODING 20992
SWIDTH 1020 0
DWIDTH 17 0
BBX 15 13 1 -1
BITMAP
FFFE
0386
0386
0386
0386
0386
0706
0706
0706
0C06
1806
300C
6038
ENDCHAR
STARTCHAR 5203
ENCODING 20995
SWIDTH 1020 0
DWIDTH 17 0
BBX 14 13 1 -1
BITMAP
FFFC
038C
038C
038C
3B8C
0F0C
078C
0DCC
0C6C
180C
300C
6018
C070
ENDCHAR
STARTCHAR 5204
ENCODING 20996
SWIDTH 1020 0
DWIDTH 17 0
BBX 17 16 0 -2
BITMAP
FFFE00
FFFE00
01C600
01C600
31C600
19C600
0DC600
078600
038600
03C600
06F600
061E00
0C0780
180600
300C00
60F800
ENDCHAR
STARTCHAR 5206
ENCODING 20998
SWIDTH 1020 0
DWIDTH 17 0
BBX 17 17 0 -2
BITMAP
07F000
003000
003000
0C3000
0C1800
181800
180C00
300600
6FFB00
C39980
039800
039800
061800
061800
0C1800
181800
30F000
ENDCHAR
STARTCHAR 5207
ENCODING 20999
SWIDTH 1020 0
DWIDTH 17 0
BBX 16 17 0 -2
BITMAP
3000
33FF
33FF
3033
3033
37B3
3C33
F033
3033
3033
3033
36E3
36E3
1EC3
0383
0606
1C1C
ENDCHAR
STARTCHAR 5208
ENCODING 21000
SWIDTH 1020 0
DWIDTH 17 0
BBX 16 17 0 -2
BITMAP
0383
03B3
03B3
03B3
03B3
63B3
33B3
1A33
0E33
0633
0DB3
0DB3
19C3
19C3
31C3
6003
C007
ENDCHAR
STARTCHAR 520A
ENCODING 21002
SWIDTH 1020 0
DWIDTH 17 0
BBX 16 17 0 -2
BITMAP
0003
7FD3
7FD3
0C33
0C33
0C33
0C33
FFF3
0C33
0C33
0C33
0C33
0C03
0C03
0C03
0C03
0C07
ENDCHAR
STARTCHAR 520B
ENCODING 21003
SWIDTH 1020 0
DWIDTH 17 0
BBX 16 17 0 -2
BITMAP
01C3
0FB3
0FB3
FC33
0C33
0C33
0C33
FFD3
0C33
0C33
0C33
0C33
1833
1803
3003
6003
C007
ENDCHAR
STARTCHAR 520E
ENCODING 21006
SWIDTH 1020 0
DWIDTH 17 0
BBX 16 17 0 -2
BITMAP
3003
301B
301B
3FDB
35DB
6DDB
6DDB
DBDB
1ADB
36DB
36DB
6DDB
CDDB
19C3
31C3
61C3
0787
ENDCHAR
STARTCHAR 5211
ENCODING 21009
SWIDTH 1020 0
DWIDTH 17 0
BBX 16 17 0 -2
BITMAP
0003
7FF3
7FF3
1BB3
1BB3
1BB3
1BB3
FFF3
1BB3
1BB3
1BB3
1BB3
1B83
3383
3383
6383
C387
ENDCHAR
STARTCHAR 5214
ENCODING 21012
SWIDTH 1020 0
DWIDTH 17 0
BBX 16 17 0 -2
BITMAP
0C03
0C1B
0C1B
0C1B
7FDB
0DDB
0DDB
0DDB
0DDB
FFFB
0C1B
0E1B
1B83
1B83
31C3
60E3
C007
ENDCHAR
STARTCHAR 5217
ENCODING 21015
SWIDTH 1020 0
DWIDTH 17 0
BBX 16 17 0 -2
BITMAP
0003
FFF3
FFF3
1833
1833
1833
1FB3
33B3
33B3
6BB3
CE33
0633
0C03
0C03
1803
3003
6007
ENDCHAR
STARTCHAR 521D
ENCODING 21021
SWIDTH 1020 0
DWIDTH 17 0
BBX 16 17 0 -2
BITMAP
1800
1800
1800
1BFF
FE33
0633
0C33
0DB3
1BB3
1E33
3A33
6BB3
DBA3
18E3
19C3
1B83
1A0E
ENDCHAR
STARTCHAR 5224
ENCODING 21028
SWIDTH 1020 0
DWIDTH 17 0
BBX 16 17 0 -2
BITMAP
0C03
0DDB
0DDB
6DDB
35DB
359B
0C1B
FFEB
0C1B
0C1B
0C1B
FFEB
0C1B
0C03
0C03
0C03
0C07
ENDCHAR
STARTCHAR 5225
ENCODING 21029
SWIDTH 1020 0
DWIDTH 17 0
BBX 16 17 0 -2
BITMAP
0003
7FD3
7FD3
61D3
61D3
61D3
7FD3
1833
1833
1FD3
19D3
19D3
19C3
31C3
31C3
6383
CE07
ENDCHAR
STARTCHAR 5227
ENCODING 21031
SWIDTH 1020 0
DWIDTH 17 0
BBX 16 17 0 -2
BITMAP
0C00
0CFF
0CFF
0C1B
7FDB
0C1B
0C1B
0C1B
FFEB
0C1B
0C1B
181B
1A33
1BB3
37A3
FDC3
01CE
ENDCHAR
STARTCHAR 5229
ENCODING 21033
SWIDTH 1020 0
DWIDTH 17 0
BBX 16 17 0 -2
BITMAP
01C3
07B3
07B3
7C33
0C33
0C33
0C33
FFD3
1C33
1E33
35B3
35D3
6DD3
CC03
0C03
0C03
0C07
ENDCHAR
STARTCHAR 522A
ENCODING 21034
SWIDTH 1020 0
DWIDTH 17 0
BBX 16 17 0 -2
BITMAP
0003
7FDB
7FDB
6ADB
6ADB
6ADB
6ADB
6ADB
FFEB
6ADB
6ADB
6ADB
6AC3
6AC3
6AC3
6AC3
63C7
ENDCHAR
STARTCHAR 522E
ENCODING 21038
SWIDTH 1020 0
DWIDTH 17 0
BBX 16 17 0 -2
BITMAP
01C3
079B
079B
7C1B
0C1B
0C1B
0C1B
FFEB
0C1B
0C1B
0C1B
3FDB
31C3
31C3
31C3
3FC3
0007
ENDCHAR
STARTCHAR 5230
ENCODING 21040
SWIDTH 1020 0
DWIDTH 17 0
BBX 16 17 0 -2
BITMAP
0003
FFF3
FFF3
1833
1A33
33B3
37B3
FDD3
0DD3
0C33
7FD3
0C33
0C03
0C03
0FC3
F803
0007
ENDCHAR
STARTCHAR 5233
ENCODING 21043
SWIDTH 1020 0
DWIDTH 17 0
BBX 16 17 0 -2
BITMAP
0C03
0C1B
0C1B
FFEB
1A1B
339B
61DB
DFAB
001B
FFEB
181B
181B
3F83
3383
0383
0383
0E07
ENDCHAR
STARTCHAR 5236
ENCODING 21046
SWIDTH 1020 0
DWIDTH 17 0
BBX 16 17 0 -2
BITMAP
0603
361B
361B
361B
3FEB
661B
661B
FFFB
061B
3FEB
36EB
36EB
36EB
36E3
37C3
3603
0607
ENDCHAR
STARTCHAR 5237
ENCODING 21047
SWIDTH 1020 0
DWIDTH 17 0
BBX 16 17 0 -2
BITMAP
0003
7FDB
7FDB
61DB
61DB
7FDB
6C1B
6C1B
7FDB
75DB
75DB
D5DB
D5DB
B5C3
35C3
3403
0C07
ENDCHAR
STARTCHAR 5238
ENCODING 21048
SWIDTH 1020 0
DWIDTH 17 0
BBX 17 17 0 -2
BITMAP
19CC00
0DCC00
0DCC00
0DD800
3FFF00
01C000
03A000
FFFF80
063000
0C1800
3FFE00
E39B80
039800
061800
061800
0C1800
38F000
ENDCHAR
STARTCHAR 5239
ENCODING 21049
SWIDTH 1020 0
DWIDTH 17 0
BBX 16 17 0 -2
BITMAP
0603
0633
0633
7433
1C33
1A33
33B3
6DB3
CC33
FFD3
0C33
1E33
3583
6DC3
CC03
0C03
0C07
ENDCHAR
STARTCHAR 523A
ENCODING 21050
SWIDTH 1020 0
DWIDTH 17 0
BBX 16 17 0 -2
BITMAP
0C03
0C1B
0C1B
FFEB
0C1B
0C1B
7FDB
6DDB
6DDB
6DDB
6E1B
1D9B
35DB
35C3
6C03
CC03
0C07
ENDCHAR
STARTCHAR 523B
ENCODING 21051
SWIDTH 1020 0
DWIDTH 17 0
BBX 16 17 0 -2
BITMAP
0C03
0C33
0C33
FFF3
0C33
0C33
7BB3
1A33
0E33
0DD3
19D3
33B3
6783
0DC3
18E3
30E3
E007
ENDCHAR
STARTCHAR 5243
ENCODING 21059
SWIDTH 1020 0
DWIDTH 17 0
BBX 16 17 0 -2
BITMAP
3383
1A1B
1A1B
FFDB
0DDB
0DDB
7FDB
6C1B
6C1B
7FEB
0CEB
1CEB
1CE3
34E3
6DC3
CC03
0C07
ENDCHAR
STARTCHAR 5244
ENCODING 21060
SWIDTH 1020 0
DWIDTH 17 0
BBX 16 17 0 -2
BITMAP
0003
FFDB
FFDB
001B
36EB
36EB
EDDB
6DDB
36EB
001B
FFEB
0C1B
0C03
0C03
0DC3
3E03
E007
ENDCHAR
STARTCHAR 5247
ENCODING 21063
SWIDTH 1020 0
DWIDTH 17 0
BBX 16 17 0 -2
BITMAP
0003
7FB3
7FB3
63B3
63B3
7FB3
63B3
63B3
63B3
7FB3
63B3
63B3
7FB3
3633
3383
6383
C007
ENDCHAR
STARTCHAR 524A
ENCODING 21066
SWIDTH 1020 0
DWIDTH 17 0
BBX 16 17 0 -2
BITMAP
1803
DBB3
DBB3
6BB3
6A33
1833
7FB3
63B3
63B3
7FB3
63B3
63B3
7FB3
6383
6383
6383
6787
ENDCHAR
STARTCHAR 524B
ENCODING 21067
SWIDTH 1020 0
DWIDTH 17 0
BBX 17 17 0 -2
BITMAP
0C0600
0C3600
0C3600
FFF600
0C3600
0C3600
7FD600
61D600
61D600
61D600
7FD600
1A0600
1A0600
1A0E00
360180
638180
C1FF80
ENDCHAR
STARTCHAR 524C
ENCODING 21068
SWIDTH 1020 0
DWIDTH 17 0
BBX 16 17 0 -2
BITMAP
0C03
0C1B
0C1B
FFEB
0C1B
0C1B
7FDB
6DDB
6DDB
6DDB
7FDB
1C1B
1E03
3583
6DC3
CC03
0C07
ENDCHAR
STARTCHAR 524D
ENCODING 21069
SWIDTH 1020 0
DWIDTH 17 0
BBX 17 17 0 -2
BITMAP
181800
0C1800
0C1800
0C3000
FFFF80
000000
7EE600
66E600
66E600
7EE600
66E600
66E600
7EE600
66E600
660600
660600
6E0E00
ENDCHAR
STARTCHAR 524F
ENCODING 21071
SWIDTH 1020 0
DWIDTH 17 0
BBX 17 17 0 -2
BITMAP
638000
33BF00
33BF00
361B00
FFDB00
361B00
361B00
36EB00
FFDB00
361B00
361D00
361B00
363380
363300
66E300
66C300
C78E00
ENDCHAR
STARTCHAR 5254
ENCODING 21076
SWIDTH 1020 0
DWIDTH 17 0
BBX 16 17 0 -2
BITMAP
0003
3FDB
3FDB
31DB
3FDB
31DB
31DB
3FDB
181B
1FEB
35AB
6DAB
DBA3
36E3
6CE3
18E3
03C7
ENDCHAR
STARTCHAR 5256
ENCODING 21078
SWIDTH 1020 0
DWIDTH 17 0
BBX 16 17 0 -2
BITMAP
0C03
0C1B
0C1B
7FEB
31DB
19DB
1B9B
1B9B
FFFB
001B
001B
3FDB
31DB
31C3
31C3
3FC3
0007
ENDCHAR
STARTCHAR 525B
ENCODING 21083
SWIDTH 1020 0
DWIDTH 17 0
BBX 15 17 1 -2
BITMAP
0006
FFD6
FFD6
C1D6
E756
D5D6
C1D6
FFD6
D9D6
EB56
EB56
EB56
FF46
E746
C1C6
C1C6
C3CE
ENDCHAR
STARTCHAR 525E
ENCODING 21086
SWIDTH 1020 0
DWIDTH 17 0
BBX 16 17 0 -2
BITMAP
0C03
0C1B
0C1B
FFEB
0C1B
1A1B
739B
001B
FFFB
01DB
7DDB
6DDB
6DC3
7DC3
01C3
01C3
03C7
ENDCHAR
STARTCHAR 5263
ENCODING 21091
SWIDTH 1020 0
DWIDTH 17 0
BBX 16 17 0 -2
BITMAP
0C03
0C1B
0C1B
1A1B
1B9B
31DB
7FAB
CC1B
7FDB
6DDB
6DDB
7FDB
0E1B
0D83
19C3
31C3
E007
ENDCHAR
STARTCHAR 5264
ENCODING 21092
SWIDTH 1020 0
DWIDTH 17 0
BBX 16 17 0 -2
BITMAP
0C03
0C1B
0C1B
FFFB
339B
1A1B
0E1B
3BDB
F1FB
31DB
3FDB
31DB
3FC3
31C3
61C3
61C3
C1C7
ENDCHAR
STARTCHAR 5265
ENCODING 21093
SWIDTH 1020 0
DWIDTH 17 0
BBX 16 17 0 -2
BITMAP
0003
7F9B
7F9B
039B
7F9B
039B
039B
FFEB
0C1B
CDDB
6F9B
6E1B
1D83
35C3
ECE3
0C03
1C07
ENDCHAR
STARTCHAR 5269
ENCODING 21097
SWIDTH 1020 0
DWIDTH 17 0
BBX 16 17 0 -2
BITMAP
0383
7E1B
7E1B
0C1B
FFEB
0C1B
35AB
F5DB
359B
75AB
D5EB
1E1B
1D83
35C3
6CE3
CC03
0C07
ENDCHAR
STARTCHAR 526A
ENCODING 21098
SWIDTH 1020 0
DWIDTH 17 0
BBX 17 17 0 -2
BITMAP
0C1800
063000
063000
FFFF80
338600
3DB600
37B600
3DB600
37B600
33B600
378E00
000000
FFFF00
038300
060300
1C0300
F00E00
ENDCHAR
STARTCHAR 526F
ENCODING 21103
SWIDTH 1020 0
DWIDTH 17 0
BBX 16 17 0 -2
BITMAP
0003
FFEB
FFEB
001B
3F9B
339B
339B
3F9B
001B
7FDB
6DDB
6DDB
7FDB
6DC3
6DC3
7FC3
0007
ENDCHAR
STARTCHAR 5270
ENCODING 21104
SWIDTH 1020 0
DWIDTH 17 0
BBX 16 17 0 -2
BITMAP
0383
3E1B
3E1B
0C1B
7FEB
35DB
35DB
FFFB
35DB
35DB
7FEB
1E1B
1D9B
35C3
6CE3
CC03
0C07
ENDCHAR
STARTCHAR 5271
ENCODING 21105
SWIDTH 1020 0
DWIDTH 17 0
BBX 17 17 0 -2
BITMAP
0C0000
0CFF00
0CFF00
1A1B00
339B00
7FDB00
CCEB00
0C1B00
7FDB00
6DDB00
6DDD00
7FDB00
0C1B80
1A1B00
33B300
63A300
C1CE00
ENDCHAR
STARTCHAR 5272
ENCODING 21106
SWIDTH 1020 0
DWIDTH 17 0
BBX 16 17 0 -2
BITMAP
0C03
FFEB
FFEB
C0EB
CCEB
7FDB
0C1B
7FDB
0C1B
FFEB
001B
3FDB
31DB
31C3
31C3
3FC3
0007
ENDCHAR
STARTCHAR 5273
ENCODING 21107
SWIDTH 1020 0
DWIDTH 17 0
BBX 16 17 0 -2
BITMAP
3383
339B
339B
FFEB
339B
0C1B
0C1B
1A1B
339B
7FDB
C0EB
001B
7FC3
61C3
61C3
7FC3
0007
ENDCHAR
STARTCHAR 5274
ENCODING 21108
SWIDTH 1020 0
DWIDTH 17 0
BBX 16 17 0 -2
BITMAP
0C03
6DDB
6DDB
6DDB
7FDB
001B
FFEB
001B
7FDB
61DB
61DB
7FDB
3383
1B83
1AE3
1F83
F007
ENDCHAR
STARTCHAR 5275
ENCODING 21109
SWIDTH 1020 0
DWIDTH 17 0
BBX 16 17 0 -2
BITMAP
0603
061B
061B
0D9B
19DB
3FAB
603B
DFDB
31DB
3FDB
31DB
3FDB
301B
6FC3
69C3
DFC3
0007
ENDCHAR
STARTCHAR 527D
ENCODING 21117
SWIDTH 1020 0
DWIDTH 17 0
BBX 16 17 0 -2
BITMAP
0003
FFFB
FFFB
1B9B
7FEB
6BAB
6BAB
7FEB
001B
7FEB
001B
FFFB
36DB
36E3
66E3
C603
0E07
ENDCHAR
STARTCHAR 527F
ENCODING 21119
SWIDTH 1020 0
DWIDTH 17 0
BBX 16 17 0 -2
BITMAP
36C3
6DDB
6DDB
ED9B
36DB
7FDB
6DDB
7FDB
6DDB
7FDB
0C1B
FFEB
1E03
3583
6DC3
CCE3
0C07
ENDCHAR
STARTCHAR 5283
ENCODING 21123
SWIDTH 1020 0
DWIDTH 17 0
BBX 16 17 0 -2
BITMAP
0C03
7FDB
7FDB
0DDB
FFFB
0DDB
7FDB
0C1B
3F9B
FFEB
6DDB
7FDB
6DDB
7FC3
0003
FFE3
0007
ENDCHAR
STARTCHAR 5287
ENCODING 21127
SWIDTH 1020 0
DWIDTH 17 0
BBX 16 17 0 -2
BITMAP
0C03
0FDB
0FDB
0C1B
7FEB
6DAB
7E1B
6DDB
67DB
7FEB
6E1B
7AEB
6DA3
7BC3
6DA3
DBB3
0E07
ENDCHAR
STARTCHAR 5288
ENCODING 21128
SWIDTH 1020 0
DWIDTH 17 0
BBX 17 17 0 -2
BITMAP
000C00
3F8C00
3F8C00
33BF80
33B300
3F9A00
31FF80
3F8C00
6BBF80
6B8C00
DF8C00
000000
FFFF00
01C300
078300
1C0300
F01E00
ENDCHAR
STARTCHAR 5289
ENCODING 21129
SWIDTH 1020 0
DWIDTH 17 0
BBX 16 17 0 -2
BITMAP
1803
77E3
77E3
63AB
6BAB
7AEB
EDEB
0C1B
1B9B
31EB
FF9B
0C1B
FFEB
0DC3
6D83
37C3
F807
ENDCHAR
STARTCHAR 528D
ENCODING 21133
SWIDTH 1020 0
DWIDTH 17 0
BBX 16 17 0 -2
BITMAP
0C03
0C1B
0C1B
1A1B
339B
61DB
DFAB
001B
7BDB
6ADB
6ADB
7BDB
339B
3BC3
6EE3
6603
CC07
ENDCHAR
STARTCHAR 5291
ENCODING 21137
SWIDTH 1020 0
DWIDTH 17 0
BBX 16 17 0 -2
BITMAP
0C03
0C1B
0C1B
FFFB
1AEB
F5DB
75AB
75AB
D5DB
001B
31DB
3FDB
31C3
3FC3
31C3
61C3
C1C7
ENDCHAR
STARTCHAR 5292
ENCODING 21138
SWIDTH 1020 0
DWIDTH 17 0
BBX 16 17 0 -2
BITMAP
0C00
0CFF
0CFF
1A1B
339B
61DB
DF9B
003B
7BDB
6AEB
6ADB
7BDB
339B
3BD3
6EF3
66E3
CDCE
ENDCHAR
STARTCHAR 5294
ENCODING 21140
SWIDTH 1020 0
DWIDTH 17 0
BBX 17 17 0 -2
BITMAP
0C0000
0CFF00
0CFF00
1A1B00
339B00
61DB00
DF9B00
00EB00
7BDB00
6ADB00
6ADD00
7BDB80
339B00
3BD300
6EF300
66E300
CDCE00
ENDCHAR
STARTCHAR 529B
ENCODING 21147
SWIDTH 1020 0
DWIDTH 17 0
BBX 15 17 0 -2
BITMAP
0380
0380
0380
0380
0380
FFFE
0386
0386
0386
0606
0606
0606
0C06
0C06
1806
300C
6038
ENDCHAR
STARTCHAR 529F
ENCODING 21151
SWIDTH 1020 0
DWIDTH 17 0
BBX 16 17 0 -2
BITMAP
0030
0030
0030
0030
FE30
1BFF
1833
1833
1833
1833
1833
1EE3
38E3
E0E3
01C3
0386
061C
ENDCHAR
STARTCHAR 52A0
ENCODING 21152
SWIDTH 1020 0
DWIDTH 17 0
BBX 16 17 0 -2
BITMAP
1800
1800
1800
183F
1833
FFD3
19D3
19D3
19D3
19D3
19D3
19D3
19D3
31D3
31DF
61C0
C780
ENDCHAR
STARTCHAR 52A3
ENCODING 21155
SWIDTH 1020 0
DWIDTH 17 0
BBX 16 17 0 -2
BITMAP
01C0
0DD8
0DD8
0DCC
19C6
31DA
63D3
01E3
0FA0
F8E0
00E0
3FFE
01C6
0386
0606
1C06
701C
ENDCHAR
STARTCHAR 52A9
ENCODING 21161
SWIDTH 1020 0
DWIDTH 17 0
BBX 16 17 0 -2
BITMAP
0030
7E30
7E30
6630
6630
67FF
7E33
6633
6633
7E33
6633
66E3
67A3
6EE3
79C3
E386
061C
ENDCHAR
STARTCHAR 52AA
ENCODING 21162
SWIDTH 1020 0
DWIDTH 17 0
BBX 16 17 0 -2
BITMAP
0C00
0C00
0C00
FFFE
1BA6
1BA6
33B4
7E18
0DB4
39C7
E1C0
3FFC
01CC
038C
060C
1C0C
7038
ENDCHAR
STARTCHAR 52AB
ENCODING 21163
SWIDTH 1020 0
DWIDTH 17 0
BBX 16 17 0 -2
BITMAP
0C18
0C18
0C18
0C18
7FD8
0CFF
0C1B
0C1B
0C1B
FFDB
0C1B
0C1B
1A33
1BB3
37B3
FDE3
01CE
ENDCHAR
STARTCHAR 52AC
ENCODING 21164
SWIDTH 1020 0
DWIDTH 17 0
BBX 16 17 0 -2
BITMAP
1818
1818
1818
1818
3FD8
31FF
61DB
7EDB
D6DB
36DB
36DB
36DB
3ED3
01D3
01D3
03A3
0ECE
ENDCHAR
STARTCHAR 52AD
ENCODING 21165
SWIDTH 1020 0
DWIDTH 17 0
BBX 16 17 0 -2
BITMAP
0018
FFD8
FFD8
19D8
19D8
19FF
31DB
61DB
C79B
001B
7F9B
639B
63B3
63B3
63B3
7FA3
01CE
ENDCHAR
STARTCHAR 52B1
ENCODING 21169
SWIDTH 1020 0
DWIDTH 17 0
BBX 16 17 0 -2
BITMAP
0018
3FE8
3FE8
3018
3018
3FFF
341B
341B
37DB
35DB
35DB
35DB
35DB
69D3
69D3
D3A3
0ECE
ENDCHAR
STARTCHAR 52B4
ENCODING 21172
SWIDTH 1020 0
DWIDTH 17 0
BBX 16 17 0 -2
BITMAP
3386
19C6
19C6
19CC
19D8
FFFF
C003
C383
0380
7FFC
038C
038C
060C
060C
0C0C
380C
E038
ENDCHAR
STARTCHAR 52B5
ENCODING 21173
SWIDTH 1020 0
DWIDTH 17 0
BBX 17 17 0 -2
BITMAP
0DD800
0DCC00
0DCC00
19CC00
7FFF00
01C000
03A000
FFFF80
063000
0DD800
39CE00
EFFB80
039800
039800
061800
1C1800
70F000
ENDCHAR
STARTCHAR 52B9
ENCODING 21177
SWIDTH 1020 0
DWIDTH 17 0
BBX 16 17 0 -2
BITMAP
0C18
0C18
0C18
0C18
FFD8
36FF
339B
339B
6BDB
6A1B
CE1B
0633
0DB3
1BA3
30E3
61C3
C38E
ENDCHAR
STARTCHAR 52BC
ENCODING 21180
SWIDTH 1020 0
DWIDTH 17 0
BBX 16 17 0 -2
BITMAP
1818
1818
1818
1818
FFD8
19FF
181B
181B
7F9B
001B
001B
7F9B
63B3
63B3
63A3
7FC3
038E
ENDCHAR
STARTCHAR 52BE
ENCODING 21182
SWIDTH 1020 0
DWIDTH 17 0
BBX 16 17 0 -2
BITMAP
0C18
0C18
0C18
0C18
FFFF
181B
1A1B
F61B
35DB
1DDB
1B9B
33B3
6633
0DB3
19E3
31C3
E38E
ENDCHAR
STARTCHAR 52C1
ENCODING 21185
SWIDTH 1020 0
DWIDTH 17 0
BBX 16 17 0 -2
BITMAP
0018
FFD8
FFD8
0018
3598
35BF
6A1B
EA1B
359B
359B
001B
FF9B
1833
1833
1BB3
3CE3
E1CE
ENDCHAR
STARTCHAR 52C3
ENCODING 21187
SWIDTH 1020 0
DWIDTH 17 0
BBX 16 17 0 -2
BITMAP
0C18
0C18
0C18
7F98
0C18
0CFF
FFDB
C1DB
DEDB
061B
0C1B
0FD3
FC33
0C33
0CE3
0DC3
1D8E
ENDCHAR
STARTCHAR 52C5
ENCODING 21189
SWIDTH 1020 0
DWIDTH 17 0
BBX 16 17 0 -2
BITMAP
0C18
0C18
0C18
FFE8
0C18
0DFF
7FDB
6DDB
6DDB
7FDB
1C1B
1E1B
35B3
35D3
6CE3
CDC3
0D8E
ENDCHAR
STARTCHAR 52C7
ENCODING 21191
SWIDTH 1020 0
DWIDTH 17 0
BBX 15 16 0 -2
BITMAP
3FF8
3FF8
0EE0
03C0
3FFC
338C
3FFC
338C
338C
3FFC
0380
FFFE
0386
0606
1C06
F03C
ENDCHAR
STARTCHAR 52C9
ENCODING 21193
SWIDTH 1020 0
DWIDTH 17 0
BBX 17 17 0 -2
BITMAP
181800
181800
181800
3E1800
361800
6C1800
FFFF00
6DDB00
6DDB00
6DDB00
7FDB00
1A3300
1A3300
36E600
36DD80
638180
C1FF80
ENDCHAR
STARTCHAR 52CD
ENCODING 21197
SWIDTH 1020 0
DWIDTH 17 0
BBX 16 17 0 -2
BITMAP
0C18
0C18
0C18
0C18
FFD8
00FF
3F9B
339B
339B
339B
3F9B
0C33
3633
35B3
6DA3
CDC3
1D8E
ENDCHAR
STARTCHAR 52D2
ENCODING 21202
SWIDTH 1020 0
DWIDTH 17 0
BBX 16 17 0 -2
BITMAP
3618
3618
3618
FF98
3618
36FF
3E1B
181B
7F9B
6B9B
6B9B
7F9B
1833
FFD3
18E3
19C3
1B9E
ENDCHAR
STARTCHAR 52D5
ENCODING 21205
SWIDTH 1020 0
DWIDTH 17 0
BBX 16 17 0 -2
BITMAP
03D8
3E18
3E18
0C18
FFE8
0CFF
3FDB
35DB
3FDB
35DB
35DB
3FDB
0C1B
7FB3
0DD3
1EE3
F1CE
ENDCHAR
STARTCHAR 52D7
ENCODING 21207
SWIDTH 1020 0
DWIDTH 17 0
BBX 16 16 0 -2
BITMAP
3FFC
3FFC
300C
3FFC
300C
3FFC
0018
3F98
33FF
3F9B
339B
3FB3
33D3
3FA3
F1C3
038E
ENDCHAR
STARTCHAR 52D8
ENCODING 21208
SWIDTH 1020 0
DWIDTH 17 0
BBX 16 17 0 -2
BITMAP
3398
3398
3398
FFD8
3398
3FBF
339B
3F9B
339B
FFDB
6A1B
6A1B
6AD3
73D3
6033
7FA3
01CE
ENDCHAR
STARTCHAR 52D9
ENCODING 21209
SWIDTH 1020 0
DWIDTH 17 0
BBX 17 17 0 -2
BITMAP
00E000
7FA000
7FA000
06FF80
35C600
1BA600
183400
FF9800
1AF600
1BD380
3C3000
3BFE00
683600
683600
D8E600
19C600
3B9C00
ENDCHAR
STARTCHAR 52DD
ENCODING 21213
SWIDTH 1020 0
DWIDTH 17 0
BBX 17 17 0 -2
BITMAP
003000
7DB600
7DB600
6DD400
6C3000
6DFF00
7C3000
6C3800
6FFF80
6CEC00
7DD600
6DFF00
6E3680
6C3600
6CE600
6DC600
DD9C00
ENDCHAR
STARTCHAR 52DE
ENCODING 21214
SWIDTH 1020 0
DWIDTH 17 0
BBX 16 17 0 -2
BITMAP
0C18
35AA
35AA
35AA
6A34
33A6
61C0
FFFF
C383
C383
7FFC
038C
038C
060C
0C0C
380C
E038
ENDCHAR
STARTCHAR 52DF
ENCODING 21215
SWIDTH 1020 0
DWIDTH 17 0
BBX 17 17 0 -2
BITMAP
063000
FFFF80
FFFF80
063000
1FFC00
180C00
1FFC00
180C00
1FFC00
038000
FFFF80
0DD800
3FFE00
E39B80
061800
1C1800
70F000
ENDCHAR
STARTCHAR 52E0
ENCODING 21216
SWIDTH 1020 0
DWIDTH 17 0
BBX 16 17 0 -2
BITMAP
0018
FFD8
FFD8
6AD8
DDD8
3BFF
EADB
1DDB
1A1B
339B
EDDB
1A1B
75DB
1BB3
7633
1CE3
F1CE
ENDCHAR
STARTCHAR 52E2
ENCODING 21218
SWIDTH 1020 0
DWIDTH 17 0
BBX 17 17 0 -2
BITMAP
0C1800
7F9800
7F9800
0C1800
FFFE00
359A00
35EA00
7FB600
CDDA00
0FAE80
FBC680
038380
7FFC00
038C00
060C00
1C0C00
703800
ENDCHAR
STARTCHAR 52E3
ENCODING 21219
SWIDTH 1020 0
DWIDTH 17 0
BBX 16 17 0 -2
BITMAP
0C18
7F98
7F98
0C18
7F98
0CFF
FFDB
001B
3F9B
339B
3F9B
339B
3F9B
33B3
3FB3
3BA3
E1CE
ENDCHAR
STARTCHAR 52E4
ENCODING 21220
SWIDTH 1020 0
DWIDTH 17 0
BBX 16 17 0 -2
BITMAP
3398
3398
3398
FFE8
3398
00FF
7FDB
6DDB
6DDB
7FDB
0C1B
7FDB
0C33
7FD3
0C33
0FA3
F9CE
ENDCHAR
STARTCHAR 52E6
ENCODING 21222
SWIDTH 1020 0
DWIDTH 17 0
BBX 16 17 0 -2
BITMAP
36D8
6DD8
6DD8
ED98
36D8
7FFF
6DDB
7FDB
6DDB
7FDB
0C1B
FFEB
1D9B
35D3
6C33
CCE3
0DCE
ENDCHAR
STARTCHAR 52E7
ENCODING 21223
SWIDTH 1020 0
DWIDTH 17 0
BBX 16 17 0 -2
BITMAP
3018
3018
3018
3FD8
6C18
6CFF
DFDB
1B9B
361B
7FDB
D61B
3FB3
3633
3FB3
36E3
3FE3
01CE
ENDCHAR
STARTCHAR 52F2
ENCODING 21234
SWIDTH 1020 0
DWIDTH 17 0
BBX 17 17 0 -2
BITMAP
039800
7E1800
7E1800
0C1800
FFD800
0CFF00
7F9B00
6D9B00
7F9B00
6D9B00
7FB300
3E3300
0FAE00
F80000
363600
639B00
C39980
ENDCHAR
STARTCHAR 52F3
ENCODING 21235
SWIDTH 1020 0
DWIDTH 17 0
BBX 16 17 0 -2
BITMAP
0618
7C18
7C18
1818
FFD8
18FF
7F9B
7B9B
6D9B
7F9B
181B
7F9B
181B
FFD3
75B3
6AE3
DACE
ENDCHAR
STARTCHAR 52F5
ENCODING 21237
SWIDTH 1020 0
DWIDTH 17 0
BBX 16 17 0 -2
BITMAP
000C
7FEC
7FEC
6D8C
7FEC
6DBF
6FCD
6ACD
6FCD
6ACD
6FCD
660D
7FEB
75AB
DEF3
30E3
31EE
ENDCHAR
STARTCHAR 52F8
ENCODING 21240
SWIDTH 1020 0
DWIDTH 17 0
BBX 16 17 0 -2
BITMAP
1B98
FFE8
FFE8
1B98
7BD8
6AFF
7BDB
361B
341B
7FDB
EC1B
7F9B
6C1B
7FB3
6C33
7FE3
01CE
ENDCHAR
STARTCHAR 52F9
ENCODING 21241
SWIDTH 1020 0
DWIDTH 17 0
BBX 16 17 0 -2
BITMAP
1800
1800
1800
1FFF
1803
3003
3003
6003
C003
0003
0003
0003
0003
0003
0003
0006
003C
ENDCHAR
STARTCHAR 52FA
ENCODING 21242
SWIDTH 1020 0
DWIDTH 17 0
BBX 16 17 0 -2
BITMAP
0C00
0C00
0C00
0C00
0FFF
1803
1803
3003
6783
C1C3
00E3
00E3
0003
0003
0003
0006
001C
ENDCHAR
STARTCHAR 52FE
ENCODING 21246
SWIDTH 1020 0
DWIDTH 17 0
BBX 16 17 0 -2
BITMAP
1800
1800
1800
1800
1FFF
1B83
3383
3383
6383
C6E3
0633
0633
0DFB
3F9B
0003
0006
003C
ENDCHAR
STARTCHAR 52FF
ENCODING 21247
SWIDTH 1020 0
DWIDTH 17 0
BBX 15 17 0 -2
BITMAP
1800
1800
1800
1800
1FFE
3636
3636
6636
CCE6
0CE6
18E6
31C6
61C6
0386
0606
0C0C
0038
ENDCHAR
STARTCHAR 5301
ENCODING 21249
SWIDTH 1020 0
DWIDTH 17 0
BBX 17 17 0 -2
BITMAP
180000
180000
180000
1FFE00
19C600
39C600
35C600
6DC600
C6C600
038600
03C600
03B600
061E00
0C0780
380600
E00C00
00F800
ENDCHAR
STARTCHAR 5302
ENCODING 21250
SWIDTH 1020 0
DWIDTH 17 0
BBX 16 17 0 -2
BITMAP
1800
1800
1800
1800
1FFF
3403
3403
6C33
CDE3
0F83
0C03
0C1B
0C1B
07FB
0003
0006
001C
ENDCHAR
STARTCHAR 5305
ENCODING 21253
SWIDTH 1020 0
DWIDTH 17 0
BBX 16 17 0 -2
BITMAP
0C00
0C00
0C00
0FFE
1806
1806
3FF6
6036
C036
0036
1FF4
1838
1800
1800
1803
0C03
07FF
ENDCHAR
STARTCHAR 5306
ENCODING 21254
SWIDTH 1020 0
DWIDTH 17 0
BBX 16 17 0 -2
BITMAP
1800
1800
1800
1FFF
1BB3
33B3
33B3
63B3
DE33
07B3
0DE3
38F3
E1DB
0383
0E03
3806
001C
ENDCHAR
STARTCHAR 5308
ENCODING 21256
SWIDTH 1020 0
DWIDTH 17 0
BBX 16 17 0 -2
BITMAP
1800
1800
1800
1FFF
1803
3033
3633
6BAD
D9ED
19ED
19D5
1BB5
1A0D
1FFD
0003
0006
001C
ENDCHAR
STARTCHAR 530D
ENCODING 21261
SWIDTH 1020 0
DWIDTH 17 0
BBX 16 17 0 -2
BITMAP
1800
1800
1800
1FFF
18E3
33B3
3FFD
6383
DFFB
339B
3FFB
339B
3FFB
339B
339B
33BA
001C
ENDCHAR
STARTCHAR 530F
ENCODING 21263
SWIDTH 1020 0
DWIDTH 17 0
BBX 17 17 0 -2
BITMAP
183000
183000
183000
FFBF00
343300
36E300
63BD00
FEED00
00ED00
FFBD00
30E300
30E300
7EEE00
66E000
06E180
063180
1C1F80
ENDCHAR
STARTCHAR 5310
ENCODING 21264
SWIDTH 1020 0
DWIDTH 17 0
BBX 16 17 0 -2
BITMAP
1800
1800
1800
1FFF
3003
3FFB
6003
DFF3
1833
1FF3
0003
3FFB
339B
3FFB
339B
3FFA
001C
ENDCHAR
STARTCHAR 5315
ENCODING 21269
SWIDTH 1020 0
DWIDTH 17 0
BBX 15 17 1 -2
BITMAP
3000
3000
3000
3000
300C
3018
3030
31E0
3780
3C00
F000
3000
3000
3006
3006
1806
0FFE
ENDCHAR
STARTCHAR 5316
ENCODING 21270
SWIDTH 1020 0
DWIDTH 17 0
BBX 17 17 0 -2
BITMAP
06E000
06E000
06E000
06E300
0CE300
0CE600
18E600
18EC00
38E800
68F000
D8E000
18E000
18E000
18E180
18E180
183180
181F80
ENDCHAR
STARTCHAR 5317
ENCODING 21271
SWIDTH 1020 0
DWIDTH 17 0
BBX 16 17 0 -2
BITMAP
0CE0
0CE0
0CE0
0CE0
0CE6
0CE6
FCEC
0CE8
0CF0
0CE0
0CE0
1CE0
34E3
ECE3
0C33
0C1F
0C00
ENDCHAR
STARTCHAR 5319
ENCODING 21273
SWIDTH 1020 0
DWIDTH 17 0
BBX 17 17 0 -2
BITMAP
003000
3FB000
3FB000
33B000
3FB300
33B600
33BC00
3FB000
003000
FFD000
343300
343300
37D300
3C1F00
6C0000
678000
C1FF80
ENDCHAR
STARTCHAR 531A
ENCODING 21274
SWIDTH 1020 0
DWIDTH 17 0
BBX 15 15 1 -1
BITMAP
FFFE
FFFE
C000
C000
C000
C000
C000
C000
C000
C000
C000
C000
C000
C000
FFFE
ENDCHAR
STARTCHAR 531D
ENCODING 21277
SWIDTH 1020 0
DWIDTH 17 0
BBX 16 15 1 -1
BITMAP
FFFE
FFFE
C000
C1C0
C1C0
DFFC
D9CC
D9CC
D9CC
D9CC
D9D8
D9C0
C1C0
C1C0
FFFF
ENDCHAR
STARTCHAR 5320
ENCODING 21280
SWIDTH 1020 0
DWIDTH 17 0
BBX 15 15 1 -1
BITMAP
FFFE
FFFE
C018
C1F0
DF80
D800
DFFC
D860
D860
D860
D860
D060
D060
E060
FFFE
ENDCHAR
STARTCHAR 5321
ENCODING 21281
SWIDTH 1020 0
DWIDTH 17 0
BBX 15 15 1 -1
BITMAP
FFFE
FFFE
C000
C000
DFF8
C380
C380
DFF0
C380
C380
C380
DFFC
C000
C000
FFFE
ENDCHAR
STARTCHAR 5323
ENCODING 21283
SWIDTH 1020 0
DWIDTH 17 0
BBX 16 15 1 -1
BITMAP
FFFE
FFFE
C000
DFFC
D9CC
D9CC
DFFC
D9CC
D9CC
DFFC
C1C0
C1C0
C1C0
C1C0
FFFF
ENDCHAR
STARTCHAR 532A
ENCODING 21290
SWIDTH 1020 0
DWIDTH 17 0
BBX 15 15 1 -1
BITMAP
FFFE
FFFE
C760
C760
DF7C
C760
C760
DF7C
C760
CFA0
DB7E
CC60
CC60
D800
FFFE
ENDCHAR
STARTCHAR 532F
ENCODING 21295
SWIDTH 1020 0
DWIDTH 17 0
BBX 16 16 1 -2
BITMAP
FFFF
FFFF
D000
DB98
C3B0
E7FE
D760
CFFC
C760
DBFC
D760
D760
E7FE
C000
FFFF
C000
ENDCHAR
STARTCHAR 5331
ENCODING 21297
SWIDTH 1020 0
DWIDTH 17 0
BBX 16 16 1 -2
BITMAP
FFFF
FFFF
C1C0
CFFC
CDCC
CFFC
C1C0
DFFF
C718
C7F8
C718
C7F8
C7B8
DC0C
FFFF
C000
ENDCHAR
STARTCHAR 5333
ENCODING 21299
SWIDTH 1020 0
DWIDTH 17 0
BBX 16 16 1 -2
BITMAP
FFFF
FFFF
C1C0
C3A0
C730
DFEC
F007
DFBC
DBAC
DFBC
CC18
CF1C
DBB6
D060
FFFF
C000
ENDCHAR
STARTCHAR 5338
ENCODING 21304
SWIDTH 1020 0
DWIDTH 17 0
BBX 17 15 0 -1
BITMAP
FFFF80
FFFF80
300000
300000
300000
300000
300000
300000
300000
300000
300000
300000
300000
180000
0FFF00
ENDCHAR
STARTCHAR 5339
ENCODING 21305
SWIDTH 1020 0
DWIDTH 17 0
BBX 17 12 0 0
BITMAP
FFFF80
C63000
C63000
C63000
C63000
CC3000
CC3300
D83300
D01F00
C00000
C00000
FFFF80
ENDCHAR
STARTCHAR 533A
ENCODING 21306
SWIDTH 1020 0
DWIDTH 17 0
BBX 16 15 1 -1
BITMAP
FFFE
FFFE
C018
C018
C018
C030
DC30
C7A0
C1C0
C3A0
C730
CC18
D818
D000
FFFF
ENDCHAR
STARTCHAR 533B
ENCODING 21307
SWIDTH 1020 0
DWIDTH 17 0
BBX 15 15 1 -1
BITMAP
FFFE
FFFE
C700
C700
CFFC
D9C0
D1C0
FFFE
C3A0
C3B0
C718
CC0C
D80C
D000
FFFE
ENDCHAR
STARTCHAR 533F
ENCODING 21311
SWIDTH 1020 0
DWIDTH 17 0
BBX 15 15 1 -1
BITMAP
FFFE
FFFE
C000
CC30
FFFE
CDB0
C380
FFFE
C700
CFF8
DC18
F418
CFF8
C000
FFFE
ENDCHAR
STARTCHAR 5340
ENCODING 21312
SWIDTH 1020 0
DWIDTH 17 0
BBX 17 15 0 -1
BITMAP
FFFF80
FFFF80
600000
67F800
661800
661800
67F800
600000
6FBE00
6BB600
6BB600
6BB600
6FBE00
600000
7FFF80
ENDCHAR
STARTCHAR 5341
ENCODING 21313
SWIDTH 1020 0
DWIDTH 17 0
BBX 17 17 0 -2
BITMAP
01C000
01C000
01C000
01C000
01C000
01C000
01C000
FFFF80
01C000
01C000
01C000
01C000
01C000
01C000
01C000
01C000
01C000
ENDCHAR
STARTCHAR 5343
ENCODING 21315
SWIDTH 1020 0
DWIDTH 17 0
BBX 17 17 0 -2
BITMAP
000C00
003800
003800
3FE000
01C000
01C000
01C000
01C000
FFFF80
01C000
01C000
01C000
01C000
01C000
01C000
01C000
01C000
ENDCHAR
STARTCHAR 5345
ENCODING 21317
SWIDTH 1020 0
DWIDTH 17 0
BBX 17 17 0 -2
BITMAP
19CC00
19CC00
19CC00
19CC00
19CC00
19CC00
19CC00
FFFF80
19CC00
19CC00
19CC00
19CC00
19CC00
31CC00
31CC00
61CC00
C1CC00
ENDCHAR
STARTCHAR 5346
ENCODING 21318
SWIDTH 1020 0
DWIDTH 17 0
BBX 16 17 0 -2
BITMAP
0600
0600
0600
FFF0
0630
0630
0C30
1833
339B
E38F
0380
FFFF
0380
0380
0380
0380
0380
ENDCHAR
STARTCHAR 5347
ENCODING 21319
SWIDTH 1020 0
DWIDTH 17 0
BBX 17 17 0 -2
BITMAP
001800
01D800
01D800
079800
7C1800
0C1800
0C1800
0C1800
FFFF80
0C1800
0C1800
0C1800
0C1800
181800
181800
301800
601800
ENDCHAR
STARTCHAR 5348
ENCODING 21320
SWIDTH 1020 0
DWIDTH 17 0
BBX 17 17 0 -2
BITMAP
0C0000
0C0000
0C0000
0FFE00
19C000
19C000
31C000
61C000
01C000
FFFF80
01C000
01C000
01C000
01C000
01C000
01C000
01C000
ENDCHAR
STARTCHAR 5349
ENCODING 21321
SWIDTH 1020 0
DWIDTH 17 0
BBX 17 17 0 -2
BITMAP
01C000
01C000
01C000
3FFE00
01C000
01C000
0DCC00
0C0C00
0C0C00
FFFF80
0C0C00
0C0C00
0C0C00
180C00
180C00
300C00
600C00
ENDCHAR
STARTCHAR 534A
ENCODING 21322
SWIDTH 1020 0
DWIDTH 17 0
BBX 17 17 0 -2
BITMAP
01C000
01C600
01C600
31C600
19CC00
0DD800
0DC000
7FFF00
01C000
01C000
01C000
FFFF80
01C000
01C000
01C000
01C000
01C000
ENDCHAR
STARTCHAR 534D
ENCODING 21325
SWIDTH 1020 0
DWIDTH 17 0
BBX 17 17 0 -2
BITMAP
000300
FFC300
FFC300
01C300
01C300
01C300
01C300
01C300
7FFF00
61C000
61C000
61C000
61C000
61C000
61C000
61FF80
600000
ENDCHAR
STARTCHAR 5351
ENCODING 21329
SWIDTH 1020 0
DWIDTH 17 0
BBX 17 17 0 -2
BITMAP
01C000
038000
038000
1FFE00
19C600
19C600
1FFE00
19C600
19C600
1FFE00
06E000
0CE000
FFFF80
00E000
00E000
00E000
00E000
ENDCHAR
STARTCHAR 5352
ENCODING 21330
SWIDTH 1020 0
DWIDTH 17 0
BBX 17 17 0 -2
BITMAP
01C000
01C000
01C000
7FFF00
0C1800
0C1800
0E1C00
1BB600
31E300
61C000
FFFF80
01C000
01C000
01C000
01C000
01C000
01C000
ENDCHAR
STARTCHAR 5353
ENCODING 21331
SWIDTH 1020 0
DWIDTH 17 0
BBX 17 17 0 -2
BITMAP
01C000
01C000
01C000
01FE00
01C000
1FFC00
180C00
180C00
1FFC00
180C00
180C00
1FFC00
01C000
FFFF80
01C000
01C000
01C000
ENDCHAR
STARTCHAR 5354
ENCODING 21332
SWIDTH 1020 0
DWIDTH 17 0
BBX 17 17 0 -2
BITMAP
30E000
30E000
30E000
37FE00
30E600
30E600
FDC600
339C00
360C00
360C00
3FFF80
36ED80
36ED80
36ED80
34ED80
34E980
3BD700
ENDCHAR
STARTCHAR 5357
ENCODING 21335
SWIDTH 1020 0
DWIDTH 17 0
BBX 17 17 0 -2
BITMAP
01C000
01C000
01C000
FFFF80
01C000
01C000
3FFE00
363600
33A600
37FA00
31C600
31C600
3FFE00
31C600
31C600
31C600
31CE00
ENDCHAR
STARTCHAR 5358
ENCODING 21336
SWIDTH 1020 0
DWIDTH 17 0
BBX 17 17 0 -2
BITMAP
1B8C00
0DCC00
0DCC00
0DD800
1FFE00
19C600
19C600
1FFE00
19C600
19C600
1FFE00
01C000
01C000
FFFF80
01C000
01C000
01C000
ENDCHAR
STARTCHAR 535A
ENCODING 21338
SWIDTH 1020 0
DWIDTH 17 0
BBX 17 17 0 -2
BITMAP
303400
303600
303600
37FF80
303000
33FF00
33B300
FDFF00
33B300
33FF00
300C00
37FF80
338C00
31CC00
31CC00
300C00
301C00
ENDCHAR
STARTCHAR 535C
ENCODING 21340
SWIDTH 1020 0
DWIDTH 17 0
BBX 9 17 5 -2
BITMAP
C000
C000
C000
C000
C000
C000
F800
DC00
C600
C300
C180
C000
C000
C000
C000
C000
C000
ENDCHAR
STARTCHAR 535E
ENCODING 21342
SWIDTH 1020 0
DWIDTH 17 0
BBX 17 17 0 -2
BITMAP
01C000
01C000
01C000
FFFF80
01C000
01C000
01C000
01E000
01D800
01CC00
01C600
01C000
01C000
01C000
01C000
01C000
01C000
ENDCHAR
STARTCHAR 5360
ENCODING 21344
SWIDTH 1020 0
DWIDTH 17 0
BBX 15 16 2 -1
BITMAP
0E00
0E00
0E00
0E00
0E00
0FFE
0E00
0E00
0E00
0E00
FFF0
C030
C030
C030
C030
FFF0
ENDCHAR
STARTCHAR 5366
ENCODING 21350
SWIDTH 1020 0
DWIDTH 17 0
BBX 16 17 0 -2
BITMAP
0C18
0C18
0C18
7FD8
0C18
0C18
0C1C
FFEA
0C1B
0C1B
7FD8
0C18
0C18
0DE8
1E18
F018
0018
ENDCHAR
STARTCHAR 5369
ENCODING 21353
SWIDTH 1020 0
DWIDTH 17 0
BBX 10 16 3 -2
BITMAP
FFC0
FFC0
C0C0
C0C0
C0C0
C0C0
C0C0
C0C0
C0C0
C0C0
C0C0
CF80
C000
C000
C000
C000
ENDCHAR
STARTCHAR 536E
ENCODING 21358
SWIDTH 1020 0
DWIDTH 17 0
BBX 17 17 0 -2
BITMAP
000C00
00F800
00F800
3FC000
300000
300000
3FFF80
300000
37FC00
360C00
360C00
360C00
363C00
660300
660300
C38300
01FF00
ENDCHAR
STARTCHAR 536F
ENCODING 21359
SWIDTH 1020 0
DWIDTH 17 0
BBX 15 17 0 -2
BITMAP
0600
1C00
1C00
70FE
66E6
66E6
66E6
66E6
66E6
66E6
66E6
7EE6
E6E6
0CEC
0CE0
18E0
30E0
ENDCHAR
STARTCHAR 5370
ENCODING 21360
SWIDTH 1020 0
DWIDTH 17 0
BBX 15 17 1 -2
BITMAP
0700
1C00
1C00
F1FE
C1C6
C1C6
C1C6
FF46
C1C6
C1C6
C1C6
C1C6
FF5C
01C0
01C0
01C0
01C0
ENDCHAR
STARTCHAR 5371
ENCODING 21361
SWIDTH 1020 0
DWIDTH 17 0
BBX 16 17 0 -2
BITMAP
0C00
0FF8
0FF8
1830
30E0
7FFF
D000
3000
37FC
360C
360C
360C
3638
6603
6603
C383
01FF
ENDCHAR
STARTCHAR 5373
ENCODING 21363
SWIDTH 1020 0
DWIDTH 17 0
BBX 16 16 0 -2
BITMAP
3FDF
3FDF
31D3
31D3
3FD3
31D3
31D3
31D3
3FD3
3433
3633
33B3
36D6
39D0
E030
0030
ENDCHAR
STARTCHAR 5374
ENCODING 21364
SWIDTH 1020 0
DWIDTH 17 0
BBX 16 17 0 -2
BITMAP
0C00
0C3F
0C3F
7FD3
0C33
0C33
0C33
0C33
FFF3
1833
1A33
1BB3
33B3
37D6
FDD0
01D0
0030
ENDCHAR
STARTCHAR 5375
ENCODING 21365
SWIDTH 1020 0
DWIDTH 17 0
BBX 16 17 0 -2
BITMAP
0600
0C00
0C00
383F
33B3
33B3
33B3
3BBB
35B5
35B5
33B3
33B3
3FB3
E636
0630
0C30
1830
ENDCHAR
STARTCHAR 5377
ENCODING 21367
SWIDTH 1020 0
DWIDTH 17 0
BBX 17 17 0 -2
BITMAP
0DD800
0DCC00
0DCC00
19CC00
7FFF00
01C000
03A000
FFFF80
063000
0C1800
3FFE00
EC1B80
0C1800
0CF000
0C0600
060600
03FE00
ENDCHAR
STARTCHAR 5378
ENCODING 21368
SWIDTH 1020 0
DWIDTH 17 0
BBX 16 17 0 -2
BITMAP
3000
303F
303F
3FD3
3433
6C33
CC33
FFF3
0C33
6C33
6FD3
6C33
6C33
6FDE
7C30
E030
0030
ENDCHAR
STARTCHAR 537B
ENCODING 21371
SWIDTH 1020 0
DWIDTH 17 0
BBX 16 17 0 -2
BITMAP
0C00
1A3F
1A3F
1BB3
31D3
6DD3
DA33
1BB3
31D3
31D3
7FB3
D3B3
33B3
33B6
33B0
3FB0
0030
ENDCHAR
STARTCHAR 537F
ENCODING 21375
SWIDTH 1020 0
DWIDTH 17 0
BBX 16 17 0 -2
BITMAP
0C00
1BEF
1BEF
76EB
6AEB
6BEB
6AEB
6AEB
6BEB
6A1B
6B9B
7ADB
EAEB
1BEE
3638
3018
6018
ENDCHAR
STARTCHAR 5382
ENCODING 21378
SWIDTH 1020 0
DWIDTH 17 0
BBX 16 15 0 -1
BITMAP
3FFF
3FFF
3000
3000
3000
3000
3000
3000
3000
3000
3000
3000
6000
6000
C000
ENDCHAR
STARTCHAR 5384
ENCODING 21380
SWIDTH 1020 0
DWIDTH 17 0
BBX 17 15 0 -1
BITMAP
3FFF80
3FFF80
300000
300000
37FC00
360C00
360C00
360C00
360C00
360C00
363800
360300
660300
638300
C1FF00
ENDCHAR
STARTCHAR 5396
ENCODING 21398
SWIDTH 1020 0
DWIDTH 17 0
BBX 17 16 0 -2
BITMAP
3FFF80
3FFF80
300600
36C600
36EC00
361B00
3FF300
360600
360D80
379980
35B300
358600
6D8C00
6BB980
DB8180
31FF80
ENDCHAR
STARTCHAR 5398
ENCODING 21400
SWIDTH 1020 0
DWIDTH 17 0
BBX 17 15 0 -1
BITMAP
3FFF80
3FFF80
300000
37FE00
36E600
37FE00
36E600
36E600
37FE00
30E000
30E000
37FF00
60E000
60E000
DFFF80
ENDCHAR
STARTCHAR 539A
ENCODING 21402
SWIDTH 1020 0
DWIDTH 17 0
BBX 17 16 0 -2
BITMAP
3FFF00
3FFF00
300000
37FC00
360C00
37FC00
360C00
37FC00
300000
37FC00
303000
30E000
6FFF80
60E000
C0E000
01E000
ENDCHAR
STARTCHAR 539F
ENCODING 21407
SWIDTH 1020 0
DWIDTH 17 0
BBX 17 16 0 -2
BITMAP
3FFF80
3FFF80
30E000
31C000
37FC00
360C00
37FC00
360C00
360C00
37FC00
30E000
36EC00
66E600
6CE300
D8E300
01E000
ENDCHAR
STARTCHAR 53A0
ENCODING 21408
SWIDTH 1020 0
DWIDTH 17 0
BBX 17 16 0 -2
BITMAP
3FFF80
3FFF80
300000
37E300
34EB00
34EB00
37EB00
34EB00
34EB00
37EB00
34EB00
34EB00
6FE300
66C300
CCE300
180700
ENDCHAR
STARTCHAR 53A5
ENCODING 21413
SWIDTH 1020 0
DWIDTH 17 0
BBX 17 16 0 -2
BITMAP
3FFF80
3FFF80
34E800
36E800
36D800
3FEF80
33B180
35B500
35AC00
35AC00
35AC00
37EA00
661A00
663600
CCE300
19C180
ENDCHAR
STARTCHAR 53A6
ENCODING 21414
SWIDTH 1020 0
DWIDTH 17 0
BBX 17 16 0 -2
BITMAP
3FFF80
3FFF80
300000
3FFF80
30E000
37FE00
360600
37FE00
360600
37FE00
30E000
31FE00
67CC00
6CF800
C1EC00
3F8780
ENDCHAR
STARTCHAR 53A8
ENCODING 21416
SWIDTH 1020 0
DWIDTH 17 0
BBX 17 16 0 -2
BITMAP
3FFF80
3FFF80
300000
300600
3FE600
300600
37FF80
35C600
35E600
37D600
303600
35C600
66C600
67B600
C7C600
3C0E00
ENDCHAR
STARTCHAR 53A9
ENCODING 21417
SWIDTH 1020 0
DWIDTH 17 0
BBX 17 16 0 -2
BITMAP
3FFF80
3FFF80
300000
37DF00
35D400
35D400
37D400
35D400
35FF80
37CC00
341C00
359C00
6DD400
6DD580
CEED80
39C780
ENDCHAR
STARTCHAR 53AD
ENCODING 21421
SWIDTH 1020 0
DWIDTH 17 0
BBX 17 16 0 -2
BITMAP
7FFF80
7FFF80
600000
6FCD00
69CD80
6FCC00
69FF80
6FCC00
600C00
6FCE00
69DA00
6FDA00
69DA00
6FD300
D9E300
DBC180
ENDCHAR
STARTCHAR 53AE
ENCODING 21422
SWIDTH 1020 0
DWIDTH 17 0
BBX 17 16 0 -2
BITMAP
3FFF80
3FFF80
300300
35C600
35DC00
3FF800
35DF80
37DB00
35DB00
37DB00
35DB00
35DB00
7FF300
6DB300
D9E300
31C300
ENDCHAR
STARTCHAR 53B0
ENCODING 21424
SWIDTH 1020 0
DWIDTH 17 0
BBX 17 16 0 -2
BITMAP
7FFF80
7FFF80
638C00
6DAC00
6DAC00
6BB780
639B00
6FEB00
68EB00
6BF500
6AED00
6AE600
6BE600
68ED00
D8EB00
19F180
ENDCHAR
STARTCHAR 53B3
ENCODING 21427
SWIDTH 1020 0
DWIDTH 17 0
BBX 17 17 0 -2
BITMAP
19C600
0CEC00
0CEC00
3FFF80
301800
37E800
339800
3FEF80
35D600
37D600
35EA00
37DA00
35CC00
6DEC00
6FDA00
DDD300
01E180
ENDCHAR
STARTCHAR 53B6
ENCODING 21430
SWIDTH 1020 0
DWIDTH 17 0
BBX 16 17 0 -2
BITMAP
0380
0380
0380
0380
0380
0380
0380
0380
0600
0630
0618
060C
0C0C
0C3E
1BE6
FE03
0003
ENDCHAR
ENDFONT
